<?xml version="1.0" encoding="UTF-8" standalone="no"?>
<!-- Created with Inkscape (http://www.inkscape.org/) -->

<svg
   width="512"
   height="512"
   viewBox="0 0 512.00004 512.00002"
   version="1.1"
   id="svg1"
   xmlns="http://www.w3.org/2000/svg"
   xmlns:svg="http://www.w3.org/2000/svg">
  <defs
     id="defs1" />
  <g
     id="layer1">
    <rect
       style="fill:#373748;stroke:#1a1a1a;stroke-width:15;stroke-dasharray:none"
       id="rect1"
       width="447.31335"
       height="447.31335"
       x="32.343338"
       y="32.343338"
       rx="63.545906"
       ry="63.545906" />
    <path
       style="font-size:192px;font-family:'a dripping marker';-inkscape-font-specification:'a dripping marker';text-align:center;text-anchor:middle;fill:#ffff00;stroke-width:15"
       d="m 143.96798,214.84937 q -0.384,-0.384 -1.152,-2.112 -0.576,-1.536 -0.576,-2.304 -0.384,-0.384 -0.96,-1.728 -0.384,-1.536 -0.384,-2.304 0,-0.384 -0.384,-1.92 -0.192,-1.728 -0.576,-3.648 -0.384,-2.112 -0.768,-3.84 -0.192,-1.92 -0.384,-2.88 0,-1.152 -0.384,-4.032 -0.384,-2.88 -0.384,-3.456 -0.384,-2.304 -0.96,-7.488 -0.576,-5.376 -1.344,-10.944 -0.576,-5.76 -1.152,-10.56 -0.576,-4.8 -0.96,-6.528 0,-0.96 -0.192,-2.688 0,-1.728 -0.192,-3.456 -0.192,-1.92 -0.384,-3.264 0,-1.344 0,-1.728 v -12.096 -11.52 q 0,-0.384 0.384,-2.88 0.384,-2.496 0.384,-3.84 0.384,-0.96 0.768,-2.112 l 0.384,-1.536 q 0.384,-0.768 1.536,-3.072 1.344,-2.496 1.728,-3.648002 0.192,-0.192 0.96,-1.344 0.768,-1.152 0.96,-1.536 l 2.304,-2.304 q 0.384,-0.192 1.536,-0.96 1.152,-0.768 1.344,-0.96 0.384,-0.192 0.96,-0.384 0.576,-0.384 1.344,-0.768 0.768,-0.384 1.728,-0.576 0.384,0 0.768,-0.192 0.576,-0.384 0.96,-0.384 0.384,0 0.768,0.384 0.576,0.192 0.96,0.192 0.384,0 0.96,0.768 0.768,0.576 0.768,0.96 0,0.192 0.192,0.384 0,0.192 0,0.384 0.192,0.192 0.192,0.384 l -0.384,0.768 q 0,0.768 -0.384,2.112 -0.192,1.152 -0.384,1.152 0,0 -0.384,0.768 -0.384,0.576 -0.96,1.344 -0.576,0.576002 -1.152,1.344002 -0.576,0.576 -0.768,0.768 -0.192,0.192 -0.384,0.576 0,0.192 -0.192,0.576 -0.192,0.576 -0.576,0.96 v 31.104 h 1.152 q 0.192,0 0.96,-0.192 0.96,-0.192 1.728,-0.192 0.96,-0.192 1.728,-0.384 0.768,-0.192 0.768,-0.192 1.344,-0.192 4.608,-0.768 3.456,-0.768 7.296,-1.344 4.032,-0.768 7.296,-1.344 3.456,-0.576 4.8,-0.768 l 1.728,-0.96 V 96.385368 q 0,-0.384 0.96,-1.728 0.96,-1.536 1.536,-2.496 l 5.184,-5.184 q 0.384,0 1.728,-0.768 1.344,-0.768 2.112,-0.96 h 0.768 0.576 q 0.576,0 1.728,0.384 0.576,0.192 0.96,0.384 v 37.248002 l 1.152,6.336 v 31.872 q 0.192,1.92 0.384,6.528 0.192,4.416 0.192,9.408 0.192,4.992 0.384,9.6 0.192,4.416 0.384,6.144 0,0.192 0.192,1.344 0.192,1.152 0.192,2.688 0.192,1.344 0.384,2.688 0.192,1.152 0.192,1.344 v 2.688 2.496 q 0,0.384 -0.576,1.728 -0.384,1.152 -0.384,1.536 -0.192,0.384 -0.384,2.112 -0.192,1.728 -0.384,3.648 0,1.92 -0.192,3.456 -0.192,1.728 -0.384,1.92 0,0.768 -0.384,1.92 -0.192,1.152 -0.576,1.536 -0.192,0.192 -0.576,0.192 -0.384,0.192 -1.152,0.192 v -10.752 q 0,0.576 -0.192,2.112 0,1.728 -0.192,3.456 -0.192,1.92 -0.384,3.456 -0.192,1.728 -0.384,2.304 0,0.576 -0.576,1.728 -0.384,1.152 -0.768,1.152 0,0.192 -0.192,0.384 v 0.192 h -0.192 -0.384 q -0.192,0 -0.192,-0.576 0,-0.384 -0.384,-2.496 -0.384,-2.112 -0.384,-2.688 -0.384,-0.768 -0.768,-3.072 -0.384,-2.304 -0.384,-3.072 h -2.304 q -0.384,0 -1.152,-0.384 -0.576,-0.384 -0.576,-0.768 -0.384,0 -0.768,-1.344 -0.192,-1.152 -0.384,-1.728 -0.384,-0.768 -0.768,-2.88 -0.192,-1.92 -0.192,-2.304 -0.192,-0.768 -0.384,-3.072 -0.192,-2.304 -0.384,-4.992 0,-2.688 -0.192,-4.992 -0.192,-2.496 -0.384,-3.456 0,-1.344 -0.192,-6.528 -0.192,-5.184 -0.384,-11.136 0,-5.952 -0.192,-11.136 -0.192,-5.184 -0.192,-6.528 0,-0.576 -0.192,-2.112 0,-1.536 -0.192,-3.072 -0.192,-1.536 -0.384,-3.072 0,-1.536 0,-2.112 h -2.688 -2.496 q -0.96,0 -3.456,0.384 -2.304,0.384 -2.88,0.384 0,0.384 -0.576,0.768 -0.384,0.384 -0.384,0.768 -0.192,1.152 -0.384,4.032 -0.192,2.88 -0.384,6.336 0,3.264 -0.192,6.336 -0.192,2.88 -0.384,4.032 0,0.384 -0.192,2.112 -0.192,1.728 -0.384,4.032 0,2.112 -0.192,4.224 -0.192,1.92 -0.192,2.88 0,0.576 -0.192,2.112 0,1.536 -0.192,3.264 -0.192,1.728 -0.384,3.264 0,1.344 0,1.728 -0.192,0.576 -0.384,1.728 -0.192,0.96 -0.384,2.112 0,1.152 -0.192,2.304 -0.192,0.96 -0.192,1.344 0,-0.768 -0.576,-3.072 -0.384,-2.304 -0.384,-3.072 v -2.496 -2.688 q 0,-0.96 0.192,-4.224 0.192,-3.456 0.192,-7.296 0.192,-4.032 0.384,-7.296 0.192,-3.264 0.192,-4.224 v -17.472 h -1.536 q 0,0.384 0,1.344 0.192,0.96 0.192,2.112 0.192,1.152 0.192,2.304 0.192,0.96 0.192,1.344 -0.384,0.768 -0.768,2.688 -0.192,1.92 -0.576,2.496 h -0.384 -0.576 q -0.192,-0.192 -0.768,-0.96 -0.384,-0.768 -0.384,-0.96 0,-0.576 0,-1.92 0.192,-1.344 0.192,-2.688 0,-1.536 0,-2.688 0.192,-1.344 0.192,-1.92 -0.384,0 -2.304,-0.192 -1.728,-0.192 -2.112,-0.192 -0.576,0 -2.112,0.576 -1.536,0.384 -2.112,0.576 v 3.264 2.88 q 0.192,0.576 0.384,2.88 0.384,2.112 0.768,4.992 0.384,2.88 0.576,5.76 0.384,2.688 0.576,4.224 0,0.768 0.192,2.88 0.384,1.92 0.768,4.224 0.384,2.304 0.576,4.608 0.384,2.112 0.384,2.88 0,0.384 0.192,2.112 0.384,1.536 0.768,3.456 0.384,1.728 0.768,3.456 0.384,1.728 0.576,2.304 v 1.92 2.304 q -0.192,0.192 -0.384,0.576 -0.192,0.384 -0.576,0.768 -0.192,0.192 -0.384,0.384 -0.384,0.768 -1.152,1.92 -0.576,1.152 -0.96,1.536 -0.192,0.384 -1.152,1.152 -0.768,0.96 -1.728,1.92 -0.96,0.96 -1.92,1.728 -0.96,0.96 -1.152,1.344 v 46.656 l -0.96,1.92 q -0.384,-0.576 -0.96,-2.496 -0.384,-1.92 -0.384,-2.688 0,-0.576 -0.192,-2.112 -0.192,-1.536 -0.384,-3.264 0,-1.536 -0.192,-3.072 -0.192,-1.344 -0.192,-1.92 0,-1.92 -0.192,-6.72 -0.192,-4.608 -0.384,-9.792 0,-5.184 -0.192,-9.984 -0.192,-4.608 -0.384,-6.528 z m 97.72807,-7.296 h -1.536 v 14.784 h -1.728 l -1.92,-13.632 q -1.152,0 -3.84,-0.384 -2.688,-0.384 -3.648,-0.768 -0.384,0 -1.536,-0.192 -1.152,-0.384 -1.344,-0.576 -0.768,-0.384 -2.496,-1.152 -1.536,-0.768 -1.92,-1.152 l -1.344,-1.344 q -0.576,-0.576 -1.152,-0.96 -0.384,-0.384 -0.576,-0.576 0,-0.384 -0.96,-1.536 -0.768,-1.344 -1.152,-1.728 -0.384,-0.576 -1.152,-2.112 -0.576,-1.728 -0.576,-2.112 -0.384,-0.384 -0.96,-1.92 -0.384,-1.536 -0.384,-1.92 v -6.528 -5.184 q 0,-0.768 0.96,-2.688 0.96,-1.92 1.344,-2.496 -0.576,0 -2.112,-0.192 -1.536,-0.192 -3.072,-0.192 -1.536,-0.192 -3.072,-0.384 -1.536,-0.192 -2.112,-0.192 -0.384,0 -1.152,-0.384 -0.768,-0.384 -1.152,-0.768 -0.384,0 -1.152,-0.768 -0.576,-0.96 -0.96,-0.96 0,-0.192 -0.384,-1.344 -0.192,-0.576 -0.384,-0.96 v -2.496 -2.688 q 0,-0.192 0.384,-1.92 0.384,-1.728 0.384,-2.304 0.384,-0.768 0.96,-2.496 0.768,-1.92 1.344,-3.84 0.768,-2.112 1.344,-3.84 0.576,-1.728 0.768,-2.304 0.192,-0.96 1.92,-3.648 1.728,-2.88 2.304,-4.608 0.384,-0.768 1.344,-3.072 0.96,-2.304 2.112,-4.992 1.152,-2.688 2.112,-4.992 0.96,-2.496 1.344,-3.456 0.96,-2.304 2.496,-4.416 1.728,-2.304 3.456,-4.416 1.728,-2.304 3.264,-4.8 1.536,-2.496 2.304,-5.376 0.192,-0.192 0.768,-1.152 0.576,-0.960002 1.152,-1.920002 0.768,-1.152 1.344,-2.112 0.768,-1.152 1.152,-1.728 0,-0.192 0.576,-1.344 0.768,-1.344 1.152,-2.112 0.576,-0.576 1.728,-1.92 1.344,-1.536 1.728,-1.728 0.384,-0.768 1.92,-2.304 1.728,-1.728 2.112,-2.112 0.192,0 1.344,-0.96 1.152,-0.96 1.536,-1.344 0.192,0 1.344,-0.384 0.384,-0.192 0.96,-0.384 h 3.648 3.456 l 2.304,2.304 q 0.384,0.192 0.96,1.344 0.768,1.152 1.152,1.536 0,0.384 0.576,2.304 0.768,1.92 1.152,2.88 0.384,0.576 1.344,3.072 0.96,2.304 0.96,2.88 0,0.384 0.192,1.536 0.384,0.96 0.768,2.112002 0.384,1.152 0.576,2.304 0.384,0.96 0.384,1.536 0,0.384 0.384,2.112 0.576,1.536 0.576,2.304 0.192,1.152 0.768,3.264 0.576,1.92 1.152,4.032 0.576,2.112 0.96,3.84 0.384,1.728 0.576,2.112 0,0.96 0.768,2.496 0.96,1.344 0.96,2.688 0.384,1.344 0.768,3.84 0.576,2.304 0.576,2.688 v 4.608 2.304 q 0,0.384 -0.576,1.152 -0.384,0.576 -0.768,0.96 -0.384,0.576 -1.536,2.304 -1.152,1.728 -1.344,1.92 -0.384,0.384 -2.112,1.728 -1.536,1.152 -1.92,1.536 -0.384,0 -1.728,0.384 -1.152,0.384 -1.728,0.384 h -0.384 -0.576 q -0.192,0 -0.96,-0.384 -0.768,-0.384 -0.96,-0.384 -0.384,-0.384 -0.576,-0.96 -0.384,-1.152 -0.384,-1.344 -0.384,-0.384 -0.768,-1.536 -0.192,-1.152 -0.576,-1.344 0,-0.768 -0.576,-2.304 -0.384,-1.728 -0.384,-2.112 0,-0.576 -0.192,-1.92 0,-1.536 -0.192,-3.264 -0.192,-1.728 -0.384,-3.264 0,-1.536 0,-1.92 -0.384,-1.152 -0.576,-2.112 -0.192,-0.96 -0.384,-1.728 -0.192,-0.96 -0.192,-1.344 -0.384,-1.92 -1.728,-4.608 -1.152,-2.688 -1.536,-3.648 -0.192,-0.768 -0.96,-3.456 -0.768,-2.88 -0.96,-3.84 -0.384,-0.96 -0.96,-2.496 -0.384,-1.536 -0.96,-3.072 -0.768,-1.728 -1.344,-3.648002 h -1.152 q 0,0.576002 0,2.304002 0.192,1.728 0.192,3.84 0,1.92 0,3.648 0.192,1.728 0.192,2.304 0,0.768 -0.576,3.072 -0.384,2.112 -0.576,2.688 0,-0.384 -0.576,-1.728 -0.384,-1.344 -0.384,-1.728 -0.192,-0.576 -0.384,-1.728 -0.192,-1.344 -0.384,-2.688 0,-1.536 -0.192,-2.88 -0.192,-1.344 -0.384,-1.92 l -1.728,4.032 v 19.008 l -1.152,1.728 -1.536,-1.728 v -15.552 q -0.384,0.384 -1.152,1.344 -0.576,0.96 -1.344,2.112 -0.768,0.96 -1.344,1.92 -0.576,0.96 -0.768,1.536 -0.192,0.384 -1.152,2.496 -0.96,1.92 -2.112,4.608 -1.152,2.688 -2.496,5.376 -1.152,2.688 -1.728,4.224 -0.192,0.768 -0.96,1.728 -0.768,0.768 -0.96,1.536 -0.384,1.152 -1.152,3.072 -0.576,1.92 -1.344,3.84 -0.576,1.92 -1.152,3.648 -0.576,1.536 -0.768,1.728 0,0.384 0.384,1.92 0.576,1.536 0.576,2.112 0.576,0 2.304,0.192 1.92,0 3.84,0 2.112,0 3.84,0 1.92,0 2.88,-0.192 0.192,0 1.152,0 0.96,-0.192 2.112,-0.384 1.344,-0.192 2.496,-0.192 1.152,-0.192 1.536,-0.192 0.768,-0.192 2.112,-0.384 1.344,-0.384 2.688,-0.576 1.344,-0.192 2.304,-0.384 0.96,-0.192 1.152,-0.192 h 9.024 7.488 q 0.576,0.384 2.88,1.152 2.496,0.768 3.456,1.152 0.384,0.384 1.92,2.112 1.728,1.536 2.112,2.304 0.192,0.576 0.96,2.112 0.96,1.536 0.96,2.112 v 5.184 6.144 q 0,0.192 -0.384,1.344 -0.384,1.152 -0.384,1.536 -0.192,0.384 -0.576,1.344 -0.384,0.768 -0.96,1.728 -0.576,0.96 -1.152,1.92 -0.576,0.96 -0.768,1.536 -0.192,0.576 -0.576,1.152 -0.384,0.384 -0.768,0.96 -0.192,0.384 -0.384,0.768 -0.768,0.768 -1.92,2.304 -1.152,1.344 -1.536,1.728 0,0.384 -0.768,1.152 -0.576,0.576 -0.96,0.96 -0.384,0.384 -1.344,1.152 -0.96,0.768 -2.112,1.728 -0.96,0.768 -1.92,1.536 -0.768,0.576 -0.96,0.768 -0.384,0.384 -1.728,1.152 -1.152,0.768 -1.536,1.152 -0.384,0 -1.344,0.768 -0.96,0.576 -2.304,1.344 -1.152,0.576 -2.304,1.344 -0.96,0.576 -1.152,0.768 -0.192,0 -0.768,0.576 -0.192,0.192 -0.192,0.384 v 1.152 1.728 q 0,0.576 0.192,2.688 0.192,2.304 0.192,4.8 0.192,2.496 0.384,4.608 0.192,2.112 0.192,2.496 v 6.912 6.72 q 0,0.384 -0.192,1.344 -0.192,1.152 -0.384,2.304 0,1.152 -0.192,2.112 -0.192,1.152 -0.192,1.344 -0.384,-0.576 -0.768,-2.496 -0.192,-1.92 -0.576,-2.688 -0.192,-1.536 -0.576,-5.568 -0.192,-3.84 -0.576,-8.448 -0.192,-4.416 -0.384,-8.448 -0.192,-3.84 -0.192,-5.376 z m -11.904,-31.104 q 0,0.384 0,1.344 0,0.768 0.192,1.728 0.192,0.96 0.384,2.112 0,0.768 0.576,2.304 0.768,1.344 1.536,2.112 0,0.192 1.536,1.92 1.728,1.728 2.496,2.304 0.192,0 0.96,0.576 0.768,0.384 0.96,0.384 h 5.76 4.608 q 0.192,0 0.96,-0.384 0.96,-0.384 1.92,-0.768 0.96,-0.576 1.92,-1.152 0.96,-0.576 1.344,-0.96 0.384,-0.192 1.152,-0.96 0.768,-0.768 1.152,-0.96 0.192,-0.768 0.96,-2.112 0.96,-1.536 0.96,-2.304 v -2.496 -2.688 q 0,-0.384 -0.96,-1.92 -0.768,-1.728 -0.96,-2.112 -0.384,-0.192 -1.728,-0.96 -1.152,-0.96 -1.536,-0.96 -0.192,-0.384 -2.304,-0.576 -2.112,-0.384 -2.88,-0.384 h -2.496 -2.688 q -0.96,0 -2.688,0.192 -1.728,0 -3.648,0.192 -1.728,0 -3.264,0.192 -1.344,0.192 -1.536,0.384 -0.384,0 -1.152,0.384 -0.576,0.192 -0.96,0.384 0,0.768 -0.384,2.688 -0.192,1.92 -0.192,2.496 z m 96,32.64 -1.92,1.344 q 0,0.768 -0.576,3.072 -0.384,2.304 -0.384,3.072 0,0.192 -0.576,0.96 -0.384,0.768 -0.768,0.96 h -0.384 -0.576 q 0,-0.384 -0.192,-1.536 0,-0.96 -0.192,-2.112 -0.192,-1.152 -0.384,-2.112 0,-0.96 0,-1.344 -0.576,-0.96 -1.152,-0.96 -0.192,-0.192 -1.152,-0.192 -0.96,0 -2.112,0 -0.96,0 -1.92,0 -0.768,0.192 -0.96,0.192 -0.576,-0.384 -3.072,-0.768 -2.496,-0.192 -3.456,-0.576 -0.384,0 -1.536,-0.384 -1.152,-0.576 -1.344,-0.576 -0.384,0 -1.728,-0.576 -1.152,-0.576 -2.496,-1.344 -1.344,-0.768 -2.688,-1.344 -1.152,-0.768 -1.536,-0.96 h -0.192 -0.96 q -0.384,0.384 -2.496,1.344 -1.92,0.96 -2.688,0.96 h -0.576 -0.192 q -0.384,-0.384 -1.344,-1.152 -0.96,-0.768 -0.96,-1.152 v -1.152 -1.728 q 0,-0.192 0.192,-0.96 0.192,-0.96 0.384,-1.728 0.384,-0.96 0.576,-1.728 0.192,-0.768 0.192,-0.768 v -9.6 -9.216 q -1.152,-0.384 -2.304,-1.152 -0.384,0 -1.344,0 -0.96,-0.192 -2.304,-0.384 -1.152,-0.192 -2.304,-0.192 -0.96,-0.192 -1.152,-0.192 -0.384,0 -1.152,-0.96 -0.768,-0.96 -1.152,-1.344 v -0.96 -1.152 q 0.384,-0.576 1.152,-2.112 0.768,-1.536 1.152,-1.92 0.192,-0.384 1.152,-1.344 1.152,-1.152 2.304,-2.304 1.152,-1.152 2.112,-2.112 1.152,-0.96 1.536,-1.344 v -1.536 q -1.152,-5.952 -2.304,-11.52 -0.96,-4.8 -2.112,-9.792 -1.152,-4.992 -1.92,-8.256 0,-0.768 -0.384,-2.112 -0.384,-1.536 -0.384,-2.304 0,-0.384 -0.576,-1.536 -0.384,-1.152 -0.384,-1.536 -0.192,-0.384 -0.768,-1.344 -0.384,-0.96 -0.96,-1.92 -0.576,-0.96 -1.152,-1.728 -0.384,-0.96 -0.576,-1.344 0,-0.384 -0.384,-1.536 -0.384,-1.344 -0.384,-1.728 v -2.88 -3.072 q 0,-0.384 0.768,-1.92 0.96,-1.728 1.152,-2.496 0.384,-0.192 1.92,-1.728002 1.536,-1.728 2.112,-1.92 0.768,-0.768 1.92,-1.536 1.152,-0.768 1.536,-0.768 h 2.112 3.072 l 0.384,0.384 q 0,0.192 0.384,0.192 0.192,0 0.192,0.192 0,0.384 0.384,1.152 0.384,0.768 0.384,1.152 0.192,0.384 0.576,1.728 0.576,1.152002 1.152,2.688002 0.576,1.344 0.96,2.496 0.576,1.152 0.768,1.152 0,0.384 1.536,2.112 1.536,1.536 2.304,2.304 0.576,0.384 1.728,1.152 1.344,0.768 2.688,1.92 1.536,0.96 2.88,1.92 1.536,0.768 2.112,0.96 0.384,0.384 1.536,0.96 1.152,0.576 2.496,1.344 1.344,0.576 2.496,1.152 1.344,0.576 1.92,0.96 0.96,0.384 4.032,1.536 3.072,1.152 4.032,1.536 0.576,0.384 3.456,1.152 2.88,0.576 4.032,0.96 0.576,0.192 1.92,0.576 1.344,0.192 2.496,0.576 1.344,0.384 2.304,0.768 1.152,0.192 1.344,0.384 0.96,0 3.072,0.576 2.304,0.384 4.8,0.96 2.496,0.384 4.608,0.768 2.304,0.384 3.072,0.576 0.576,0 0.96,0.384 l 0.384,0.384 v 2.304 2.112 q 0,0.384 -0.576,1.152 -0.384,0.768 -0.768,1.152 -0.384,0.384 -1.344,1.344 -0.768,0.96 -1.728,1.92 -0.96,0.96 -1.92,1.728 -0.768,0.768 -1.152,0.96 0,0.192 -0.768,0.576 -0.768,0.384 -1.728,0.96 -0.96,0.384 -1.92,0.96 -0.96,0.384 -1.536,0.384 -0.384,0.192 -2.112,0.96 -1.536,0.576 -3.264,1.344 -1.728,0.768 -3.264,1.344 -1.536,0.576 -1.728,0.768 -0.96,0.384 -3.456,1.536 -2.304,1.152 -2.88,1.536 h 1.92 2.304 q 0.384,0 1.536,0 1.152,-0.192 2.496,-0.384 1.344,-0.192 2.496,-0.192 1.152,-0.192 1.536,-0.192 0.96,-0.192 3.264,-0.384 2.304,-0.192 4.8,-0.384 2.496,-0.192 4.608,-0.384 2.112,-0.192 2.88,-0.384 h 4.032 3.456 q 0.384,0.192 1.728,0.384 1.344,0.192 2.88,0.384 1.536,0.192 2.88,0.384 1.536,0.192 2.112,0.384 l 1.152,0.384 q 1.152,0.384 1.728,0.384 1.152,0.768 2.304,1.152 0.192,0.384 1.344,1.728 1.152,1.152 1.536,1.536 0.192,0.576 0.384,0.96 0,0.192 0,0.384 0.192,0 0.192,0.192 0,0.192 0.192,0.384 0.384,0.384 0.768,2.112 0.384,1.536 0.768,1.92 v 1.728 1.152 q -0.384,0.768 -0.768,2.496 -0.384,1.536 -0.768,1.92 -0.192,0.576 -1.344,3.072 -1.152,2.496 -1.536,3.456 -0.384,0.384 -1.152,1.536 -0.768,1.152 -1.152,1.344 -0.384,0.576 -1.92,2.112 -1.344,1.344 -3.072,3.072 -1.728,1.536 -3.264,3.072 -1.536,1.536 -2.112,2.112 -0.192,0.384 -1.92,1.728 -1.536,1.152 -1.728,1.536 -0.768,0.192 -3.072,1.344 -2.112,1.152 -2.688,1.536 -0.384,0.384 -1.536,0.96 -1.152,0.576 -2.496,1.152 -1.152,0.576 -2.496,1.344 -1.152,0.576 -1.536,0.768 -0.384,0.384 -2.496,1.152 -2.112,0.768 -2.688,1.152 -0.576,0.192 -1.92,0.576 -1.344,0.384 -2.88,0.96 -1.344,0.384 -2.688,0.96 -1.152,0.384 -1.728,0.384 -0.384,1.152 -0.768,4.224 -0.384,3.072 -0.384,4.224 0,0.96 -0.384,4.8 -0.192,4.032 -0.576,8.64 -0.384,4.608 -0.768,8.448 -0.384,4.032 -0.576,5.184 0,0.576 -0.192,1.728 -0.192,1.344 -0.384,2.688 0,1.344 -0.192,2.496 -0.192,1.152 -0.192,1.344 0,0.384 -0.384,1.536 -0.384,1.152 -0.384,1.344 0,-0.576 -0.192,-2.496 0,-1.728 0,-3.648 0,-1.92 -0.192,-3.84 0,-1.728 0,-2.304 0,-1.152 0,-3.264 0.192,-1.92 0.192,-4.032 0,-1.92 0,-3.456 0.192,-1.536 0.192,-1.92 0,-0.384 0,-2.688 0.192,-2.304 0.384,-4.992 0.192,-2.496 0.192,-4.992 0.192,-2.304 0.192,-2.88 v -2.688 z m 2.304,-38.4 q 0,0.768 -0.576,2.304 -0.384,1.344 -0.768,2.112 0,0.192 -0.576,0.96 -0.384,0.768 -0.384,0.96 -0.192,0.576 -0.96,0.192 l -0.768,-0.384 v -6.144 h -1.152 q -0.576,0.384 -3.072,0.768 -2.496,0.192 -3.456,0.384 -0.768,0.192 -2.496,0.576 -1.536,0.192 -3.264,0.576 -1.536,0.384 -3.072,0.768 -1.344,0.192 -1.536,0.384 -0.384,0 -1.152,0.384 -0.576,0.192 -0.576,0.576 v 10.368 q 0.576,0.576 1.344,1.152 1.536,1.152 2.688,1.728 0.576,0.384 1.728,1.152 1.152,0.768 1.152,1.152 0.576,0.192 2.304,0.96 1.728,0.768 1.92,0.96 0.384,0 0.768,0.192 0.576,0.192 1.152,0.384 0.768,0.192 1.344,0.384 h 5.376 6.144 q 1.152,-0.192 2.112,-0.384 0.96,-0.192 1.728,-0.384 0.96,-0.192 1.344,-0.192 0.576,-0.192 2.112,-0.384 1.536,-0.384 1.92,-0.768 1.344,-0.384 3.648,-0.96 2.304,-0.768 2.688,-0.768 0.576,-0.192 2.112,-0.96 1.536,-0.96 3.072,-1.728 1.536,-0.96 3.072,-1.536 1.536,-0.768 2.112,-0.96 0,-0.384 1.536,-1.536 1.728,-1.152 2.496,-1.92 0.192,0 0.384,-0.384 0.384,-0.384 0.768,-0.384 0,-0.384 0.384,-1.152 0.384,-0.768 0.384,-1.152 v -2.112 -1.728 q 0,-0.384 -1.152,-1.728 -0.96,-1.344 -1.728,-1.728 -0.384,0 -1.536,-0.384 -1.152,-0.384 -1.536,-0.384 h -22.848 q 0,0.96 -0.192,3.264 0,2.304 -0.192,4.992 -0.192,2.496 -0.576,4.992 -0.192,2.304 -0.384,3.072 0,0.768 -0.576,2.496 -0.384,1.536 -0.384,1.92 0,-0.384 -0.192,-1.344 0,-1.152 -0.192,-2.304 -0.192,-1.152 -0.384,-2.112 0,-1.152 0,-1.728 -0.192,-0.576 -0.384,-2.304 -0.192,-1.728 -0.384,-3.648 -0.192,-2.112 -0.384,-3.84 0,-1.92 0,-2.688 z m -6.528,-15.552 q -0.768,0 -0.768,1.152 0,0.96 0.768,0.96 0.96,0 0.96,-0.96 0,-1.152 -0.96,-1.152 z m -20.736,-5.184 q 0.384,0.384 0.576,0.768 0.384,0.192 0.768,0.384 h 0.384 0.576 q 0.576,-0.192 1.728,-0.384 1.152,-0.384 1.152,-0.768 0.768,-0.192 2.688,-0.96 1.92,-0.96 3.84,-1.92 2.112,-1.152 3.84,-1.92 1.728,-0.768 2.304,-1.152 0.192,0 0.384,-0.576 0.384,-0.576 0.768,-0.96 l -19.008,-5.952 h -2.112 v 3.072 q 0.192,0.576 0.384,2.112 0.384,1.536 0.576,3.264 0.384,1.536 0.576,3.072 0.384,1.344 0.576,1.92 z"
       id="text4"
       aria-label="HSB" />
    <path
       style="font-size:192px;font-family:'a dripping marker';-inkscape-font-specification:'a dripping marker';text-align:center;text-anchor:middle;fill:#66ff00;stroke-width:15"
       d="m 158.84787,389.50265 h -2.304 q -0.192,0 -1.344,0.192 -0.96,0 -2.304,0.192 -1.344,0.192 -2.88,0.576 -1.344,0.192 -2.112,0.384 -0.384,0 -1.536,0.192 -0.96,0.192 -2.112,0.384 -1.152,0 -2.112,0.192 -0.96,0.192 -1.152,0.192 -1.536,0.384 -4.224,0.96 -2.688,0.384 -5.568,0.768 -2.88,0.384 -5.184,0.768 -2.304,0.384 -2.688,0.384 -0.384,0.192 -1.536,0.576 -1.344,0.384 -2.688,0.768 -1.536,0.384 -2.688,0.576 -1.344,0.384 -1.728,0.384 h -2.496 -2.688 q 0,-0.384 -0.384,-1.152 -0.384,-0.768 -0.384,-1.152 v -0.384 -0.576 q 0,-0.192 0.96,-1.92 0.768,-1.728 0.96,-2.304 0.384,-0.384 1.152,-1.536 0.768,-1.152 1.152,-1.344 0,-0.384 1.536,-1.536 1.536,-1.344 2.304,-1.728 0.192,0 0.96,-0.384 0.768,-0.576 1.728,-1.152 0.768,-0.576 1.536,-0.96 0.768,-0.384 0.96,-0.384 0.192,-0.192 0.96,-0.768 0.768,-0.768 1.728,-1.536 1.152,-0.96 2.112,-1.728 1.152,-0.768 1.728,-1.152 0,-0.384 0.384,-0.576 0.576,-0.384 0.576,-0.768 0.576,-0.768 1.92,-2.112 1.344,-1.536 2.496,-2.88 1.344,-1.536 2.304,-2.688 1.152,-1.152 1.344,-1.344 0.576,-0.576 2.112,-2.496 1.536,-1.92 2.112,-2.688 0.384,-0.576 1.152,-1.92 0.96,-1.344 1.92,-2.688 0.96,-1.344 1.728,-2.496 0.96,-1.152 1.344,-1.536 0.768,-0.96 2.304,-3.072 1.728,-2.112 3.264,-4.416 1.728,-2.304 3.072,-4.224 1.344,-2.112 1.728,-2.688 0.576,-0.96 2.304,-3.456 1.728,-2.688 3.648,-5.568 2.112,-3.072 3.84,-5.76 1.92,-2.88 2.88,-4.224 0.192,-0.576 1.344,-2.496 1.152,-1.92 1.536,-2.688 0.192,-0.384 0.768,-1.536 0.768,-1.152 1.536,-2.496 0.768,-1.344 1.344,-2.496 0.576,-1.152 0.576,-1.536 0.384,-0.384 0.576,-1.536 0.384,-1.152 0.384,-1.536 0,-0.384 0.192,-0.96 0.384,-0.768 0.384,-1.152 0,-0.384 -0.384,-1.152 -0.192,-0.768 -0.192,-1.152 0,-0.192 -0.384,-1.344 -0.192,-1.152 -0.576,-1.536 -0.192,-0.384 -1.344,-1.536 -1.152,-1.152 -1.536,-1.536 -0.384,-0.384 -1.152,-0.576 -0.768,-0.384 -1.152,-0.384 -0.576,-0.192 -2.496,-0.576 -1.92,-0.576 -2.688,-0.576 -0.192,0 -2.112,0.192 -1.728,0.192 -2.496,0.192 0,0.384 0,1.344 0.192,0.768 0.384,1.92 0.192,1.152 0.192,2.304 0,0.96 -0.192,1.344 0,1.344 -0.96,2.304 0,-0.384 -0.384,-0.768 -0.384,-0.384 -0.384,-0.768 -0.192,-0.192 -0.384,-1.152 -0.192,-1.152 -0.384,-2.304 -0.192,-1.152 -0.384,-2.112 0,-0.96 0,-1.344 -0.384,0 -1.344,0 -0.96,-0.192 -1.344,-0.192 -0.384,0 -0.768,0.192 -0.384,0 -0.768,0 h -0.96 q -0.96,0.192 -1.728,0.384 -1.92,0.384 -2.304,0.576 -0.768,0 -1.92,0.384 -1.152,0.384 -1.536,0.384 -0.384,0.384 -1.152,0.768 -0.576,0.384 -0.576,0.768 -0.384,0 -0.768,0.384 l -0.384,0.384 q 0,0.384 0.384,2.112 0.384,1.536 0.768,2.304 0,0.192 0.576,1.92 0.768,1.536 1.152,1.728 0.192,0.384 0.768,1.344 0.768,0.96 1.344,2.112 0.768,0.96 1.344,1.92 0.768,0.96 0.768,1.344 0.192,0.384 0.576,1.344 0.576,0.768 0.96,1.728 0.576,0.96 0.96,1.92 0.576,0.768 0.768,0.96 v 1.152 0.96 q 0,0.576 -0.96,2.304 -0.96,1.728 -1.344,1.92 -0.192,0.384 -0.96,1.152 -0.576,0.768 -1.536,1.536 -0.768,0.768 -1.728,1.536 -0.768,0.768 -0.96,0.96 -0.384,0 -1.728,0.96 -1.344,0.768 -2.112,0.768 l -0.384,0.384 q -0.192,0.192 -0.96,0.192 l -0.96,-0.576 q -0.192,0 -1.152,-0.192 -0.768,-0.192 -0.768,-0.576 -0.384,-0.384 -1.152,-2.112 -0.768,-1.92 -1.152,-2.304 -0.192,0 -0.96,-1.152 -0.768,-1.152 -1.728,-2.496 -0.768,-1.536 -1.536,-2.688 -0.768,-1.344 -0.96,-1.728 0,-0.384 -0.96,-1.92 -0.768,-1.728 -1.152,-2.112 0,-0.576 -0.384,-1.728 -0.384,-1.344 -0.384,-1.728 v -4.224 -3.84 q 0,-0.576 0.576,-1.728 0.576,-1.152 1.344,-2.304 0.768,-1.344 1.344,-2.496 0.576,-1.152 0.96,-1.728 0.192,-0.384 0.96,-1.344 0.96,-0.96 2.112,-1.92 1.152,-1.152 2.304,-2.304 1.344,-1.152 1.92,-1.728 0,-0.384 1.152,-1.152 1.344,-0.768 1.92,-1.152 0.384,-0.192 1.728,-0.96 1.536,-0.768 3.264,-1.536 1.728,-0.768 3.264,-1.536 1.536,-0.768 2.112,-1.152 l 1.152,-0.384 q 1.152,-0.384 1.728,-0.384 0.384,0 1.92,-0.384 1.728,-0.576 2.496,-0.768 0.96,0 2.88,-0.384 1.92,-0.576 2.304,-0.576 h 7.488 6.912 q 0.192,0 1.344,0.576 1.152,0.384 1.536,0.384 0.576,0 1.536,0.576 0.96,0.384 1.92,0.96 0.96,0.576 1.728,1.152 0.96,0.576 1.344,0.768 l 0.96,0.768 q 0,0.384 0.192,0.96 0.384,0.384 0.768,0.768 0.384,0.576 0.96,1.152 l 0.96,1.92 q 0.384,0.768 0.576,1.344 v 4.608 4.8 q 0,0.384 -0.576,2.112 -0.576,1.536 -0.96,2.304 0,0.192 -0.96,2.304 -0.768,2.112 -0.96,2.88 -0.384,0.576 -1.728,3.072 -1.152,2.304 -1.536,2.88 -0.384,0.576 -1.152,2.112 -0.768,1.536 -1.92,3.264 -0.96,1.536 -1.92,3.072 -0.768,1.344 -0.96,1.92 -0.384,0.576 -1.92,2.688 -1.344,2.112 -3.072,4.608 -1.728,2.496 -3.264,4.8 -1.536,2.304 -2.112,3.456 -0.384,0.768 -1.536,2.496 -0.96,1.536 -2.112,3.264 -1.152,1.536 -2.304,3.072 -0.96,1.344 -1.344,1.536 -0.576,0.96 -2.88,3.84 -2.112,2.688 -4.608,5.952 -2.496,3.264 -4.8,6.336 -2.304,3.072 -3.264,4.608 -0.192,0.384 -0.96,1.152 -0.576,0.768 -1.344,1.728 -0.768,0.768 -1.344,1.536 -0.576,0.576 -0.576,0.768 -0.384,0.768 -1.728,2.496 -1.152,1.536 -1.536,1.92 h 2.304 2.112 q 0.576,0 2.496,-0.192 2.112,-0.384 4.608,-0.768 2.496,-0.384 4.608,-0.768 2.112,-0.384 2.688,-0.576 0.384,0 1.728,-0.192 1.344,-0.192 2.688,-0.192 1.536,-0.192 2.88,-0.384 1.536,-0.192 2.112,-0.192 l 0.96,-1.152 q -0.384,-0.576 -1.152,-1.92 -0.768,-1.536 -1.536,-3.072 -0.768,-1.728 -1.536,-3.264 -0.768,-1.536 -0.96,-2.112 0,-0.384 -0.576,-1.536 -0.384,-1.152 -0.384,-1.536 v -2.112 -1.728 q 0,-1.344 0.96,-2.304 0,-0.384 0.192,-0.768 0.384,-0.576 0.768,-0.96 0.384,-0.576 0.96,-1.152 0.384,-0.384 1.152,-1.344 0.768,-0.96 1.152,-0.96 0.384,-0.192 1.536,-0.96 1.152,-0.768 1.344,-0.96 0.96,-0.96 2.304,-0.96 l 0.96,-0.576 q 0,0.192 0.192,0.192 0.192,0 0.192,0.192 0,0 0.192,0 0.192,0.192 0.576,0.192 0.384,0 0.768,0.192 0.96,0.576 0.96,0.768 0.192,0.576 0.96,2.112 0.96,1.536 1.728,3.072 0.96,1.536 1.536,3.072 0.768,1.536 0.96,2.112 l 3.456,5.184 q 0.192,0.384 1.536,1.92 1.536,1.344 3.072,3.072 1.728,1.728 3.264,3.264 1.728,1.536 2.496,2.112 0.384,0.192 0.96,0.384 1.152,0.384 1.344,0.384 0,0.384 1.536,0.768 1.536,0.192 2.112,0.384 0.192,0 0.96,0.192 0.96,0.192 1.728,0.384 0.96,0 1.728,0.192 0.768,0.192 0.768,0.192 0.384,0 1.152,0.576 0.768,0.384 1.152,0.768 0.384,0 0.96,0.96 0.768,0.768 1.152,0.768 v 0.384 0.768 q -0.384,0.384 -0.768,1.728 -0.192,1.152 -0.384,1.536 0,0.192 -0.768,1.344 -0.768,1.152 -0.96,1.536 l -2.304,2.304 q -0.768,0.576 -2.496,1.728 -1.536,1.152 -1.92,1.152 -0.192,0.384 -1.344,0.768 -1.152,0.192 -1.536,0.576 h -2.304 -1.92 q -0.384,-0.192 -1.92,-0.576 -1.536,-0.384 -3.264,-0.768 -1.728,-0.384 -3.264,-0.576 -1.536,-0.384 -1.92,-0.384 h -7.488 -6.912 q -0.192,0 -0.768,0.576 l -0.384,0.384 v 6.528 q 0,0.384 -0.576,1.92 -0.384,1.536 -0.384,1.92 -0.384,0 -0.768,-0.576 -0.192,-0.384 -0.576,-0.384 0,-0.192 -0.576,-1.344 -0.384,-1.152 -0.384,-1.536 0,-0.576 -0.384,-3.264 -0.384,-2.688 -0.384,-3.264 h -2.112 q 0,1.536 -0.192,5.376 0,4.032 -0.192,8.256 -0.192,4.416 -0.576,8.256 -0.192,3.84 -0.384,5.376 0,0.96 -0.192,2.304 -0.192,1.344 -0.384,2.688 -0.192,1.536 -0.384,3.072 h -1.728 v -35.328 z m 79.48811,38.208 q 0,-0.576 0.192,-3.456 0.192,-2.88 0.192,-6.336 0.192,-3.264 0.384,-6.144 0.192,-2.88 0.192,-3.456 v -9.216 -5.376 l -0.96,-0.96 -1.344,0.96 q 0,0.96 -0.576,4.032 -0.384,3.072 -0.384,4.032 0,0.576 -0.384,1.728 -0.384,1.344 -0.768,1.728 h -0.576 -0.192 q 0,-0.768 -0.576,-2.88 -0.384,-1.92 -0.384,-2.688 -0.192,-0.192 -0.384,-1.344 -0.192,-0.96 -0.384,-2.112 0,-1.152 -0.192,-2.112 -0.192,-0.96 -0.384,-1.344 -0.384,-0.384 -1.92,-1.152 -1.536,-0.768 -1.92,-1.152 -0.576,-0.192 -1.92,-0.96 -1.152,-0.768 -1.536,-0.96 -0.576,-0.384 -0.96,-0.96 -0.768,-1.152 -0.768,-1.344 -0.384,-0.384 -1.536,-1.728 -1.152,-1.344 -1.92,-2.112 -0.384,-0.576 -1.152,-1.728 -0.576,-1.344 -0.576,-1.728 -0.384,-0.192 -0.96,-1.152 -0.384,-0.96 -0.96,-1.92 -0.576,-1.152 -0.96,-1.92 -0.384,-0.96 -0.576,-0.96 -0.192,-0.576 -0.768,-2.304 -0.576,-1.728 -1.344,-3.648 -0.576,-2.112 -1.152,-3.84 -0.576,-1.92 -0.768,-2.88 -0.192,-0.384 -0.576,-2.496 -0.192,-2.112 -0.576,-2.688 0,-0.576 -0.192,-1.92 0,-1.536 -0.192,-2.88 -0.192,-1.536 -0.384,-2.88 0,-1.344 0,-1.92 v -5.376 -5.76 q 0,-0.384 0,-1.728 0.192,-1.344 0.384,-2.88 0.192,-1.728 0.192,-3.264 0.192,-1.536 0.192,-2.496 0.384,-0.768 0.576,-3.072 0.384,-2.304 0.576,-3.072 0,-0.192 0.384,-1.92 0.576,-1.728 0.576,-2.304 0.192,-0.384 0.576,-1.344 0.384,-1.152 0.768,-2.304 0.384,-1.152 0.576,-2.112 0.384,-1.152 0.384,-1.536 v -0.768 -1.536 q -0.384,-0.576 -0.576,-1.344 -0.384,-1.152 -0.384,-1.536 v -0.576 -0.192 q 0,-0.384 0.384,-1.92 0.192,-0.768 0.576,-1.344 0.192,-0.576 0.96,-1.728 0.768,-1.344 0.96,-1.728 0.384,-0.192 1.344,-1.152 1.152,-1.152 2.304,-2.304 1.152,-1.152 2.112,-2.112 1.152,-1.152 1.728,-1.536 0.384,-0.384 1.92,-1.536 1.536,-1.344 1.92,-1.728 0.192,0 1.152,-0.384 0.96,-0.576 2.112,-0.96 1.152,-0.576 1.92,-0.96 0.96,-0.384 1.344,-0.576 0.384,0 1.92,-0.384 1.536,-0.384 1.92,-0.384 0.384,0 1.344,-0.192 0.96,-0.384 1.152,-0.384 0.576,0 1.728,0.384 0.576,0.192 0.96,0.192 0.576,0 2.112,0.384 1.536,0.384 2.112,0.384 0.384,0.384 1.92,1.152 1.728,0.576 2.496,0.96 0.384,0.384 1.536,1.152 1.152,0.768 1.536,1.152 0.384,0.384 1.344,1.536 1.152,0.96 2.304,2.112 1.152,0.96 2.112,1.92 1.152,0.96 1.536,1.344 0,0.192 1.536,2.688 1.728,2.304 2.496,3.648 0.192,0.384 0.384,0.96 0.192,0.96 0.768,1.344 0.384,0.576 0.96,2.496 0.768,1.92 0.768,2.688 0.192,0.384 0.576,1.344 0.384,0.96 0.768,1.92 0.384,0.96 0.576,1.728 0.384,0.768 0.384,0.96 0.192,0.96 0.576,2.88 0.576,1.92 0.576,2.304 v 10.368 10.368 q 0,0.384 -0.576,2.688 -0.384,2.304 -0.576,3.648 0,0.768 -0.576,2.688 -0.384,1.92 -0.384,2.496 -0.384,0.768 -0.768,2.304 -0.192,1.344 -0.576,1.728 -0.192,0.576 -0.576,2.112 -0.384,1.344 -0.96,3.072 -0.384,1.536 -0.96,2.88 -0.384,1.152 -0.384,1.536 -0.192,0.384 -0.768,1.536 -0.384,0.96 -0.96,2.112 -0.384,1.152 -0.96,2.304 -0.384,0.96 -0.576,1.152 -0.576,1.152 -1.152,2.112 -0.96,1.92 -1.728,3.072 -0.384,0.384 -1.344,1.728 -0.96,1.152 -0.96,1.536 -0.192,0.576 -1.92,2.496 -1.728,1.92 -2.304,2.688 0,0.192 -0.96,0.96 -0.768,0.768 -0.768,0.96 -0.384,0.192 -1.152,0.768 -0.768,0.576 -1.728,1.344 -0.768,0.576 -1.536,1.152 -0.576,0.576 -0.768,0.768 l -2.112,2.112 q -0.192,1.536 -0.384,4.992 -0.192,3.456 -0.384,7.104 0,3.84 -0.192,7.296 -0.192,3.456 -0.384,4.8 0,0.192 -0.192,1.152 0,0.96 -0.192,2.304 0,1.344 -0.192,2.688 -0.192,1.344 -0.384,2.112 0,0.384 -0.192,1.344 -0.192,0.96 -0.384,1.92 0,0.96 -0.192,1.728 0,0.96 0,1.152 -0.384,0.192 -0.768,0.96 -0.192,0.768 -0.384,0.96 0,-0.192 -0.576,-1.344 -0.384,-1.152 -0.384,-1.536 v -0.576 z m -13.824,-87.36 q 0,0.384 0.192,1.536 0.192,0.96 0.384,2.112 0.192,1.152 0.384,2.304 0.192,0.96 0.192,1.536 0,0.768 0.96,3.648 0.96,2.688 1.344,3.648 0,0.576 0.768,2.496 0.96,1.92 0.96,2.688 0.768,0.96 1.728,3.456 1.152,2.496 1.728,3.072 0,0.384 0.768,1.536 0.96,1.152 0.96,1.344 0.768,0.768 2.688,2.688 2.112,1.92 2.88,2.496 l 1.728,0.96 h 1.728 1.728 l 0.768,-1.152 q 0.384,-0.384 0.576,-0.768 0.192,-0.576 0.384,-0.96 0.384,-0.768 1.344,-2.112 0.96,-1.536 0.96,-2.304 0,-0.192 0.384,-1.344 0.576,-1.344 0.96,-2.88 0.576,-1.536 0.96,-2.88 0.384,-1.536 0.576,-2.112 0.384,-0.192 0.576,-1.92 0.384,-1.728 0.768,-2.304 0,-0.96 0.384,-2.88 0.576,-1.92 0.576,-2.304 0,-0.576 0.192,-1.92 0.192,-1.536 0.192,-2.88 0.192,-1.536 0.384,-2.88 0.192,-1.344 0.384,-1.92 v -3.648 -4.416 q -0.192,-0.576 -0.384,-1.728 -0.192,-1.344 -0.384,-2.688 0,-1.344 -0.192,-2.304 -0.192,-1.152 -0.192,-1.536 0,-0.384 -0.384,-1.536 -0.384,-1.344 -0.96,-2.688 -0.384,-1.536 -0.96,-2.88 -0.576,-1.536 -0.96,-2.496 -0.192,-0.192 -0.96,-1.728 -0.768,-1.728 -0.96,-1.92 0,-0.384 -0.96,-1.536 -0.96,-1.344 -1.344,-1.728 -0.384,-0.96 -1.536,-2.304 -1.152,-1.536 -1.344,-1.92 -0.384,-0.384 -1.728,-1.536 -1.152,-1.152 -1.536,-1.344 -0.192,-0.384 -1.344,-1.152 -1.152,-0.768 -1.536,-1.152 -0.384,0.384 -1.344,1.152 -0.768,0.576 -1.92,1.344 -1.152,0.768 -2.112,1.536 -0.96,0.768 -1.152,1.152 -0.576,0.384 -1.344,0.96 -1.536,1.152 -1.536,1.344 -0.384,0.192 -1.152,0.96 -0.768,0.768 -1.152,0.96 -0.384,0.96 -0.576,1.728 -0.384,1.92 -0.384,2.304 -0.192,1.344 -0.768,4.224 -0.384,2.688 -0.384,3.072 v 10.944 z m 19.392,-22.656 q 0.384,0 0.768,0.192 0.576,0 0.96,0 l 0.768,0.96 v 17.856 q 0,0.192 -0.768,1.92 -0.576,1.536 -1.152,1.728 -0.384,0.768 -2.304,2.688 -1.92,1.92 -2.88,2.496 -0.384,0.384 -1.152,0.96 -0.768,0.576 -1.152,0.576 h -2.112 -1.728 q -0.384,0 -0.96,-0.576 -0.384,-0.576 -0.384,-0.96 v -17.28 q 0,-0.192 0.384,-0.96 0.576,-0.768 0.96,-0.96 l 0.96,-1.92 q 0.384,-0.768 0.768,-1.344 0.768,-0.576 1.92,-1.728 1.152,-1.344 1.536,-1.728 0.384,-0.192 1.92,-0.96 1.536,-0.768 1.92,-0.768 0.384,0 0.768,0 0.576,-0.192 0.96,-0.192 z m 60.28807,110.016 q 0,-0.576 0.192,-3.456 0.192,-2.88 0.192,-6.336 0.192,-3.264 0.384,-6.144 0.192,-2.88 0.192,-3.456 v -9.216 -5.376 l -0.96,-0.96 -1.344,0.96 q 0,0.96 -0.576,4.032 -0.384,3.072 -0.384,4.032 0,0.576 -0.384,1.728 -0.384,1.344 -0.768,1.728 h -0.576 -0.192 q 0,-0.768 -0.576,-2.88 -0.384,-1.92 -0.384,-2.688 -0.192,-0.192 -0.384,-1.344 -0.192,-0.96 -0.384,-2.112 0,-1.152 -0.192,-2.112 -0.192,-0.96 -0.384,-1.344 -0.384,-0.384 -1.92,-1.152 -1.536,-0.768 -1.92,-1.152 -0.576,-0.192 -1.92,-0.96 -1.152,-0.768 -1.536,-0.96 -0.576,-0.384 -0.96,-0.96 -0.768,-1.152 -0.768,-1.344 -0.384,-0.384 -1.536,-1.728 -1.152,-1.344 -1.92,-2.112 -0.384,-0.576 -1.152,-1.728 -0.576,-1.344 -0.576,-1.728 -0.384,-0.192 -0.96,-1.152 -0.384,-0.96 -0.96,-1.92 -0.576,-1.152 -0.96,-1.92 -0.384,-0.96 -0.576,-0.96 -0.192,-0.576 -0.768,-2.304 -0.576,-1.728 -1.344,-3.648 -0.576,-2.112 -1.152,-3.84 -0.576,-1.92 -0.768,-2.88 -0.192,-0.384 -0.576,-2.496 -0.192,-2.112 -0.576,-2.688 0,-0.576 -0.192,-1.92 0,-1.536 -0.192,-2.88 -0.192,-1.536 -0.384,-2.88 0,-1.344 0,-1.92 v -5.376 -5.76 q 0,-0.384 0,-1.728 0.192,-1.344 0.384,-2.88 0.192,-1.728 0.192,-3.264 0.192,-1.536 0.192,-2.496 0.384,-0.768 0.576,-3.072 0.384,-2.304 0.576,-3.072 0,-0.192 0.384,-1.92 0.576,-1.728 0.576,-2.304 0.192,-0.384 0.576,-1.344 0.384,-1.152 0.768,-2.304 0.384,-1.152 0.576,-2.112 0.384,-1.152 0.384,-1.536 v -0.768 -1.536 q -0.384,-0.576 -0.576,-1.344 -0.384,-1.152 -0.384,-1.536 v -0.576 -0.192 q 0,-0.384 0.384,-1.92 0.192,-0.768 0.576,-1.344 0.192,-0.576 0.96,-1.728 0.768,-1.344 0.96,-1.728 0.384,-0.192 1.344,-1.152 1.152,-1.152 2.304,-2.304 1.152,-1.152 2.112,-2.112 1.152,-1.152 1.728,-1.536 0.384,-0.384 1.92,-1.536 1.536,-1.344 1.92,-1.728 0.192,0 1.152,-0.384 0.96,-0.576 2.112,-0.96 1.152,-0.576 1.92,-0.96 0.96,-0.384 1.344,-0.576 0.384,0 1.92,-0.384 1.536,-0.384 1.92,-0.384 0.384,0 1.344,-0.192 0.96,-0.384 1.152,-0.384 0.576,0 1.728,0.384 0.576,0.192 0.96,0.192 0.576,0 2.112,0.384 1.536,0.384 2.112,0.384 0.384,0.384 1.92,1.152 1.728,0.576 2.496,0.96 0.384,0.384 1.536,1.152 1.152,0.768 1.536,1.152 0.384,0.384 1.344,1.536 1.152,0.96 2.304,2.112 1.152,0.96 2.112,1.92 1.152,0.96 1.536,1.344 0,0.192 1.536,2.688 1.728,2.304 2.496,3.648 0.192,0.384 0.384,0.96 0.192,0.96 0.768,1.344 0.384,0.576 0.96,2.496 0.768,1.92 0.768,2.688 0.192,0.384 0.576,1.344 0.384,0.96 0.768,1.92 0.384,0.96 0.576,1.728 0.384,0.768 0.384,0.96 0.192,0.96 0.576,2.88 0.576,1.92 0.576,2.304 v 10.368 10.368 q 0,0.384 -0.576,2.688 -0.384,2.304 -0.576,3.648 0,0.768 -0.576,2.688 -0.384,1.92 -0.384,2.496 -0.384,0.768 -0.768,2.304 -0.192,1.344 -0.576,1.728 -0.192,0.576 -0.576,2.112 -0.384,1.344 -0.96,3.072 -0.384,1.536 -0.96,2.88 -0.384,1.152 -0.384,1.536 -0.192,0.384 -0.768,1.536 -0.384,0.96 -0.96,2.112 -0.384,1.152 -0.96,2.304 -0.384,0.96 -0.576,1.152 -0.576,1.152 -1.152,2.112 -0.96,1.92 -1.728,3.072 -0.384,0.384 -1.344,1.728 -0.96,1.152 -0.96,1.536 -0.192,0.576 -1.92,2.496 -1.728,1.92 -2.304,2.688 0,0.192 -0.96,0.96 -0.768,0.768 -0.768,0.96 -0.384,0.192 -1.152,0.768 -0.768,0.576 -1.728,1.344 -0.768,0.576 -1.536,1.152 -0.576,0.576 -0.768,0.768 l -2.112,2.112 q -0.192,1.536 -0.384,4.992 -0.192,3.456 -0.384,7.104 0,3.84 -0.192,7.296 -0.192,3.456 -0.384,4.8 0,0.192 -0.192,1.152 0,0.96 -0.192,2.304 0,1.344 -0.192,2.688 -0.192,1.344 -0.384,2.112 0,0.384 -0.192,1.344 -0.192,0.96 -0.384,1.92 0,0.96 -0.192,1.728 0,0.96 0,1.152 -0.384,0.192 -0.768,0.96 -0.192,0.768 -0.384,0.96 0,-0.192 -0.576,-1.344 -0.384,-1.152 -0.384,-1.536 v -0.576 z m -13.824,-87.36 q 0,0.384 0.192,1.536 0.192,0.96 0.384,2.112 0.192,1.152 0.384,2.304 0.192,0.96 0.192,1.536 0,0.768 0.96,3.648 0.96,2.688 1.344,3.648 0,0.576 0.768,2.496 0.96,1.92 0.96,2.688 0.768,0.96 1.728,3.456 1.152,2.496 1.728,3.072 0,0.384 0.768,1.536 0.96,1.152 0.96,1.344 0.768,0.768 2.688,2.688 2.112,1.92 2.88,2.496 l 1.728,0.96 h 1.728 1.728 l 0.768,-1.152 q 0.384,-0.384 0.576,-0.768 0.192,-0.576 0.384,-0.96 0.384,-0.768 1.344,-2.112 0.96,-1.536 0.96,-2.304 0,-0.192 0.384,-1.344 0.576,-1.344 0.96,-2.88 0.576,-1.536 0.96,-2.88 0.384,-1.536 0.576,-2.112 0.384,-0.192 0.576,-1.92 0.384,-1.728 0.768,-2.304 0,-0.96 0.384,-2.88 0.576,-1.92 0.576,-2.304 0,-0.576 0.192,-1.92 0.192,-1.536 0.192,-2.88 0.192,-1.536 0.384,-2.88 0.192,-1.344 0.384,-1.92 v -3.648 -4.416 q -0.192,-0.576 -0.384,-1.728 -0.192,-1.344 -0.384,-2.688 0,-1.344 -0.192,-2.304 -0.192,-1.152 -0.192,-1.536 0,-0.384 -0.384,-1.536 -0.384,-1.344 -0.96,-2.688 -0.384,-1.536 -0.96,-2.88 -0.576,-1.536 -0.96,-2.496 -0.192,-0.192 -0.96,-1.728 -0.768,-1.728 -0.96,-1.92 0,-0.384 -0.96,-1.536 -0.96,-1.344 -1.344,-1.728 -0.384,-0.96 -1.536,-2.304 -1.152,-1.536 -1.344,-1.92 -0.384,-0.384 -1.728,-1.536 -1.152,-1.152 -1.536,-1.344 -0.192,-0.384 -1.344,-1.152 -1.152,-0.768 -1.536,-1.152 -0.384,0.384 -1.344,1.152 -0.768,0.576 -1.92,1.344 -1.152,0.768 -2.112,1.536 -0.96,0.768 -1.152,1.152 -0.576,0.384 -1.344,0.96 -1.536,1.152 -1.536,1.344 -0.384,0.192 -1.152,0.96 -0.768,0.768 -1.152,0.96 -0.384,0.96 -0.576,1.728 -0.384,1.92 -0.384,2.304 -0.192,1.344 -0.768,4.224 -0.384,2.688 -0.384,3.072 v 10.944 z m 19.392,-22.656 q 0.384,0 0.768,0.192 0.576,0 0.96,0 l 0.768,0.96 v 17.856 q 0,0.192 -0.768,1.92 -0.576,1.536 -1.152,1.728 -0.384,0.768 -2.304,2.688 -1.92,1.92 -2.88,2.496 -0.384,0.384 -1.152,0.96 -0.768,0.576 -1.152,0.576 h -2.112 -1.728 q -0.384,0 -0.96,-0.576 -0.384,-0.576 -0.384,-0.96 v -17.28 q 0,-0.192 0.384,-0.96 0.576,-0.768 0.96,-0.96 l 0.96,-1.92 q 0.384,-0.768 0.768,-1.344 0.768,-0.576 1.92,-1.728 1.152,-1.344 1.536,-1.728 0.384,-0.192 1.92,-0.96 1.536,-0.768 1.92,-0.768 0.384,0 0.768,0 0.576,-0.192 0.96,-0.192 z m 60.28808,110.016 q 0,-0.576 0.192,-3.456 0.192,-2.88 0.192,-6.336 0.192,-3.264 0.384,-6.144 0.192,-2.88 0.192,-3.456 v -9.216 -5.376 l -0.96,-0.96 -1.344,0.96 q 0,0.96 -0.576,4.032 -0.384,3.072 -0.384,4.032 0,0.576 -0.384,1.728 -0.384,1.344 -0.768,1.728 h -0.576 -0.192 q 0,-0.768 -0.576,-2.88 -0.384,-1.92 -0.384,-2.688 -0.192,-0.192 -0.384,-1.344 -0.192,-0.96 -0.384,-2.112 0,-1.152 -0.192,-2.112 -0.192,-0.96 -0.384,-1.344 -0.384,-0.384 -1.92,-1.152 -1.536,-0.768 -1.92,-1.152 -0.576,-0.192 -1.92,-0.96 -1.152,-0.768 -1.536,-0.96 -0.576,-0.384 -0.96,-0.96 -0.768,-1.152 -0.768,-1.344 -0.384,-0.384 -1.536,-1.728 -1.152,-1.344 -1.92,-2.112 -0.384,-0.576 -1.152,-1.728 -0.576,-1.344 -0.576,-1.728 -0.384,-0.192 -0.96,-1.152 -0.384,-0.96 -0.96,-1.92 -0.576,-1.152 -0.96,-1.92 -0.384,-0.96 -0.576,-0.96 -0.192,-0.576 -0.768,-2.304 -0.576,-1.728 -1.344,-3.648 -0.576,-2.112 -1.152,-3.84 -0.576,-1.92 -0.768,-2.88 -0.192,-0.384 -0.576,-2.496 -0.192,-2.112 -0.576,-2.688 0,-0.576 -0.192,-1.92 0,-1.536 -0.192,-2.88 -0.192,-1.536 -0.384,-2.88 0,-1.344 0,-1.92 v -5.376 -5.76 q 0,-0.384 0,-1.728 0.192,-1.344 0.384,-2.88 0.192,-1.728 0.192,-3.264 0.192,-1.536 0.192,-2.496 0.384,-0.768 0.576,-3.072 0.384,-2.304 0.576,-3.072 0,-0.192 0.384,-1.92 0.576,-1.728 0.576,-2.304 0.192,-0.384 0.576,-1.344 0.384,-1.152 0.768,-2.304 0.384,-1.152 0.576,-2.112 0.384,-1.152 0.384,-1.536 v -0.768 -1.536 q -0.384,-0.576 -0.576,-1.344 -0.384,-1.152 -0.384,-1.536 v -0.576 -0.192 q 0,-0.384 0.384,-1.92 0.192,-0.768 0.576,-1.344 0.192,-0.576 0.96,-1.728 0.768,-1.344 0.96,-1.728 0.384,-0.192 1.344,-1.152 1.152,-1.152 2.304,-2.304 1.152,-1.152 2.112,-2.112 1.152,-1.152 1.728,-1.536 0.384,-0.384 1.92,-1.536 1.536,-1.344 1.92,-1.728 0.192,0 1.152,-0.384 0.96,-0.576 2.112,-0.96 1.152,-0.576 1.92,-0.96 0.96,-0.384 1.344,-0.576 0.384,0 1.92,-0.384 1.536,-0.384 1.92,-0.384 0.384,0 1.344,-0.192 0.96,-0.384 1.152,-0.384 0.576,0 1.728,0.384 0.576,0.192 0.96,0.192 0.576,0 2.112,0.384 1.536,0.384 2.112,0.384 0.384,0.384 1.92,1.152 1.728,0.576 2.496,0.96 0.384,0.384 1.536,1.152 1.152,0.768 1.536,1.152 0.384,0.384 1.344,1.536 1.152,0.96 2.304,2.112 1.152,0.96 2.112,1.92 1.152,0.96 1.536,1.344 0,0.192 1.536,2.688 1.728,2.304 2.496,3.648 0.192,0.384 0.384,0.96 0.192,0.96 0.768,1.344 0.384,0.576 0.96,2.496 0.768,1.92 0.768,2.688 0.192,0.384 0.576,1.344 0.384,0.96 0.768,1.92 0.384,0.96 0.576,1.728 0.384,0.768 0.384,0.96 0.192,0.96 0.576,2.88 0.576,1.92 0.576,2.304 v 10.368 10.368 q 0,0.384 -0.576,2.688 -0.384,2.304 -0.576,3.648 0,0.768 -0.576,2.688 -0.384,1.92 -0.384,2.496 -0.384,0.768 -0.768,2.304 -0.192,1.344 -0.576,1.728 -0.192,0.576 -0.576,2.112 -0.384,1.344 -0.96,3.072 -0.384,1.536 -0.96,2.88 -0.384,1.152 -0.384,1.536 -0.192,0.384 -0.768,1.536 -0.384,0.96 -0.96,2.112 -0.384,1.152 -0.96,2.304 -0.384,0.96 -0.576,1.152 -0.576,1.152 -1.152,2.112 -0.96,1.92 -1.728,3.072 -0.384,0.384 -1.344,1.728 -0.96,1.152 -0.96,1.536 -0.192,0.576 -1.92,2.496 -1.728,1.92 -2.304,2.688 0,0.192 -0.96,0.96 -0.768,0.768 -0.768,0.96 -0.384,0.192 -1.152,0.768 -0.768,0.576 -1.728,1.344 -0.768,0.576 -1.536,1.152 -0.576,0.576 -0.768,0.768 l -2.112,2.112 q -0.192,1.536 -0.384,4.992 -0.192,3.456 -0.384,7.104 0,3.84 -0.192,7.296 -0.192,3.456 -0.384,4.8 0,0.192 -0.192,1.152 0,0.96 -0.192,2.304 0,1.344 -0.192,2.688 -0.192,1.344 -0.384,2.112 0,0.384 -0.192,1.344 -0.192,0.96 -0.384,1.92 0,0.96 -0.192,1.728 0,0.96 0,1.152 -0.384,0.192 -0.768,0.96 -0.192,0.768 -0.384,0.96 0,-0.192 -0.576,-1.344 -0.384,-1.152 -0.384,-1.536 v -0.576 z m -13.824,-87.36 q 0,0.384 0.192,1.536 0.192,0.96 0.384,2.112 0.192,1.152 0.384,2.304 0.192,0.96 0.192,1.536 0,0.768 0.96,3.648 0.96,2.688 1.344,3.648 0,0.576 0.768,2.496 0.96,1.92 0.96,2.688 0.768,0.96 1.728,3.456 1.152,2.496 1.728,3.072 0,0.384 0.768,1.536 0.96,1.152 0.96,1.344 0.768,0.768 2.688,2.688 2.112,1.92 2.88,2.496 l 1.728,0.96 h 1.728 1.728 l 0.768,-1.152 q 0.384,-0.384 0.576,-0.768 0.192,-0.576 0.384,-0.96 0.384,-0.768 1.344,-2.112 0.96,-1.536 0.96,-2.304 0,-0.192 0.384,-1.344 0.576,-1.344 0.96,-2.88 0.576,-1.536 0.96,-2.88 0.384,-1.536 0.576,-2.112 0.384,-0.192 0.576,-1.92 0.384,-1.728 0.768,-2.304 0,-0.96 0.384,-2.88 0.576,-1.92 0.576,-2.304 0,-0.576 0.192,-1.92 0.192,-1.536 0.192,-2.88 0.192,-1.536 0.384,-2.88 0.192,-1.344 0.384,-1.92 v -3.648 -4.416 q -0.192,-0.576 -0.384,-1.728 -0.192,-1.344 -0.384,-2.688 0,-1.344 -0.192,-2.304 -0.192,-1.152 -0.192,-1.536 0,-0.384 -0.384,-1.536 -0.384,-1.344 -0.96,-2.688 -0.384,-1.536 -0.96,-2.88 -0.576,-1.536 -0.96,-2.496 -0.192,-0.192 -0.96,-1.728 -0.768,-1.728 -0.96,-1.92 0,-0.384 -0.96,-1.536 -0.96,-1.344 -1.344,-1.728 -0.384,-0.96 -1.536,-2.304 -1.152,-1.536 -1.344,-1.92 -0.384,-0.384 -1.728,-1.536 -1.152,-1.152 -1.536,-1.344 -0.192,-0.384 -1.344,-1.152 -1.152,-0.768 -1.536,-1.152 -0.384,0.384 -1.344,1.152 -0.768,0.576 -1.92,1.344 -1.152,0.768 -2.112,1.536 -0.96,0.768 -1.152,1.152 -0.576,0.384 -1.344,0.96 -1.536,1.152 -1.536,1.344 -0.384,0.192 -1.152,0.96 -0.768,0.768 -1.152,0.96 -0.384,0.96 -0.576,1.728 -0.384,1.92 -0.384,2.304 -0.192,1.344 -0.768,4.224 -0.384,2.688 -0.384,3.072 v 10.944 z m 19.392,-22.656 q 0.384,0 0.768,0.192 0.576,0 0.96,0 l 0.768,0.96 v 17.856 q 0,0.192 -0.768,1.92 -0.576,1.536 -1.152,1.728 -0.384,0.768 -2.304,2.688 -1.92,1.92 -2.88,2.496 -0.384,0.384 -1.152,0.96 -0.768,0.576 -1.152,0.576 h -2.112 -1.728 q -0.384,0 -0.96,-0.576 -0.384,-0.576 -0.384,-0.96 v -17.28 q 0,-0.192 0.384,-0.96 0.576,-0.768 0.96,-0.96 l 0.96,-1.92 q 0.384,-0.768 0.768,-1.344 0.768,-0.576 1.92,-1.728 1.152,-1.344 1.536,-1.728 0.384,-0.192 1.92,-0.96 1.536,-0.768 1.92,-0.768 0.384,0 0.768,0 0.576,-0.192 0.96,-0.192 z"
       id="text7"
       aria-label="2000" />
  </g>
</svg>
