{"asset":{"version":"2.0","generator":"Blockbench 4.12.1 glTF exporter"},"scenes":[{"nodes":[2],"name":"blockbench_export"}],"scene":0,"nodes":[{"rotation":[0.7071067811865475,0,0,0.7071067811865476],"translation":[4.440892098500627e-18,0.12499999999999994,7.703719777548943e-34],"name":"coin_big","mesh":0},{"translation":[-1.5543122344752193e-17,0.37500000000000006,-7.703719777548943e-34],"name":"coin_big","children":[0]},{"children":[1]}],"bufferViews":[{"buffer":0,"byteOffset":0,"byteLength":2496,"target":34962,"byteStride":12},{"buffer":0,"byteOffset":2496,"byteLength":2496,"target":34962,"byteStride":12},{"buffer":0,"byteOffset":4992,"byteLength":1664,"target":34962,"byteStride":8},{"buffer":0,"byteOffset":6656,"byteLength":576,"target":34963},{"buffer":0,"byteOffset":7232,"byteLength":16},{"buffer":0,"byteOffset":7248,"byteLength":64},{"buffer":0,"byteOffset":7312,"byteLength":12},{"buffer":0,"byteOffset":7324,"byteLength":36}],"buffers":[{"byteLength":7360,"uri":"data:application/octet-stream;base64,"}],"accessors":[{"bufferView":0,"componentType":5126,"count":208,"max":[0.4375,0.0625,0.4375],"min":[-0.4375,-0.0625,-0.4375],"type":"VEC3"},{"bufferView":1,"componentType":5126,"count":208,"max":[1,1,1],"min":[-1,-1,-1],"type":"VEC3"},{"bufferView":2,"componentType":5126,"count":208,"max":[1,1],"min":[0,0],"type":"VEC2"},{"bufferView":3,"componentType":5123,"count":288,"max":[207],"min":[0],"type":"SCALAR"},{"bufferView":4,"componentType":5126,"count":4,"max":[1],"min":[0],"type":"SCALAR"},{"bufferView":5,"componentType":5126,"count":4,"max":[0,0,0,1],"min":[0,-0.8660253882408142,0,-1],"type":"VEC4"},{"bufferView":6,"componentType":5126,"count":3,"max":[1],"min":[0],"type":"SCALAR"},{"bufferView":7,"componentType":5126,"count":3,"max":[-1.554312241092664e-17,0.4375,-7.703719777548943e-34],"min":[-1.554312241092664e-17,0.375,-7.703719777548943e-34],"type":"VEC3"}],"materials":[{"pbrMetallicRoughness":{"metallicFactor":0,"roughnessFactor":1,"baseColorTexture":{"index":0}},"alphaMode":"MASK","alphaCutoff":0.05,"doubleSided":true}],"textures":[{"sampler":0,"source":0,"name":"coin"}],"samplers":[{"magFilter":9728,"minFilter":9728,"wrapS":33071,"wrapT":33071}],"images":[{"mimeType":"image/png","uri":"data:image/png;base64,"}],"meshes":[{"primitives":[{"mode":4,"attributes":{"POSITION":0,"NORMAL":1,"TEXCOORD_0":2},"indices":3,"material":0}]}],"animations":[{"name":"active","samplers":[{"input":4,"output":5,"interpolation":"LINEAR"},{"input":6,"output":7,"interpolation":"LINEAR"}],"channels":[{"sampler":0,"target":{"node":1,"path":"rotation"}},{"sampler":1,"target":{"node":1,"path":"translation"}}]}]}