<?xml version="1.0" encoding="UTF-8" standalone="no"?>
<!-- Created with Inkscape (http://www.inkscape.org/) -->

<svg
   width="138.91782"
   height="83.166435"
   viewBox="0 0 138.91782 83.166439"
   version="1.1"
   id="svg1"
   inkscape:version="1.4 (e7c3feb100, 2024-10-09)"
   sodipodi:docname="2000.svg"
   inkscape:export-filename="2000.png"
   inkscape:export-xdpi="353.82071"
   inkscape:export-ydpi="353.82071"
   xmlns:inkscape="http://www.inkscape.org/namespaces/inkscape"
   xmlns:sodipodi="http://sodipodi.sourceforge.net/DTD/sodipodi-0.dtd"
   xmlns="http://www.w3.org/2000/svg"
   xmlns:svg="http://www.w3.org/2000/svg">
  <sodipodi:namedview
     id="namedview1"
     pagecolor="#ffffff"
     bordercolor="#000000"
     borderopacity="0.25"
     inkscape:showpageshadow="2"
     inkscape:pageopacity="0.0"
     inkscape:pagecheckerboard="0"
     inkscape:deskcolor="#d1d1d1"
     inkscape:document-units="mm"
     inkscape:zoom="1.8273012"
     inkscape:cx="108.90377"
     inkscape:cy="43.506784"
     inkscape:window-width="1440"
     inkscape:window-height="888"
     inkscape:window-x="0"
     inkscape:window-y="0"
     inkscape:window-maximized="1"
     inkscape:current-layer="layer1" />
  <defs
     id="defs1" />
  <g
     inkscape:label="Layer 1"
     inkscape:groupmode="layer"
     id="layer1"
     transform="translate(-148.93154,-217.96635)">
    <path
       id="text3"
       style="font-style:normal;font-variant:normal;font-weight:normal;font-stretch:normal;font-size:85.3333px;font-family:'a dripping marker';-inkscape-font-specification:'a dripping marker';text-align:start;writing-mode:lr-tb;direction:ltr;text-anchor:start;fill:#0066ff"
       d="m 184.58398,217.9668 c -2.1799,0.1008 -4.3794,-0.0952 -6.54892,0.0992 -1.23766,0.31249 -2.51255,0.40609 -3.72471,0.80815 -1.40959,0.23514 -2.78144,0.67093 -4.00099,1.42606 -2.35823,1.11576 -4.90276,2.12266 -6.6259,4.17503 -1.23629,1.18954 -2.62289,2.27774 -3.3952,3.85151 -0.64153,1.31785 -1.57022,2.51353 -1.95623,3.94084 -0.3792,1.57166 -0.0641,3.08872 -0.20117,4.64062 0.0113,1.08276 0.46768,2.10056 0.46289,3.18555 1.03217,1.26473 1.54406,2.84326 2.43945,4.19531 0.73289,1.16236 1.63747,2.22313 2.11719,3.52735 0.63596,1.2106 1.84438,1.99767 3.12305,2.375 1.19474,0.63543 2.65201,0.41992 3.85937,-0.0684 -1.83835,2.65618 -3.99379,5.07988 -5.72672,7.81022 -1.15004,1.73332 -2.72744,3.10904 -4.01351,4.7347 -0.82032,0.95389 -1.65151,1.88927 -2.67489,2.62773 -1.55932,1.49265 -3.73629,2.12288 -5.24769,3.68165 -1.28312,1.21088 -2.31276,2.69339 -2.91727,4.35468 -0.89892,1.41194 -0.70016,3.20571 -0.17187,4.70547 -0.15394,1.3138 0.69625,2.79589 2.10352,2.88438 2.28365,8.8e-4 4.6233,0.21912 6.83753,-0.49261 1.60964,-0.48506 3.24487,-0.85556 4.91973,-1.02743 1.88477,-0.20966 3.74091,-0.61528 5.60406,-0.93504 1.07903,-0.13108 2.14966,-0.32291 3.21875,-0.51758 0,5.12109 0,10.24219 0,15.36328 2.76433,0 5.52865,0 8.29297,0 0.45702,-3.58566 0.98168,-7.16735 1.15235,-10.78125 0.67708,0.12435 1.35416,0.2487 2.03125,0.37305 0.28979,-1.91268 0.42967,-3.86434 0.99414,-5.72071 1.7251,-0.0711 3.45221,0.0403 5.12169,0.50401 1.01214,0.22554 1.98506,0.65967 3.04274,0.51756 1.10246,-0.0405 2.35577,0.20123 3.30041,-0.4825 1.6869,-0.66385 3.15809,-1.78576 4.50195,-2.98438 0.76305,1.36889 2.20703,2.14117 3.51563,2.86719 0.28575,1.72268 0.77821,3.41387 0.79687,5.17187 0.0508,0.61068 0.10157,1.22136 0.15235,1.83204 0.61133,0 1.22265,0 1.83398,0 -0.07,2.3565 -0.2828,4.71635 -0.22656,7.07226 0.2365,1.59866 1.02974,3.03887 1.42754,4.59711 0.52828,1.61795 1.05612,3.23604 1.58418,4.85406 1.62552,-2.22773 3.25147,-4.47285 4.89299,-6.67789 0.94241,-0.68386 1.08423,-1.91291 1.00677,-2.98594 0.24364,-1.7927 0.59792,-3.57126 0.69568,-5.38105 0.27559,-2.35064 0.28344,-4.9205 0.37721,-7.15238 0.0799,-0.89533 0.0307,-1.8508 0.20313,-2.70899 0.76906,-0.74103 1.78077,-1.21148 2.58184,-1.86863 0.297,-0.80571 1.0379,-1.32547 1.52949,-2.01027 1.03451,-1.19501 1.85946,-2.54577 2.72601,-3.86186 0.4372,-0.74009 0.82541,-1.50816 1.20563,-2.27877 0.32551,0.85851 0.54126,1.78956 0.93646,2.60331 0.60714,0.47213 0.67725,1.32831 1.16475,1.90708 0.6107,1.46201 1.67329,2.63881 2.71519,3.80406 0.78376,1.44939 2.23002,2.34115 3.66211,3.06055 0.2989,1.76701 0.78138,3.50481 0.82744,5.30662 0.12118,0.53465 -0.0179,1.35436 0.25694,1.72073 0.52295,0.0745 1.35271,-0.14422 1.69821,0.0999 -0.0684,2.32323 -0.27925,4.64977 -0.22204,6.97237 0.23651,1.59866 1.02975,3.03887 1.42754,4.59711 0.52802,1.61738 1.05612,3.23474 1.58418,4.85211 1.64548,-2.24232 3.2754,-4.51621 4.93945,-6.73242 0.95021,-0.6999 1.00436,-1.94668 0.96903,-3.01695 0.26226,-1.79443 0.58823,-3.58045 0.69896,-5.39284 0.26224,-2.3548 0.2712,-4.72701 0.36521,-7.09217 0.0379,-0.57696 0.0721,-1.4837 0.12534,-2.19223 -0.0913,-0.70311 0.77478,-0.9235 1.18773,-1.33612 0.58804,-0.50206 1.53036,-0.67709 1.70451,-1.53024 1.13167,-1.23893 2.21411,-2.53324 3.10248,-3.96023 0.85073,-1.13525 1.49981,-2.40262 2.12604,-3.67063 0.35692,0.87459 0.51518,1.87814 1.00662,2.66674 0.53097,0.4886 0.63791,1.2798 1.09297,1.84153 0.19976,0.36385 0.3842,0.79852 0.66017,1.25931 0.78038,1.28179 1.97314,2.25258 2.74805,3.5332 0.80859,0.92771 1.93185,1.50831 2.97461,2.09766 0.2884,1.76123 0.77143,3.38758 0.81445,5.18555 0.0553,0.60612 0.11068,1.21224 0.16602,1.81836 0.60091,-10e-6 1.20182,0 1.80273,0 -0.0695,2.22428 -0.24251,4.44893 -0.2539,6.67187 0.0903,1.71292 0.98919,3.21648 1.42929,4.84576 0.55412,1.64496 1.10706,3.29032 1.66055,4.93549 1.62625,-2.22131 3.24073,-4.47006 4.88867,-6.66406 0.95021,-0.6999 1.00437,-1.94668 0.96903,-3.01695 0.26226,-1.79443 0.58823,-3.58045 0.69896,-5.39284 0.26224,-2.3548 0.2712,-4.72701 0.36522,-7.09217 0.0379,-0.57696 0.072,-1.4837 0.12533,-2.19223 -0.0995,-0.68407 0.73022,-0.90498 1.13284,-1.30389 0.60849,-0.50911 1.57118,-0.69211 1.7594,-1.56247 1.1796,-1.27381 2.26316,-2.63758 3.20313,-4.09766 1.49013,-2.10723 2.49431,-4.50637 3.49728,-6.86861 0.6974,-2.28837 1.49603,-4.55603 2.08445,-6.87474 0.31046,-1.7787 0.66137,-3.56672 0.93975,-5.34844 -0.0409,-3.3921 0.0872,-6.79792 -0.0763,-10.18118 -0.37194,-1.76315 -0.79913,-3.51903 -1.53384,-5.17045 -0.61007,-2.19467 -1.56905,-4.2928 -2.94449,-6.11322 -0.51992,-0.68666 -0.70654,-1.58875 -1.47661,-2.06552 -1.23506,-1.05983 -2.37808,-2.22731 -3.5676,-3.32866 -0.97413,-0.79278 -2.05241,-1.47589 -3.23321,-1.89533 -0.78043,-0.69934 -1.82954,-0.72683 -2.79925,-0.89967 -1.34813,-0.28086 -2.755,-0.69714 -4.10817,-0.20229 -1.55839,0.28033 -3.13713,0.61448 -4.52475,1.41784 -0.85191,0.44569 -1.87152,0.55717 -2.50769,1.34322 -1.50408,1.26297 -2.97839,2.56096 -4.32179,3.99565 -0.59042,0.48314 -1.20053,0.93489 -1.48808,1.67162 -0.27485,0.29218 -0.48208,1.35641 -0.79102,0.60618 -0.56036,-0.67255 -0.92315,-1.53147 -1.41653,-2.24742 -1.40171,-1.21741 -2.73258,-2.52051 -4.07904,-3.7898 -0.97413,-0.79278 -2.05242,-1.47589 -3.23321,-1.89533 -0.78043,-0.69934 -1.82954,-0.72683 -2.79925,-0.89967 -1.34813,-0.28086 -2.755,-0.69714 -4.10817,-0.20229 -1.55862,0.27949 -3.13708,0.61453 -4.52475,1.41784 -0.85191,0.44569 -1.87153,0.55717 -2.5077,1.34322 -1.50487,1.26347 -2.97962,2.56232 -4.32373,3.9976 -0.5926,0.484 -1.20582,0.93486 -1.49019,1.67657 -0.25479,0.1991 -0.44638,1.33046 -0.72724,0.68677 -0.54163,-0.70794 -0.98312,-1.49506 -1.40187,-2.26807 -1.42597,-1.24022 -2.78413,-2.56301 -4.15342,-3.85664 -0.97413,-0.79278 -2.05242,-1.47589 -3.23321,-1.89533 -0.78044,-0.69934 -1.82954,-0.72683 -2.79925,-0.89967 -1.34814,-0.28086 -2.755,-0.69714 -4.10817,-0.20229 -1.59163,0.27524 -3.19254,0.64167 -4.60751,1.45721 -0.8337,0.41412 -1.80919,0.54203 -2.42494,1.30385 -1.50487,1.26347 -2.97962,2.56232 -4.32373,3.9976 -0.59305,0.48422 -1.20622,0.93401 -1.49051,1.67638 -1.21854,1.95463 -2.21028,4.36959 -1.43527,6.67518 0.31548,0.81682 -0.32745,1.62756 -0.51727,2.41762 -0.68025,2.03945 -0.9824,4.18579 -1.29308,6.30647 -0.0589,1.29228 -0.22259,2.5795 -0.32247,3.86302 0.0385,2.86429 -0.15017,5.74565 0.22039,8.59145 0.0303,1.4572 0.39163,2.86876 0.67219,4.29019 -1.25471,-1.36118 -2.73656,-2.54376 -3.64512,-4.18628 -0.83829,-1.35084 -1.36874,-2.87067 -2.2416,-4.20434 -0.43722,-1.03042 -1.02123,-2.07445 -2.01562,-2.6582 -0.19259,-0.50358 -0.35376,-0.95975 0.13816,-1.3592 1.33904,-1.97914 2.76364,-3.90575 3.88332,-6.02166 1.27158,-1.94825 2.3015,-4.04929 3.40754,-6.08857 0.64835,-2.21845 2.06164,-4.31526 1.7741,-6.72393 -0.0872,-1.77111 0.31419,-3.67615 -0.58776,-5.29829 -0.34455,-0.93783 -1.04251,-1.67839 -1.37903,-2.60992 -0.85688,-1.16008 -2.17572,-1.83244 -3.37546,-2.58357 -1.23256,-0.78998 -2.65332,-1.17205 -4.04251,-1.56682 -0.45477,-0.0681 -0.91125,-0.10863 -1.3711,-0.10351 z m -6.94531,20.78906 c -0.41743,0.39327 0.0552,-0.55754 0.34125,-0.73013 0.7478,-1.15674 -0.45743,0.9227 -0.34125,0.73013 z m 35.8125,18.79102 c -0.41123,1.55621 -0.88,3.09624 -1.39453,4.62109 -0.60234,-0.95742 -1.12928,-1.94887 -1.54836,-3.00369 -0.55132,-0.69534 0.56676,-0.43181 0.97219,-0.69748 0.79774,-0.23909 1.42172,-0.80101 2.05664,-1.31055 -0.0286,0.13021 -0.0573,0.26042 -0.0859,0.39063 z m 29.31836,-0.21094 c -0.40869,1.62787 -0.90119,3.23478 -1.44336,4.82422 -0.55609,-0.9026 -1.09431,-1.80872 -1.46978,-2.80772 -0.53571,-0.69628 0.0267,-0.6921 0.63799,-0.76499 0.82491,-0.36809 1.61232,-0.82495 2.3064,-1.40581 l -0.0198,0.098 z m 29.26953,0 c -0.40978,1.62818 -0.90188,3.236 -1.44336,4.82617 -0.55464,-0.9037 -1.09312,-1.80846 -1.46727,-2.80797 -0.60596,-0.7774 0.14377,-0.63443 0.72557,-0.81011 0.79483,-0.3542 1.54668,-0.80545 2.21631,-1.36239 l -0.0199,0.098 z" />
    <text
       xml:space="preserve"
       style="font-style:normal;font-variant:normal;font-weight:normal;font-stretch:normal;font-size:85.3333px;font-family:'a dripping marker';-inkscape-font-specification:'a dripping marker';text-align:start;writing-mode:lr-tb;direction:ltr;text-anchor:start;fill:#ffffff"
       x="158.91225"
       y="275.48944"
       id="text1"><tspan
         sodipodi:role="line"
         id="tspan1"
         x="158.91225"
         y="275.48944"
         style="font-size:85.3333px;fill:#ffffff">2000</tspan></text>
  </g>
</svg>
