<?xml version="1.0" encoding="UTF-8" standalone="no"?>
<!-- Created with Inkscape (http://www.inkscape.org/) -->

<svg
   width="260.23099"
   height="86.27803"
   viewBox="0 0 260.23099 86.278034"
   version="1.1"
   id="svg1"
   inkscape:version="1.4 (e7c3feb100, 2024-10-09)"
   sodipodi:docname="bubble.svg"
   inkscape:export-filename="bubble.png"
   inkscape:export-xdpi="188.87836"
   inkscape:export-ydpi="188.87836"
   xmlns:inkscape="http://www.inkscape.org/namespaces/inkscape"
   xmlns:sodipodi="http://sodipodi.sourceforge.net/DTD/sodipodi-0.dtd"
   xmlns="http://www.w3.org/2000/svg"
   xmlns:svg="http://www.w3.org/2000/svg">
  <sodipodi:namedview
     id="namedview1"
     pagecolor="#ffffff"
     bordercolor="#000000"
     borderopacity="0.25"
     inkscape:showpageshadow="2"
     inkscape:pageopacity="0.0"
     inkscape:pagecheckerboard="0"
     inkscape:deskcolor="#d1d1d1"
     inkscape:document-units="mm"
     inkscape:zoom="1.8273012"
     inkscape:cx="102.88397"
     inkscape:cy="40.770509"
     inkscape:window-width="1440"
     inkscape:window-height="888"
     inkscape:window-x="0"
     inkscape:window-y="0"
     inkscape:window-maximized="1"
     inkscape:current-layer="layer1" />
  <defs
     id="defs1" />
  <g
     inkscape:label="Layer 1"
     inkscape:groupmode="layer"
     id="layer1"
     transform="translate(-155.21225,-220.94658)">
    <path
       id="text3"
       style="font-style:normal;font-variant:normal;font-weight:normal;font-stretch:normal;font-size:85.3333px;font-family:'a dripping marker';-inkscape-font-specification:'a dripping marker';text-align:start;writing-mode:lr-tb;direction:ltr;text-anchor:start;fill:#ff00ff"
       d="m 246.29297,220.95898 c -2.18471,-0.0609 -3.95998,1.42173 -5.44838,2.84929 -0.64856,0.65922 -1.55449,1.11435 -1.84459,2.06673 -0.43642,1.14703 -1.16516,2.20878 -1.21241,3.48043 -0.10151,2.24717 -0.0851,4.6239 1.00079,6.6619 0.61481,1.04354 1.29824,2.06728 1.47367,3.30766 0.67732,3.52344 1.61019,6.99367 2.27344,10.52163 0.1588,0.76413 0.30575,1.53064 0.45865,2.29596 -0.33298,0.20422 -0.83906,1.08009 -1.0242,0.76682 -2.09011,-7.08395 -4.20664,-14.11468 -6.18778,-21.23868 -0.42871,-1.4586 -0.83382,-2.98283 -1.65521,-4.26642 -1.05708,-1.38518 -2.56846,-2.77567 -4.44336,-2.5918 -1.12377,-0.10265 -2.22236,0.14327 -3.29297,0.43359 -0.87639,0.1233 -1.44795,0.84843 -2.03124,1.41993 -1.24561,0.88569 -2.36492,1.98607 -3.09044,3.34973 -0.89253,1.16551 -1.35621,2.61649 -1.26137,4.08656 0.0667,1.09291 -0.10555,2.19937 0.3007,3.24441 0.85459,3.1324 1.82838,6.23295 2.73196,9.35039 0.78751,2.43138 1.26368,4.94807 1.86782,7.42528 0.1663,1.24624 0.45536,2.48017 0.67789,3.70769 0.18926,1.80397 0.38808,3.60802 0.32786,5.42656 0.004,0.71264 5.2e-4,1.42526 -0.004,2.13789 -2.49719,-0.16094 -5.01163,-0.29617 -7.47365,-0.75629 -1.1731,-0.29023 -2.35099,-0.63454 -3.46385,-1.08746 -0.0565,-1.34064 -0.0622,-2.70812 0.46329,-3.96858 1.19954,-4.00017 2.47816,-7.98525 3.37069,-12.06658 0.24409,-1.28673 0.54133,-2.58303 0.43083,-3.9085 -0.0629,-2.33726 0.11619,-4.69639 -0.11247,-7.01923 -0.24693,-0.81594 -0.45834,-1.64493 -0.44727,-2.50391 -1.11295,-0.97798 -1.24708,-2.65056 -2.45898,-3.55664 -0.94102,-0.86007 -2.35708,-0.95565 -3.16781,-1.98172 -1.46261,-0.17004 -3.06411,-0.11534 -4.44938,0.50126 -2.10528,0.64529 -3.60926,2.3691 -5.09619,3.89723 -1.33479,1.48922 -1.90937,3.50487 -2.16943,5.44651 -0.0621,1.98125 0.37882,4.2751 2.12961,5.45997 0.31344,0.31016 1.02941,0.33425 0.86453,0.90136 -0.0768,0.98615 0.10627,1.98982 -0.1211,2.96094 -1.67032,-0.48257 -3.41074,-0.63273 -5.12506,-0.89818 -0.9512,0.0162 -0.45932,-0.43569 -0.11492,-0.95457 0.77472,-1.21836 0.78858,-2.69565 0.72484,-4.08575 -0.006,-0.95041 0.0827,-2.10859 -0.74632,-2.75068 -0.983,-1.13406 -2.3645,-1.91857 -3.87853,-1.9976 -2.95593,-0.50346 -5.94693,-1.05338 -8.83943,-1.93798 -1.69882,-0.41172 -3.3968,-0.82341 -5.00443,-1.52544 -2.10348,-0.73702 -4.08043,-1.7662 -6.01986,-2.85107 -1.10888,-0.63562 -2.13884,-1.42651 -3.15644,-2.18623 -0.55534,-0.29413 -0.39617,-1.01342 -0.92188,-1.32812 -0.70644,-1.79954 -1.34732,-3.62545 -1.95507,-5.46289 -0.58217,-0.009 -1.16002,0.0168 -1.59409,-0.42876 -1.09918,-0.59244 -2.39219,-0.23602 -3.58404,-0.33537 -2.08671,-0.17405 -3.87604,1.15083 -5.31797,2.50843 -0.61769,0.70204 -1.44775,1.21981 -2.04735,1.91693 -0.47102,1.61988 -1.64465,3.10106 -1.37648,4.87587 -0.12158,2.29564 0.21138,4.69941 1.53321,6.63477 0.66106,0.87258 0.91108,2.16631 1.09375,3.08398 0.67332,3.36915 1.54808,6.69769 2.18518,10.07612 0.14221,0.69534 0.26344,1.39479 0.39685,2.09185 -1.34858,1.24721 -2.58982,2.64643 -3.34766,4.33594 -0.56466,0.8439 -0.67091,1.86733 -0.58019,2.84982 -0.15995,1.16711 0.31984,2.32688 1.2067,3.08306 0.94868,1.24904 2.38221,2.20109 3.99459,2.18431 -0.035,1.63965 0.11112,3.31085 -0.10157,4.92969 -0.53033,1.82952 -0.82756,3.91532 -0.0391,5.71093 0.6419,1.31584 1.98928,2.02794 2.9375,3.08789 1.51261,0.13638 3.08941,0.087 4.48828,-0.56836 2.01719,1.12774 4.23408,1.96182 6.55469,2.13868 0.41454,0.17555 0.84029,0.33423 1.28906,0.38867 0.10352,1.18086 0.20369,2.36204 0.30664,3.54297 0.50578,0.0735 1.31401,-0.14435 1.63867,0.10351 -0.11379,3.26021 -0.25716,6.52585 -0.0957,9.78594 -0.0665,1.74177 0.22409,3.469 0.79693,5.11106 0.77983,2.76939 1.55982,5.53873 2.33979,8.30808 1.12486,-2.35354 2.25438,-4.80874 3.36393,-7.063 0.93089,-1.90242 1.94444,-3.83918 2.04625,-6.0007 0.35823,-3.25648 0.75815,-6.51041 0.96222,-9.78262 0.14473,-1.99614 0.29297,-3.992 0.44401,-5.98766 2.43822,-0.6939 4.72979,-1.7861 6.94643,-2.9996 1.49586,-0.65838 2.78188,-1.77744 4.42271,-2.10392 0.32781,-0.38381 0.6749,-1.10674 0.88867,-0.25586 0.73974,1.55384 2.26891,2.47445 3.37747,3.7305 0.9299,0.73883 2.10851,1.0311 3.13993,1.58258 0.98374,0.39062 2.04262,0.55169 3.02361,0.94864 0,2.39453 0,4.78906 0,7.18359 0.88151,0 1.76302,0 2.64454,0 0,3.46094 0,6.92188 0,10.38282 2.66125,2.12362 5.32014,4.25021 7.98046,6.375 0.28163,-4.41359 0.40616,-8.84405 0.97161,-13.2327 0.0637,-3.05851 0.35068,-6.10712 0.51863,-9.16184 2.22485,0.006 4.48967,0.14363 6.64848,-0.50291 1.13946,-0.271 2.26318,-0.61498 3.33199,-1.09669 1.01947,0.5041 1.97294,1.12284 2.77539,1.93164 1.12345,0.94819 2.62065,1.26355 4.05545,1.13987 1.53334,-0.0747 3.04916,-0.69903 4.19455,-1.71995 0.98107,-0.076 1.68314,-0.85919 2.10256,-1.6618 0.33165,-0.23132 0.5357,-1.22098 0.92959,-0.98525 0.85107,0.73218 2.0423,0.55125 3.07918,0.44392 0.66081,-0.0523 1.31954,-0.42795 1.92187,-0.49804 2.00072,1.1254 4.21108,1.90177 6.50199,2.11347 0.39624,0.19329 1.02028,0.23165 1.26952,0.52723 0.0887,1.12822 0.1772,2.25645 0.2656,3.38469 0.52026,0.0689 1.32617,-0.13715 1.66992,0.10156 -0.11334,3.26084 -0.25626,6.52719 -0.0957,9.78789 -0.0641,1.74161 0.22114,3.46974 0.7968,5.1111 0.7851,2.79187 1.57245,5.58311 2.35945,8.37445 1.51821,-3.32036 3.15443,-6.5871 4.64039,-9.92108 0.88731,-2.04593 0.75381,-4.32958 1.1235,-6.49103 0.47723,-4.15086 0.69899,-8.32479 1.03689,-12.48828 2.45592,-0.69965 4.76076,-1.8057 6.99508,-3.02535 1.47808,-0.65492 2.74959,-1.76322 4.37575,-2.07919 0.8063,-1.12908 2.0366,-1.85287 2.92184,-2.91731 1.22324,-1.2101 2.52459,-2.3441 3.66827,-3.63245 -0.0307,1.23094 0.13054,2.4953 -0.33008,3.66601 -0.35683,1.7038 -0.55467,3.65165 0.34666,5.22034 0.6837,1.14571 1.89431,1.80492 2.76076,2.79138 1.52656,0.15876 3.1239,0.0445 4.5293,-0.55273 1.95282,1.10021 4.09373,1.89578 6.33585,2.11747 0.50218,0.0798 0.94882,0.39666 1.47665,0.37667 0.10059,1.18682 0.20082,2.37367 0.30078,3.56055 0.50896,0.0716 1.3132,-0.14096 1.64453,0.10156 -0.11815,3.26068 -0.25577,6.52722 -0.0977,9.78789 -0.0648,1.74239 0.22469,3.47083 0.79921,5.11293 0.78773,2.79363 1.57637,5.58701 2.36486,8.38043 1.51346,-3.31272 3.13273,-6.57716 4.62298,-9.89952 0.90494,-2.08516 0.7687,-4.41387 1.1447,-6.61777 0.46953,-4.11946 0.68994,-8.26144 1.02724,-12.39287 2.4345,-0.69331 4.72485,-1.7812 6.93785,-2.99529 1.38699,-0.56832 2.53736,-1.63969 4.02309,-1.98322 0.083,1.47846 -0.47555,2.89812 -0.35014,4.38238 0.0474,0.58088 -0.18355,1.28679 0.45901,1.60056 1.10031,1.02669 2.05552,2.44513 3.66456,2.67331 1.78782,0.0992 3.61838,0.14525 5.38851,-0.19218 1.34012,-0.272 2.71615,-0.47962 4.00798,-0.71993 0.0791,2.90603 0.3341,5.80633 0.38197,8.66241 0.11289,3.74534 0.22557,7.49069 0.33873,11.23603 2.67192,-4.43617 5.34081,-8.87418 8.01563,-13.3086 0.15437,-1.66228 0.22302,-3.39586 0.43164,-5.01367 1.27677,-0.40571 2.3958,-1.3942 3.05078,-2.48047 1.1462,-0.0667 2.31522,-0.0402 3.38067,0.42878 1.40985,0.23056 2.28304,1.46715 3.35956,2.28216 0.98599,0.76768 1.94327,1.73936 3.23328,1.89907 2.27731,0.79198 4.61156,-0.41141 6.474,-1.65828 1.51434,-0.85455 2.38361,-2.44073 3.58569,-3.64509 0.15611,-0.68508 0.7101,-0.62925 1.28343,-0.68199 1.36984,-0.2484 2.6133,-0.93423 3.84157,-1.55629 0.57588,-0.27383 0.96755,-1.02664 1.68633,-0.82617 1.26276,0 2.52552,0 3.78828,0 0.12779,4.21784 0.32806,8.44572 0.97266,12.61719 0.3357,1.57086 1.31707,2.9483 2.66554,3.81129 1.32822,1.08251 2.65654,2.1649 3.98485,3.2473 0.81725,-3.14921 1.63491,-6.29831 2.45312,-9.44727 -0.29001,-0.13474 0.40265,-1.07417 0.5016,-1.52743 0.44785,-1.14728 0.99941,-2.24264 1.53442,-3.34502 0.42612,-1.07608 0.6909,-2.21181 0.84094,-3.35801 1.56183,0.3349 3.2406,0.75468 4.82031,1.22265 1.73164,0.67039 3.57198,1.20339 5.4492,1.04922 1.23866,0.0964 2.45863,-0.2012 3.54689,-0.77969 1.34658,-0.64191 2.18982,-1.94434 3.24387,-2.94773 1.3732,-1.34757 2.5343,-3.14167 2.34075,-5.14637 0.13403,-1.50593 -0.10882,-3.19933 -1.33737,-4.2231 -1.98543,-1.97855 -4.77509,-2.73247 -7.17108,-4.05389 -1.60695,-1.27521 -3.28059,-2.48781 -4.72851,-3.94922 0.76725,-0.16049 0.72289,-0.82707 0.72033,-1.4676 0.31614,-6.01502 0.60304,-12.02611 0.94959,-18.01482 1.17374,-1.44365 2.55112,-2.99133 2.69727,-4.92227 0,-1.28307 0,-2.56614 0,-3.84922 -0.96044,-0.85336 -1.7428,-1.98682 -2.90814,-2.5545 -3.89042,-0.38679 -7.77798,-0.81419 -11.67194,-1.15253 -0.71062,-0.0945 -1.27651,-0.6362 -2.02344,-0.5039 -1.07895,-0.1971 -2.14949,-0.4525 -3.23828,-0.57617 -2.45939,-0.66733 -4.92202,-1.31473 -7.31909,-2.18672 -1.35611,-0.43097 -2.68259,-0.93397 -3.94458,-1.58868 -1.75268,-0.4288 -3.31033,-1.68939 -5.18984,-1.54645 -1.20432,-0.097 -2.41054,0.17733 -3.44004,0.80841 -0.97932,0.34536 -1.93156,0.799 -2.58844,1.63429 -1.12405,1.0405 -2.0756,2.27502 -2.67539,3.68477 -0.80506,1.29443 -0.75831,2.87906 -0.72435,4.30661 -0.15224,1.17944 0.46862,2.25045 1.27728,3.05023 0.89062,1.07267 2.40166,1.39333 3.10445,2.64418 0.20003,0.51899 0.57827,0.8677 0.90238,1.24879 0.57709,1.01233 0.34084,2.23711 0.61459,3.33975 0.16026,1.29411 0.23785,2.59686 0.38928,3.89192 -1.20703,0.83377 -2.40766,1.79453 -3.0218,3.16307 -1.28122,1.77884 -2.1704,4.16857 -1.26922,6.30959 0.76844,1.93569 2.77849,3.50063 4.93242,3.19258 0.61414,-0.0855 1.04128,0.009 0.83907,0.7332 -0.003,2.89002 0.0423,5.78531 -0.0469,8.67188 -0.68475,-0.78857 -1.34548,-1.60734 -1.90213,-2.48654 -1.17562,-2.16212 -3.0279,-4.28383 -5.55138,-4.76418 -1.00569,-0.0548 -2.04465,-0.0138 -2.93676,0.49961 -1.27154,0.31384 -2.22065,1.24026 -3.08781,2.15891 -0.62418,0.52772 -1.17768,1.21331 -1.84612,1.64221 -3.02102,0.24269 -6.10371,0.14045 -9.04557,0.97037 -0.52513,0.10181 -1.05322,0.18795 -1.58335,0.25891 -0.0338,-2.20856 -0.21312,-4.42874 -0.0697,-6.63183 1.0097,-6.35171 2.55453,-12.59028 3.57601,-18.93732 0.27121,-2.00763 0.0442,-4.04131 0.11823,-6.06131 -0.0197,-2.06888 0.0567,-4.15134 -0.0757,-6.21133 -0.28946,-1.81194 -1.94552,-2.82017 -3.15479,-4.0033 -0.41998,-0.46041 -1.15985,-0.0964 -1.72057,-0.20437 -0.90042,0.005 -1.89254,-0.0976 -2.7186,0.26273 -1.17607,0.91494 -2.74012,1.3568 -3.58242,2.67166 -0.70663,0.83499 -1.71452,1.43708 -2.28076,2.36497 -0.71904,1.56701 -1.63395,3.18661 -1.37942,4.9794 -0.0549,2.57592 0.1193,5.16735 -0.0998,7.73312 -0.18503,1.23964 -0.21127,2.39714 -0.59908,3.60828 -0.11905,0.54113 -0.20069,1.08974 -0.29074,1.63633 -1.48766,-0.31627 -3.0206,-0.36305 -4.5,-0.7246 1.10062,-1.26136 1.45538,-2.98667 1.2806,-4.61753 0.0136,-0.85867 0.0764,-1.83072 -0.34338,-2.58468 -1.03845,-1.27832 -2.47368,-2.34509 -4.17404,-2.42034 -2.91218,-0.51035 -5.86872,-1.01122 -8.717,-1.8994 -2.04833,-0.4688 -4.07535,-1.03027 -5.99878,-1.88922 -1.75474,-0.62871 -3.40631,-1.52006 -5.01932,-2.43936 -1.19177,-0.56759 -2.20026,-1.46243 -3.2839,-2.19519 -0.48826,-0.26752 -0.52828,-0.80531 -0.80591,-1.20077 -0.46135,-0.46493 -0.484,-1.20608 -0.8142,-1.7648 -0.4863,-1.29469 -0.90398,-2.61423 -1.35844,-3.92035 -0.58453,0.003 -1.14855,-10e-4 -1.58822,-0.42877 -1.05201,-0.59092 -2.29493,-0.20965 -3.43795,-0.35053 -1.48375,-0.082 -2.92496,0.43359 -4.07667,1.35945 -1.06741,0.7665 -1.94696,1.75764 -2.96943,2.56633 -0.67091,0.73355 -0.81957,1.75924 -1.34297,2.58645 -0.73022,1.65518 -0.52541,3.50776 -0.44588,5.26276 0.15562,1.72585 0.8727,3.33078 1.82317,4.75939 0.79704,1.64904 0.81587,3.54208 1.3443,5.28039 0.39292,1.66104 0.75838,3.32825 1.11357,4.99773 -1.37041,-0.32207 -2.73646,-0.6549 -4.14498,-0.76694 -0.65172,-0.0824 -1.29976,-0.1915 -1.94486,-0.31509 1.1424,-1.27444 1.46502,-3.05216 1.30029,-4.71127 0.0174,-0.84369 0.0666,-1.80028 -0.35441,-2.53681 -1.04945,-1.25757 -2.47168,-2.32307 -4.16514,-2.39396 -2.95694,-0.50742 -5.94937,-1.04377 -8.84319,-1.9298 -1.74397,-0.43135 -3.4951,-0.83898 -5.14502,-1.56795 -2.09281,-0.74407 -4.0671,-1.76457 -5.99703,-2.85142 -1.11585,-0.66899 -2.2083,-1.43058 -3.21857,-2.25218 -0.49987,-0.28724 -0.31459,-0.96927 -0.8367,-1.24489 -0.70644,-1.79954 -1.34733,-3.62545 -1.95508,-5.46289 -0.58216,-0.009 -1.16001,0.0168 -1.59409,-0.42876 -1.05189,-0.5879 -2.2935,-0.21246 -3.43599,-0.35054 -0.12205,0.003 -0.24457,-0.005 -0.3664,0.004 z m 138.55078,21.41797 c 0.95813,0.15501 -0.14996,0.0405 -0.51852,0.0268 -0.47085,0.17725 -1.67876,-0.38722 -0.68606,-0.2848 0.40153,0.086 0.80305,0.17201 1.20458,0.25801 z m 6.76563,0.80469 c 0.64334,-0.26863 1.17403,0.68559 0.38762,0.21091 -0.2445,-0.16019 -1.16578,-0.3137 -0.38762,-0.21091 z m -89.11133,3.55078 c -0.21511,0.2086 -0.19652,-0.27664 0,0 z m -127.41407,-0.002 c -0.19509,0.20264 -0.18725,-0.26302 0,0 z m 82.51758,0 c -0.19188,0.20034 -0.18185,-0.25946 0,0 z m 6.26758,4.93164 c 0.68027,0.16955 0.25925,1.37448 -0.35937,0.8418 -0.17434,-0.27082 -0.0529,-0.88054 0.35937,-0.8418 z m -82.52539,0 c 0.58778,0.10615 0.40816,1.24251 -0.23633,0.91601 -0.37905,-0.15589 -0.1767,-0.96049 0.23633,-0.91601 z m 127.47266,0.0156 c 0.54455,0.21405 0.27174,1.24047 -0.33789,0.88672 -0.35745,-0.20065 -0.10674,-1.03125 0.33789,-0.88672 z m 75.48047,6.33985 c 0.68444,-0.0123 -0.0767,0.89814 0.0883,1.34028 -0.0426,0.5662 -0.01,1.1364 0.064,1.69878 -0.74495,0.24425 -0.48915,-0.56404 -0.52344,-1.0707 0,-0.6763 0,-1.35261 0,-2.02891 0.1237,0.0202 0.2474,0.0404 0.3711,0.0606 z m -191.76954,4.23437 c -0.75837,0.43481 -1.50737,0.92758 -2.35742,1.16211 0.15656,-0.45703 -0.17528,-1.41132 0.61133,-1.16211 0.58203,0 1.16406,0 1.74609,0 z m 82.51758,0 c -0.759,0.43476 -1.50828,0.92901 -2.35937,1.16211 0.15482,-0.45754 -0.17131,-1.41022 0.61328,-1.16211 0.58203,0 1.16406,0 1.74609,0 z m 44.88867,0 c -0.76224,0.42943 -1.50871,0.93113 -2.36132,1.16211 0.15728,-0.45524 -0.17371,-1.41124 0.61132,-1.16211 0.58334,0 1.16667,0 1.75,0 z m -141.32617,1.07813 c -0.003,0.34145 1.0457,1.16698 0.3837,0.74 -0.20556,-0.23792 -1.42268,-0.71116 -0.63832,-0.75548 0.072,0.0221 0.2438,-0.1185 0.25462,0.0155 z m 82.51758,0 c -0.0176,0.32862 1.04947,1.16804 0.40234,0.75 -0.26096,-0.21336 -0.97246,-0.55544 -0.90795,-0.71371 0.13958,0.0192 0.4346,-0.18306 0.50561,-0.0363 z m 44.88477,0 c -0.0319,0.30674 1.00763,1.1335 0.44531,0.77539 -0.21845,-0.22386 -1.23049,-0.64456 -0.85509,-0.76003 0.12286,0.003 0.36153,-0.14527 0.40978,-0.0154 z" />
    <text
       xml:space="preserve"
       style="font-style:normal;font-variant:normal;font-weight:normal;font-stretch:normal;font-size:85.3333px;font-family:'a dripping marker';-inkscape-font-specification:'a dripping marker';text-align:start;writing-mode:lr-tb;direction:ltr;text-anchor:start;fill:#000000"
       x="158.91225"
       y="275.48944"
       id="text1"><tspan
         sodipodi:role="line"
         id="tspan1"
         x="158.91225"
         y="275.48944"
         style="font-size:85.3333px">BUBBLE</tspan></text>
  </g>
</svg>
