<?xml version="1.0" encoding="UTF-8" standalone="no"?>
<!-- Created with Inkscape (http://www.inkscape.org/) -->

<svg
   width="330.64169"
   height="92.728302"
   viewBox="0 0 330.64171 92.728306"
   version="1.1"
   id="svg1"
   inkscape:version="1.4 (e7c3feb100, 2024-10-09)"
   sodipodi:docname="h4ck3rm4n.svg"
   xmlns:inkscape="http://www.inkscape.org/namespaces/inkscape"
   xmlns:sodipodi="http://sodipodi.sourceforge.net/DTD/sodipodi-0.dtd"
   xmlns="http://www.w3.org/2000/svg"
   xmlns:svg="http://www.w3.org/2000/svg">
  <sodipodi:namedview
     id="namedview1"
     pagecolor="#ffffff"
     bordercolor="#000000"
     borderopacity="0.25"
     inkscape:showpageshadow="2"
     inkscape:pageopacity="0.0"
     inkscape:pagecheckerboard="0"
     inkscape:deskcolor="#d1d1d1"
     inkscape:document-units="mm"
     inkscape:zoom="1.2920971"
     inkscape:cx="198.51449"
     inkscape:cy="28.248651"
     inkscape:window-width="1440"
     inkscape:window-height="888"
     inkscape:window-x="0"
     inkscape:window-y="0"
     inkscape:window-maximized="1"
     inkscape:current-layer="layer1" />
  <defs
     id="defs1" />
  <g
     inkscape:label="Layer 1"
     inkscape:groupmode="layer"
     id="layer1"
     transform="translate(-90.657798,-212.01775)">
    <path
       id="text2"
       style="font-size:85.3333px;font-family:'a dripping marker';-inkscape-font-specification:'a dripping marker';fill:#00ff00"
       d="m 259.03516,212.04102 c -1.54551,0.26083 -3.01374,0.90144 -4.50756,1.36838 -5.34884,2.25843 -10.74998,4.39374 -16.10401,6.63987 -2.22249,0.99775 -4.64106,1.66312 -6.56223,3.22416 -1.07722,0.75568 -2.01535,1.70159 -2.8555,2.71095 -1.19074,-1.2906 -3.11245,-1.78288 -4.81055,-1.51563 -1.61775,0.35737 -3.26723,0.80777 -4.56726,1.89469 -1.89204,1.51854 -3.69093,3.21473 -4.92652,5.32968 -0.59275,0.81118 -0.28701,1.99646 -1.08434,2.6604 -1.77377,1.73959 -3.47884,3.56863 -5.38656,5.16204 -0.94269,0.6612 -1.78417,1.45362 -2.71501,2.13092 -0.0126,-5.52656 0.037,-11.05942 -0.0411,-16.58201 -0.26221,-1.40874 -0.38507,-3.00475 -1.44911,-4.05666 -0.46978,-1.14364 -1.70942,-1.84422 -2.93201,-1.64388 -1.17287,0.0109 -2.4065,-0.10061 -3.53364,0.19404 -1.04052,0.95286 -2.58798,1.18551 -3.4751,2.34571 -0.79672,0.9368 -1.79845,1.72827 -2.48118,2.741 -0.41095,0.92528 -0.95299,1.79345 -1.11141,2.81442 -0.41118,1.45209 -0.17561,2.96323 -0.23033,4.44715 -0.8175,-0.88233 -1.8289,-1.62213 -2.49696,-2.6216 -0.53627,-1.41584 -1.15376,-2.92351 -2.52249,-3.73332 -0.67972,-0.48331 -1.41216,-0.91235 -2.20321,-1.19977 -0.99425,-0.11338 -2.02238,-0.0932 -3.01115,0.0786 -0.97778,0.25836 -1.81497,0.87058 -2.7311,1.28814 -0.98373,0.60936 -1.65571,1.58008 -2.53489,2.32137 -1.12778,1.11153 -1.98155,2.50036 -2.5334,3.97788 -0.90866,0.17453 -1.87955,-0.15907 -2.70406,0.3569 -1.63935,0.60549 -3.30163,1.16578 -4.84448,1.99513 -1.95785,0.79373 -3.64891,2.11151 -5.0335,3.69289 -0.26978,-1.94016 -0.27612,-4.04683 -1.46892,-5.70253 -0.67353,-0.91813 -1.41602,-1.90013 -2.46467,-2.39708 -0.64451,-0.31182 -1.40366,-0.0936 -2.02678,-0.36706 -0.27996,-0.0862 0.29806,-0.80011 0.31173,-1.13865 0.44112,-1.11901 0.21034,-2.32818 -0.20682,-3.41226 -0.39535,-1.28691 -1.53421,-2.22311 -2.72852,-2.75781 -1.28516,-0.45455 -2.68432,-0.30815 -4.01659,-0.212 -1.34941,0.19553 -2.51168,0.98956 -3.63575,1.71005 -1.69519,1.37598 -3.23315,3.01691 -4.16016,5.01757 -0.52529,0.69209 -0.51678,1.61806 -0.75838,2.39067 -1.237,1.95401 -2.29644,4.04128 -3.89434,5.73982 -1.72065,2.18103 -3.46132,4.35978 -5.50245,6.25515 -0.49645,0.49646 -0.99291,0.99291 -1.48936,1.48936 -0.0104,-2.96783 0.0469,-5.94384 -0.0664,-8.90625 -0.35059,-1.56761 -0.54397,-3.16409 -0.44531,-4.7707 0,-5.47747 0,-10.95495 0,-16.43242 -2.1632,-1.04141 -4.57205,-2.3291 -7.03516,-1.58008 -0.88765,0.26755 -1.65743,0.83224 -2.57421,1.01758 -1.4997,1.59387 -3.28293,2.97214 -4.3391,4.92843 -0.76803,1.1094 -1.11948,2.46418 -0.96364,3.8036 0,3.4168 0,6.83359 0,10.25039 -2.08633,0.35836 -4.16757,0.7439 -6.25,1.125 0.0131,-2.65544 -0.0261,-5.32765 0.0195,-7.97266 1.028,-1.13209 1.90814,-2.45609 2.10352,-4.00781 -0.0146,-0.35196 0.6166,-0.99763 0.65955,-1.45785 -0.50625,-0.8699 -0.30045,-1.9822 -0.97622,-2.77575 -0.96924,-1.81316 -2.9559,-2.97475 -4.98636,-3.05893 -1.86532,0.11581 -3.616631,0.96386 -5.180644,1.94124 -1.64237,0.96287 -2.959197,2.38706 -3.90359,4.02959 -0.541842,0.84565 -0.851217,1.83287 -1.36739,2.70411 -0.804415,1.62566 -1.337722,3.39329 -1.39315,5.21473 -0.446828,2.67375 -0.138152,5.39466 -0.224469,8.08996 -0.0224,2.56367 -0.06067,5.13243 0.232537,7.68296 0.111772,2.52118 0.626375,5.01064 0.846612,7.48584 0.572989,5.07034 1.204363,10.11406 1.811779,15.18222 0.439399,1.97576 0.604513,4.02445 1.132,5.96951 0.425552,0.81888 0.661931,1.7347 1.003491,2.58049 0.205019,3.57486 0.155392,7.15908 0.355617,10.73415 0.03659,0.86958 0.04992,2.02085 0.111516,3.00141 0.194802,2.23834 0.269205,4.51161 0.775203,6.70562 0.788754,2.36678 2.290585,4.39977 3.321968,6.65801 0.32952,0.64199 0.65905,1.28398 0.98858,1.92597 1.41472,-2.95518 2.9898,-5.83327 4.32812,-8.82421 0.0117,-6.63409 -0.0234,-13.28923 0.0176,-19.91016 0.5354,-0.52182 1.05706,-1.05844 1.54297,-1.62695 0.42318,1.01888 0.84635,2.03776 1.26953,3.05664 1.31481,-3.15275 2.7914,-6.23874 4.03024,-9.42199 0.14339,-0.90411 0.21631,-1.82187 0.38968,-2.72254 0.14589,2.29535 0.21637,4.59802 0.52417,6.87851 0.20762,1.48795 0.58164,2.97788 1.19654,4.34805 0.46657,0.83432 1.14652,1.5523 1.96679,2.04101 0.37206,1.45927 0.23937,3.08506 1.14643,4.3572 0.94861,1.5451 2.97286,1.71393 4.61329,1.60412 0.61704,-0.0282 1.23308,0.0409 1.84966,0.0582 0.53648,-0.76236 1.18904,-1.55774 1.0957,-2.55273 1.69815,-1.03725 2.19517,-3.10386 2.44876,-4.94422 0.2705,-1.82283 0.0673,-3.75912 0.86765,-5.4718 0.21083,-2.04272 0.0456,-4.09586 -0.24789,-6.11934 -0.10775,-1.33302 -0.2535,-2.66426 -0.29313,-4.00175 1.08854,0 2.17709,0 3.26563,0 0.18163,0.66038 0.16226,1.55997 0.90982,1.82987 0.60248,0.44081 1.10474,1.08419 1.87338,1.25607 0.16738,1.21482 0.65171,2.36345 0.70685,3.59943 0.58772,4.17838 1.17482,8.35686 1.7619,12.53533 1.87955,-4.60497 3.85715,-9.17018 5.70852,-13.78588 0.33652,-0.65198 0.2529,-1.4464 0.75828,-2.02076 0.0709,-1.17326 0.14191,-2.34652 0.21679,-3.51953 0.71967,-0.0659 1.44201,-0.0908 2.16407,-0.11328 0.25844,3.54502 0.36432,7.10714 0.76186,10.63823 0.32992,1.46077 0.30674,2.9706 0.57212,4.43599 0.21,0.74847 0.48811,1.4792 0.53516,2.26367 1.22516,1.10928 2.26592,2.73596 4.06054,2.91211 2.17687,0.19 4.58692,-0.23914 6.15486,-1.87855 1.33444,-1.19468 2.52351,-2.53904 3.79046,-3.80309 0.0572,-1.33983 0.87974,-2.55569 0.66873,-3.92418 0.0582,-1.33261 -0.29901,-2.63303 -0.3953,-3.95473 2.16421,2.15491 4.27616,4.41254 6.90625,6.01368 1.76217,1.13221 3.49947,2.31611 5.41725,3.1672 0.48445,0.24533 0.97932,0.46991 1.48314,0.67264 0.0172,5.16722 -0.0467,10.34067 0.0448,15.50393 0.78782,3.60922 1.5748,7.21862 2.36142,10.8281 1.91428,-3.55406 3.86551,-7.09714 5.76377,-10.65412 0.27021,-1.11127 0.47436,-2.24927 0.7564,-3.35973 0.0684,-1.29373 0.25994,-2.48854 0.36264,-3.83185 0.10656,-2.20549 0.13669,-4.41487 0.23242,-6.6211 0.46315,-0.35189 0.75657,-0.91157 1.15959,-1.28275 2.03182,-0.71228 3.879,-1.88055 5.50447,-3.28365 0.77703,-0.51274 1.41702,-1.20674 2.00781,-1.91992 0.39087,1.94924 2.18795,3.34595 4.10592,3.60728 1.32628,0.33435 2.69834,0.0593 3.91752,-0.49791 2.04729,-0.8359 3.84839,-2.29729 5.10742,-4.11328 0.1535,2.19769 0.19229,4.41179 0.46279,6.59691 0.2019,1.13971 0.27436,2.47426 1.29786,3.20501 1.79644,1.78753 3.59255,3.57537 5.38779,5.3641 0.79274,-3.27447 1.75063,-6.50848 2.4668,-9.80079 0,-2.54817 0,-5.09635 0,-7.64453 1.08118,1.89801 2.58481,3.50188 3.75739,5.34202 1.5156,2.24553 3.50715,4.10806 5.27386,6.14822 1.02225,1.13164 2.39089,1.85592 3.44625,2.94404 0.88881,0.66166 2.0156,1.01945 3.10322,1.12977 2.05476,0.0994 4.27812,-0.36952 5.74219,-1.90938 1.23766,-1.09014 2.37309,-2.28814 3.53256,-3.45935 -0.0683,-0.67622 0.13667,-1.28745 0.51291,-1.84113 0.58556,-0.88572 0.42744,-1.98448 0.32529,-2.98589 -0.11358,-0.68099 -0.41509,-1.30827 -0.57063,-1.97181 -0.38319,-0.70821 -0.41213,-0.72127 0.25555,-0.18579 0.47398,0.42016 1.05632,0.72822 1.56164,1.06909 0.19025,0.70544 0.92954,0.58962 1.4998,0.72705 0.62289,0.0158 1.09389,0.21697 1.01309,0.92871 0.26218,1.77798 1.53491,3.19299 3.04475,4.07313 0.72176,0.22158 0.40236,1.01581 0.49236,1.58507 0.0114,0.61151 -0.13304,1.31628 0.63857,1.47309 2.3505,1.34569 4.70148,2.69053 7.05284,4.03472 0.43612,-3.25029 0.99466,-6.49177 1.30078,-9.75468 0,-1.50104 0,-3.00209 0,-4.50313 0.60973,-0.47758 1.3964,-0.67372 1.82112,-1.36941 1.49747,-1.76901 3.29565,-3.26617 4.74499,-5.07222 0.60539,-0.90941 1.26485,-1.78706 1.90858,-2.66122 0.65794,-1.28664 1.40069,-2.52109 2.15166,-3.75375 1.07027,-1.96771 1.82172,-4.08844 2.76062,-6.11654 0.56115,-1.58958 0.94218,-3.24651 1.54467,-4.81592 0.44103,-0.71281 0.44781,-1.56546 0.4668,-2.37305 0.19198,1.11316 0.81138,2.15691 0.6824,3.30711 0.15059,1.13242 0.51055,2.23517 0.45787,3.38088 0.0999,0.80267 0.67606,1.54848 0.35407,2.35837 0.0492,0.85781 -0.80323,1.34995 -1.20433,2.02955 -1.28482,1.49726 -1.55585,3.50525 -1.92601,5.36975 -0.12818,1.47932 0.12218,3.03688 1.0774,4.21841 0.46168,0.67094 1.03321,1.26881 1.70118,1.73632 -0.14953,1.22097 -0.45626,2.46628 -0.37362,3.68749 0.39595,1.76125 1.9516,2.96676 2.52652,4.62087 -0.13235,1.17977 -0.26549,2.35945 -0.39704,3.5393 0.57697,0.8875 1.42115,1.59863 1.81279,2.58818 0.43829,0.50215 1.0218,0.82991 1.367,1.42692 1.69283,2.11333 3.38539,4.22688 5.07802,6.34037 0.24235,-3.66173 0.3628,-7.33151 0.63672,-10.99024 0.10542,-0.72909 0.17796,-1.47307 0.3164,-2.1914 0.84523,-0.88375 1.78954,-1.77535 2.03947,-3.02961 0.96669,-2.42682 2.17747,-4.79332 2.56171,-7.40771 0.20729,-0.59441 0.0726,-1.45946 0.74648,-1.73651 2.43242,1.46184 4.80678,3.02658 7.05273,4.75781 0.76784,0.47977 1.22728,1.3126 1.97038,1.83814 0.75683,0.7288 1.69275,1.252 2.22902,2.18559 1.17978,1.52945 2.39478,3.0317 3.68928,4.46651 1.75322,-0.18115 3.62991,0.49158 5.26757,-0.40625 1.53011,-0.52892 2.87807,-1.46833 4.09961,-2.51367 0.10886,1.31954 0.52267,2.68286 1.50196,3.62109 0.23544,0.2722 0.80202,0.89362 1.16428,1.29957 1.62386,1.80677 3.24837,3.61295 4.87282,5.41918 0.40681,-2.99643 0.69006,-6.01011 1.12907,-9.0008 0.5513,-1.57106 0.29919,-3.25435 0.57992,-4.8703 0.07,-0.89524 -0.0993,-1.86676 0.46039,-2.63879 0.39866,-0.85549 1.04773,-1.60821 1.39508,-2.46902 0.0244,-0.41068 0.38653,0.82363 0.44387,1.10063 0.49142,1.61169 0.73994,3.32045 1.47269,4.84461 0.45653,0.90165 1.31809,1.57641 1.72844,2.46875 0.14908,1.58549 0.49425,3.24169 1.64907,4.42218 1.88982,2.38691 3.79692,4.76094 5.69421,7.14274 0.48819,-3.41544 0.89801,-6.87048 1.43164,-10.26172 0.66661,-0.90693 1.44157,-1.73346 2.06836,-2.67383 0.26088,-0.72343 0.40174,-0.89046 0.62137,-0.0338 0.84442,2.16366 1.77996,4.33649 2.65988,6.45763 -1.63763,1.57029 -2.93112,3.78362 -2.89844,6.05273 -0.20259,2.54798 1.78918,5.00829 4.31685,5.36192 0.85824,0.25158 1.82054,0.32332 2.65776,0.43887 0.1929,1.12812 0.90392,2.09547 1.87925,2.67015 0.65801,0.65426 1.54774,1.1611 2.44453,1.2638 1.51452,-0.674 3.03061,-1.34446 4.54536,-2.01794 0.29335,-1.84076 1.07397,-3.54426 1.59375,-5.32031 0.67595,-0.22156 0.62413,-0.82796 0.59961,-1.41992 0.26046,-0.61946 0.99982,-0.93003 1.18945,-1.62696 0.39587,-1.59769 1.44557,-3.04292 1.23686,-4.77575 0.0987,-0.97609 -0.23666,-1.90877 -0.70224,-2.74122 -1.51838,-3.90483 -3.23145,-7.73082 -4.73617,-11.64168 -0.77378,-1.91459 -1.54255,-3.83094 -2.30626,-5.74955 1.44011,0 2.88021,0 4.32031,0 0.18391,0.65706 0.15268,1.5546 0.90043,1.82148 0.60469,0.45571 1.15272,1.07809 1.8945,1.28399 0.11293,1.22615 0.66984,2.36412 0.70926,3.60815 0.56689,4.17076 1.17377,8.33708 1.74972,12.50708 1.78424,-4.32482 3.577,-8.57425 5.3525,-12.87474 0.32814,-0.74274 0.5826,-1.53454 0.79514,-2.29643 0.58801,-0.52941 0.26266,-1.43058 0.41411,-2.13792 0.0399,-0.67243 0.075,-1.3451 0.12184,-2.01708 0.71969,-0.0662 1.44207,-0.0873 2.16407,-0.11133 0.2674,3.54321 0.36152,7.10474 0.76333,10.63441 0.32037,1.43172 0.31282,2.90721 0.55112,4.34606 0.21039,0.77678 0.49112,1.52979 0.53906,2.34571 1.23693,1.09649 2.26244,2.73574 4.05664,2.91796 2.18186,0.19784 4.60452,-0.22979 6.17598,-1.87505 0.91682,-0.80785 1.74499,-1.70823 2.59941,-2.58002 1.03472,0.0669 2.14083,0.35673 3.09313,-0.18665 1.01163,-0.31228 1.8976,-0.90703 2.64515,-1.63562 1.34936,-1.01224 2.67101,-2.09867 3.70313,-3.4375 0.32792,-0.18832 1.16747,-1.02549 1.22911,-0.65187 -0.20063,2.50399 -0.30958,5.01574 -0.25841,7.52882 0.55162,0.55875 0.41975,1.48004 1.01834,2.0344 0.34697,0.62844 1.01869,1.15001 0.85957,1.92497 -0.0294,4.83411 0.33649,9.66 0.47351,14.49088 0.0326,0.82583 0.0652,1.65166 0.0978,2.47749 2.48493,-4.58274 5.09568,-9.09775 7.51494,-13.7151 0.29029,-0.76195 0.64779,0.72024 1.15918,0.66228 1.52441,0.19806 3.20463,0.91486 4.63992,0.0228 1.19996,-0.38501 2.45345,-0.81072 3.31639,-1.77972 0.88952,-0.67786 1.82782,-1.34285 2.59567,-2.14705 0.86798,-1.27231 1.93203,-2.57004 1.93406,-4.19358 0.25181,-1.65598 -0.32286,-3.28582 -0.43331,-4.93149 -1.23979,-9.12055 -2.48313,-18.24114 -3.58858,-27.37893 -0.2651,-2.5615 -0.47659,-5.12814 -0.66263,-7.69593 -0.13617,-3.2961 -0.44534,-6.58388 -0.57101,-9.87816 -0.13956,-1.2891 -0.28653,-2.61364 -0.64695,-3.8505 -0.77702,-1.5464 -1.91699,-3.14309 -3.67593,-3.58858 -1.42339,0.0987 -2.94912,-0.40033 -4.28093,0.33632 -2.8549,1.26808 -5.68369,3.04492 -7.22538,5.85768 -0.56138,0.94523 -1.21342,1.88937 -1.56069,2.92425 -0.18628,1.76341 -0.42713,3.8028 0.85049,5.24049 0.27349,0.40079 0.79589,0.64345 1.03893,1.0097 0.17251,1.80396 0.30126,3.6739 0.43372,5.44148 -1.22024,-1.57696 -2.57284,-3.05425 -3.75253,-4.66029 -0.47109,-0.83135 -1.12178,-1.56815 -1.37051,-2.50573 -0.62978,-1.3505 -1.24516,-2.76247 -2.41101,-3.74966 -0.76899,-0.75536 -1.835,-1.11353 -2.88392,-1.16636 -0.89888,-0.40539 -1.86648,-0.15418 -2.74388,0.13984 -1.04114,0.13029 -1.79133,0.9 -2.74244,1.23712 -0.41118,0.42021 -0.63975,-0.11596 -0.95044,-0.39215 -0.43566,-0.34673 -0.78888,-0.92193 -1.2723,-1.13703 -0.69863,0.10375 -1.39656,0.0637 -2.09367,-0.0236 0.5631,-1.30394 1.04243,-2.83082 0.38086,-4.20117 -0.31282,-1.53983 -1.59341,-2.72158 -3.02539,-3.25586 -1.29048,-0.37491 -2.67144,-0.27907 -3.99024,-0.13476 -1.21931,0.23152 -2.29203,0.91124 -3.32301,1.568 -1.27368,1.01245 -2.47059,2.17116 -3.40427,3.5087 -0.53921,0.90571 -1.10367,1.84071 -1.44932,2.8269 -0.0344,0.63629 -0.13725,1.25785 -0.58198,1.73894 -1.08829,1.84417 -2.16116,3.71278 -3.62277,5.29449 -1.69714,2.15329 -3.42954,4.28822 -5.42892,6.17155 -2.17351,2.19425 -4.4263,4.30797 -6.65457,6.4461 -1.39212,-3.98035 -2.68913,-7.99452 -3.98285,-12.00718 -0.52462,-1.68911 -0.75401,-3.45117 -1.33864,-5.12528 -0.60329,-1.65787 -0.56647,-3.42612 -0.50327,-5.16049 -0.0991,-1.93933 0.22155,-3.9407 -0.42228,-5.81447 -0.19987,-1.06059 -0.98757,-1.86604 -1.61038,-2.70117 -1.38765,-1.32677 -3.54249,-1.30453 -5.28871,-0.85267 -2.54336,0.86662 -4.4232,2.93371 -6.18134,4.87225 -1.63419,1.89162 -1.68755,4.53875 -1.98286,6.89842 -0.1753,1.86844 -0.18134,3.75048 -0.42209,5.61325 -0.90843,-1.80612 -1.95381,-3.53803 -2.88867,-5.32812 -0.39046,-0.82865 -0.70352,-1.70758 -1.02519,-2.54788 -0.84992,-0.91355 -1.78858,-1.83953 -3.04708,-2.12009 -1.77544,-0.7377 -3.68332,0.0496 -5.2793,0.86328 -0.66065,-0.0381 -1.12331,0.31532 -1.51348,0.81311 -1.00467,1.05723 -2.05233,2.09402 -3.02583,3.16681 -0.16886,0.6917 -0.57755,0.59408 -1.05639,0.23492 -0.82002,-0.40069 -1.68281,-0.73669 -2.57227,-0.91797 -0.36332,-0.51787 -0.85134,-0.75749 -1.48458,-0.67782 -1.21773,-0.008 -2.41525,-0.225 -3.54666,-0.66983 -1.60869,-0.28469 -3.24969,-0.35673 -4.86788,-0.59795 -4.77008,-0.60503 -9.55804,-1.06753 -14.32128,-1.71994 -1.08654,0.0334 -1.54253,-1.08508 -2.32256,-1.63524 -1.17671,-1.1311 -2.40729,-2.2265 -3.875,-2.96484 -1.59057,-1.00878 -3.57859,-0.52354 -5.21105,0.11426 -1.89034,0.33118 -3.3143,1.72591 -4.7898,2.82904 -0.58067,0.52043 -0.73752,1.32153 -1.28431,1.86724 -0.28981,0.64903 -0.97919,1.0788 -0.96844,1.83678 -0.11782,0.67446 -0.3534,1.32418 -0.43,2.00697 -1.76854,-0.26074 -3.46623,-0.99414 -5.27734,-0.94531 1.62384,-2.21652 3.36438,-4.34785 4.97461,-6.57226 0.47562,-0.68693 0.67032,-1.51941 1.24805,-2.13086 0.72768,-1.06201 0.258,-2.3697 0.37695,-3.55899 -0.0515,-0.63128 0.0984,-1.34748 -0.0716,-1.92876 -1.04693,-0.92444 -1.90309,-2.16457 -3.17095,-2.77007 -1.13198,0.008 -2.26466,-0.0234 -3.39609,0.0195 z m -30.35352,24.19921 c 2.04822,-0.0401 4.1031,0.0614 6.14648,-0.0703 -0.67389,0.71472 -1.59953,1.25088 -1.86677,2.25166 -0.33002,0.67426 -0.86134,1.25746 -0.78365,2.05834 -0.13557,1.30751 -0.27734,2.61461 -0.3652,3.92633 -1.59606,1.64072 -2.51125,3.93271 -2.3011,6.22986 -0.0225,1.23474 0.0588,2.45717 0.31365,3.66931 0.0526,0.77057 0.21385,1.49931 0.47305,2.22512 0.41474,2.37331 1.78563,4.40513 2.78342,6.55689 0.91868,1.86086 1.90463,3.72786 3.39406,5.20273 0.66475,0.77596 -0.0748,-0.0185 -0.38319,-0.31738 -0.88737,-0.91671 -1.80919,-1.81208 -2.62169,-2.78919 -1.62547,-2.55147 -3.6756,-4.8586 -4.95898,-7.60937 -0.56977,-1.23597 -1.28285,-2.4108 -1.87811,-3.64028 -1.42554,-2.59514 -2.64866,-5.30757 -4.14075,-7.86107 -0.41424,-0.45569 -0.82609,-0.91336 -1.26239,-1.34826 2.1993,-2.36022 4.43201,-4.73038 6.0906,-7.51656 0.3923,-0.58238 0.77773,-1.16891 1.10666,-1.79008 0.0846,0.27409 0.16928,0.54818 0.25391,0.82226 z m 69.80274,7.19336 c 0.64272,0.12289 1.21637,0.42147 1.8164,0.66797 -1.70253,1.30413 -3.22195,2.85054 -5.0937,3.92114 -0.59559,0.38693 -1.1853,0.79149 -1.75396,1.21168 -0.87879,-0.041 -1.74776,-0.20217 -2.6289,-0.2168 -0.16881,-0.88831 -0.41038,-1.7605 -0.66016,-2.62891 1.56576,0 3.13151,0 4.69727,0 -0.34175,-0.7983 0.47707,-0.48543 0.96094,-0.67969 1.02637,-0.26784 1.74778,-1.26334 1.73591,-2.31483 -0.0719,-0.46658 0.69843,0.0791 0.9262,0.0394 z m -41.01368,1.33789 c 0.55368,0.13865 1.09227,0.46855 1.05547,1.11702 0.27256,1.41172 -0.0276,2.8073 -0.2248,4.2117 -0.39869,1.37671 -0.7991,2.76597 -1.32012,4.10281 -1.05607,1.7069 -1.5,3.78738 -2.93008,5.25563 -0.36358,0.25172 -0.44533,1.18387 -0.9789,0.80894 -0.79755,-0.10313 -1.28994,-0.77121 -1.89283,-1.23177 -0.92593,-1.03072 -2.07042,-1.89129 -2.87475,-3.01433 -1.11357,-1.86674 -1.97831,-3.87433 -2.99937,-5.79502 -0.24115,-1.0214 -0.48522,-2.04936 -0.7484,-3.05969 -0.0781,-0.54602 -0.16502,-1.09047 -0.25028,-1.63552 0.58618,-0.22355 1.2164,-0.28647 1.81836,-0.45898 0.49655,1.45752 1.40107,2.90589 2.94141,3.40625 0.67426,-0.004 0.76265,0.59457 0.93784,1.11684 0.67381,1.87531 1.3487,3.75024 2.02309,5.62534 1.64475,-3.0933 3.45645,-6.09786 5.02539,-9.23047 0.16563,-0.31161 0.0691,-1.24227 0.41797,-1.21875 z m -114.22851,1.4375 c -0.11947,0.0599 0.0538,-0.14165 0,0 z m 227.1582,0 c -0.11946,0.0599 0.0538,-0.14165 0,0 z m -197.91016,0.78321 c 0.20949,0.84452 0.69687,1.57073 1.10157,2.32422 0.42562,0.7019 1.08107,1.29244 1.45898,1.99218 0.0419,0.73132 0.1714,1.45794 0.2461,2.1875 2.84692,0.0899 5.69513,0.0606 8.54296,0.0566 0,-1.00976 0,-2.01953 0,-3.02929 1.56475,0.97142 3.08781,2.01669 4.55078,3.14062 -1.35855,1.2691 -2.84712,2.63207 -3.25138,4.5312 -0.69865,1.715 -0.51541,3.61136 -1.07479,5.35747 -1.8376,-0.80552 -3.65065,-1.73961 -5.305,-2.88538 -0.90439,-0.87102 -1.91077,-1.61529 -2.95476,-2.30212 -1.51148,-1.30433 -2.87861,-2.76579 -4.29482,-4.16387 -0.78716,-1.17238 -1.91458,-2.07601 -2.67198,-3.26777 -0.40208,-0.50926 -0.7977,-1.14437 -0.86359,-1.78437 -0.004,-0.55039 -0.0199,-1.10071 -0.0114,-1.65117 0.66551,-0.30275 1.31766,-0.64296 2.07188,-0.51172 0.81837,0.008 1.63757,-0.0173 2.45546,0.006 z m 139.37891,4.06836 c 0.0373,2.97377 -0.17017,5.93994 -0.30859,8.9082 -1.18057,-1.22333 -2.49757,-2.29735 -3.92657,-3.21956 -0.53132,-0.42349 -1.1201,-0.76004 -1.64765,-1.18669 1.97532,-1.56344 3.96613,-3.10882 5.88281,-4.74414 0,0.0807 0,0.16146 0,0.24219 z m 86.26758,15.78711 c -0.0232,0.64883 -0.0839,-0.17674 0,0 z m -0.125,1.81445 c -0.0218,0.29563 -0.0656,1.61328 -0.0703,1.24531 0.0539,-0.50224 -0.11269,-1.0434 0.0879,-1.5207 -0.006,0.0918 -0.0117,0.18359 -0.0176,0.27539 z" />
    <text
       xml:space="preserve"
       style="font-style:normal;font-variant:normal;font-weight:normal;font-stretch:normal;font-size:85.3333px;font-family:'a dripping marker';-inkscape-font-specification:'a dripping marker';text-align:start;writing-mode:lr-tb;direction:ltr;text-anchor:start;fill:#000000"
       x="94.336143"
       y="271.65866"
       id="text1"><tspan
         sodipodi:role="line"
         id="tspan1"
         x="94.336143"
         y="271.65866"
         style="font-size:85.3333px">H4CK3RM4N</tspan></text>
  </g>
</svg>
