<?xml version="1.0" encoding="UTF-8" standalone="no"?>
<!-- Created with Inkscape (http://www.inkscape.org/) -->

<svg
   width="199.70413"
   height="86.957809"
   viewBox="0 0 199.70414 86.957813"
   version="1.1"
   id="svg1"
   inkscape:version="1.4 (e7c3feb100, 2024-10-09)"
   sodipodi:docname="hyper.svg"
   inkscape:export-filename="hyper.png"
   inkscape:export-xdpi="246.1241"
   inkscape:export-ydpi="246.1241"
   xmlns:inkscape="http://www.inkscape.org/namespaces/inkscape"
   xmlns:sodipodi="http://sodipodi.sourceforge.net/DTD/sodipodi-0.dtd"
   xmlns="http://www.w3.org/2000/svg"
   xmlns:svg="http://www.w3.org/2000/svg">
  <sodipodi:namedview
     id="namedview1"
     pagecolor="#ffffff"
     bordercolor="#000000"
     borderopacity="0.25"
     inkscape:showpageshadow="2"
     inkscape:pageopacity="0.0"
     inkscape:pagecheckerboard="0"
     inkscape:deskcolor="#d1d1d1"
     inkscape:document-units="mm"
     inkscape:zoom="1.8273012"
     inkscape:cx="113.28182"
     inkscape:cy="50.073846"
     inkscape:window-width="1440"
     inkscape:window-height="888"
     inkscape:window-x="0"
     inkscape:window-y="0"
     inkscape:window-maximized="1"
     inkscape:current-layer="layer1" />
  <defs
     id="defs1" />
  <g
     inkscape:label="Layer 1"
     inkscape:groupmode="layer"
     id="layer1"
     transform="translate(-155.23891,-212.85162)">
    <path
       id="text3"
       style="font-style:normal;font-variant:normal;font-weight:normal;font-stretch:normal;font-size:85.3333px;font-family:'a dripping marker';-inkscape-font-specification:'a dripping marker';text-align:start;writing-mode:lr-tb;direction:ltr;text-anchor:start;fill:#ff0000"
       d="m 172.32031,215.16797 c -3.35321,1.87437 -6.81069,3.56027 -10.1556,5.44637 -2.0583,1.23259 -3.60252,3.16537 -4.58629,5.33449 -1.0971,1.99242 -1.88194,4.15864 -2.10708,6.43191 -0.43233,3.65614 -0.10363,7.34376 -0.23188,11.01379 0.0459,5.92013 1.11969,11.76201 1.7119,17.63848 0.50332,4.04712 0.89592,8.11389 1.59578,12.13279 0.3522,1.99602 0.71251,3.99055 1.10716,5.97873 0.49663,0.13201 1.03288,0.20325 1.23242,0.74609 1.25277,1.55357 3.29818,2.21586 5.2488,2.10599 1.32118,-10e-4 2.49623,-0.83591 3.49397,-1.63524 1.0951,-0.99731 2.14473,-2.09414 2.94687,-3.33792 0.88779,-1.44899 2.0035,-2.97818 1.78302,-4.77452 -0.0773,-2.74807 -1.15049,-5.35078 -1.27399,-8.09432 -0.44186,-2.94683 -0.82076,-5.90181 -1.11725,-8.86657 -0.12283,-0.91984 -0.26366,-1.83733 -0.37439,-2.75874 1.17965,-0.46326 2.46217,-0.20222 3.70156,-0.26806 0.46466,0.15183 1.53924,-0.3445 1.54765,0.2922 0.18765,3.87272 0.13835,7.84663 0.32626,11.78918 0.17316,3.82224 0.33367,7.65252 0.76524,11.45498 0.2231,2.20166 0.97266,4.51426 2.83116,5.87428 2.65998,2.14066 7.02107,1.8549 9.16602,-0.88477 1.12784,-1.38972 1.69131,-3.12312 2.62339,-4.63147 1.05323,-2.27324 2.25693,-4.47336 3.37661,-6.71423 0.70267,0.2775 1.26882,0.98026 2.0843,0.76164 0.49707,0.005 1.61585,-0.22084 0.76185,0.43635 -1.30389,1.52362 -2.28415,3.48696 -1.98617,5.54375 0.22681,2.64503 2.30265,5.01767 4.94861,5.44576 1.69569,0.26419 3.41247,-0.0226 5.11875,0.0795 7.62358,-2.3e-4 15.24955,-0.0341 22.87149,0.0553 1.63227,1.3067 3.87237,1.67208 5.87109,1.1211 2.70045,0.74686 5.42358,-0.62213 7.45703,-2.32227 2.28143,-1.88888 4.14234,-4.59488 4.22623,-7.64263 0.0589,-1.27901 0.13832,-2.56105 0.4838,-3.79773 0.13626,-0.65386 0.1662,-1.36469 0.32318,-1.98933 1.3397,-0.36549 2.67475,-0.77946 3.95031,-1.31118 1.55777,-0.28508 3.12078,-0.54285 4.68055,-0.81772 -0.17494,-0.65471 -0.22005,-1.23667 0.59813,-1.33492 3.40076,-1.52446 6.67517,-3.32256 9.88038,-5.21391 0.40786,0.18647 1.28732,-0.16242 1.37061,0.26836 -0.0267,3.24502 0.12552,6.50543 -0.15201,9.73947 -0.83581,4.52782 -1.23954,9.12016 -1.84555,13.68162 3.44509,-1.59084 6.93028,-3.09489 10.40625,-4.61328 0.64604,-0.30937 1.1923,-0.85661 1.84219,-1.11323 2.43699,0.0298 4.8994,-0.0543 7.32063,0.0463 0.90947,0.54067 2.04689,0.3634 2.92702,0.92632 1.4062,0.69051 3.04123,0.76581 4.54841,0.49209 2.9,0.67509 5.84393,1.21115 8.64139,2.25842 2.6297,0.81487 5.67067,0.88186 8.07387,-0.6216 -0.11914,0.83659 -0.23828,1.67318 -0.35742,2.50977 2.32092,-0.37409 4.63896,-0.80377 6.95703,-1.16992 0.61447,0.90026 1.78975,1.16524 2.80079,0.92187 1.22663,0.0956 2.49324,-0.41382 3.15355,-1.4839 1.08794,-1.44426 1.78192,-3.13743 2.73107,-4.67118 0.63659,-1.28784 1.50569,-2.43571 2.2489,-3.65385 0.28178,-0.55758 0.4952,-1.15119 0.62233,-1.76334 2.40018,1.50037 4.7764,3.0693 6.97657,4.84766 0.76192,0.89013 1.57643,1.75424 2.59179,2.35352 1.61517,2.11983 3.30172,4.19009 4.96485,6.27539 3.00518,-0.58468 6.19297,-1.24451 8.52763,-3.37589 2.81745,-2.11417 4.30982,-6.17622 2.77379,-9.48229 -0.74697,-1.61695 -2.135,-2.79896 -3.14127,-4.24143 -1.30875,-1.47132 -3.0389,-2.48901 -4.35198,-3.95296 -1.36374,-1.18979 -2.87689,-2.18678 -4.35505,-3.22282 3.81223,-3.07896 7.92632,-6.0086 10.66676,-10.15189 0.74258,-1.16839 1.35147,-2.4425 1.50488,-3.83102 0.66537,-2.31478 0.19944,-4.91781 -1.34502,-6.78496 -1.22414,-1.5989 -2.9259,-2.76625 -4.81685,-3.43721 -1.56636,-0.65544 -3.05127,-1.51031 -4.71479,-1.91665 -1.04602,-0.3723 -2.11324,-0.63132 -3.20883,-0.80311 -2.2031,-0.57053 -4.45444,-0.88791 -6.71829,-1.09446 -4.90457,-0.57204 -9.81778,-1.10752 -14.7077,-1.78148 -0.69539,-0.30222 -1.08048,-1.04427 -1.68555,-1.49024 -1.82727,-1.73294 -3.97542,-3.61642 -6.65625,-3.54102 -1.10152,0.0537 -2.10818,0.55089 -3.15658,0.84765 -1.76245,0.66629 -3.36426,1.80522 -4.486,3.32814 -3.79709,-0.44744 -7.61638,-0.74191 -11.41014,-1.18398 -2.64108,-0.6761 -5.37032,-0.96321 -7.96733,-1.81996 -3.81587,-1.02751 -7.49883,-2.4753 -11.11276,-4.06052 -2.81055,-1.02475 -6.02782,-0.15599 -8.22027,1.79807 -2.203,1.87966 -3.78951,4.73473 -3.61762,7.68436 0.38232,0.8187 -0.37726,0.48645 -0.86952,0.43399 -5.86557,-0.94469 -11.83657,-1.42918 -17.5636,-3.08367 -1.65187,-0.53109 -3.26967,-1.26152 -4.68407,-2.2722 -1.62825,-1.69308 -3.02435,-3.85451 -5.36133,-4.64258 -1.79393,-0.60816 -3.7252,0.10743 -5.34375,0.90235 -1.21741,0.74176 -2.38699,1.58544 -3.48907,2.47931 -0.57095,0.83672 -0.28534,-0.40727 -0.35161,-0.8297 -0.002,-2.55704 -0.003,-5.11407 -0.005,-7.6711 -2.91197,0.8965 -5.89196,1.59376 -8.76758,2.58984 -1.62934,0.84399 -2.70535,2.39076 -4.08789,3.55079 -0.82472,0.74223 -1.50971,1.67079 -1.80469,2.74609 -0.88791,1.18038 -0.69461,2.72387 -0.93002,4.10239 -0.38367,3.90561 -0.38208,7.83879 -0.90769,11.73235 -0.43615,4.23113 -1.11629,8.52839 -2.97479,12.39573 -0.26913,0.6669 -0.59404,0.92514 -0.97124,0.16474 -0.89967,-1.15579 -1.00168,-2.66023 -1.48603,-4.00169 -0.24496,-1.18644 -0.0145,-2.41501 -0.0845,-3.62124 -0.0159,-3.3552 0.0388,-6.72348 -0.0321,-10.07052 -0.82053,-3.30883 -4.28847,-5.87962 -7.71912,-5.21153 -0.59498,0.0959 -1.1774,0.26693 -1.72656,0.51563 0.009,-6.11263 0.005,-12.22526 0.006,-18.33789 -3.05079,1.62689 -6.17285,3.12481 -9.18451,4.8208 -1.83919,1.09869 -3.32338,2.72908 -4.50689,4.49561 -1.06496,1.61691 -1.38643,3.58706 -1.23942,5.49132 0.0404,2.9884 0.0134,5.97714 0.0168,8.96571 -2.08777,0.35101 -4.1662,0.75303 -6.24805,1.13671 -0.002,-2.6582 -0.0122,-5.31651 0.0176,-7.9746 1.10415,-1.23722 1.93502,-2.71962 2.24436,-4.35809 1.26845,-4.25639 2.53646,-8.51292 3.80642,-12.76887 -1.41862,0.77214 -2.83724,1.54427 -4.25586,2.31641 z m 50.66211,20.86328 c 1.45921,1.49955 3.05313,2.95002 3.89871,4.90997 0.85671,1.48894 1.37435,3.13366 1.88193,4.76844 0.846,2.08477 1.40022,4.27626 1.97488,6.44602 0.27344,1.31411 0.55827,2.62616 0.79331,3.94784 -1.65339,1.59681 -3.32804,3.51751 -3.38672,5.94336 -0.0847,1.46706 0.34614,2.96069 1.21094,4.15039 -1.76429,-0.0969 -3.62499,-0.0595 -5.29688,-0.20313 -0.77753,-5.8797 -1.60614,-11.79092 -1.41132,-17.73867 -0.007,-4.14207 -0.0236,-8.38249 0.14179,-12.44688 0.0645,0.0742 0.12891,0.14844 0.19336,0.22266 z m 80.78516,4.22852 c 1.06158,0.99617 2.40106,1.64895 3.53906,2.51953 0.40281,1.16695 0.74725,2.35607 1.29885,3.46879 0.6516,1.50825 1.31944,3.02023 1.65145,4.6342 0.38136,1.05209 0.63919,2.1339 0.66953,3.25526 0.22645,1.55894 0.53382,3.11456 0.82648,4.65633 -0.12116,0.57411 -5e-4,1.28818 -0.53144,1.71057 -0.95645,1.21598 -1.89879,2.51845 -2.24495,4.05414 -1.14513,-0.51103 -2.30354,-1.02017 -3.21581,-1.90471 -2.10756,-1.67748 -4.40783,-3.32226 -5.61721,-5.81248 -0.61232,-0.89608 -0.80523,-1.95939 -1.17669,-2.95411 -0.69423,-1.77479 -2.28591,-3.12292 -4.12505,-3.58651 0.45713,-1.97252 0.77569,-3.97487 1.27343,-5.93945 -1.87673,-0.42363 -3.74104,-0.90509 -5.6289,-1.27735 1.5378,0.12659 3.07842,0.21508 4.61523,0.35547 0.39929,0.0359 1.18969,0.12736 1.73648,0.20206 2.73426,0.27933 5.27533,-1.36247 6.92954,-3.38174 z m -18.82227,2.13085 c 0.96416,0.15919 -0.4561,0.0178 -0.80089,0.008 -0.60117,0.23031 -1.38527,-0.52596 -0.4054,-0.26518 0.4021,0.0857 0.80419,0.1714 1.20629,0.2571 z m -38.58008,2.98243 c 4.47016,0.87384 9.02887,1.10788 13.51954,1.83789 0.22961,0.12375 1.43006,0.10607 0.89062,0.3789 -1.98092,1.09823 -3.98793,2.15691 -6.04255,3.10455 -2.37616,0.96872 -4.807,1.80583 -7.28557,2.47163 -0.48706,-2.65868 -1.13636,-5.28365 -1.7461,-7.91602 0.22136,0.041 0.44271,0.082 0.66406,0.12305 z m 79.44141,0.20898 c 0.97207,0.47989 2.11686,0.25607 3.06055,0.7793 1.49482,0.61092 3.12897,0.34872 4.68344,0.55142 1.12288,0.19266 2.22903,0.51294 3.25601,1.01108 -1.93118,1.61447 -3.85972,3.24167 -6.01353,4.55623 -0.3996,0.2725 -0.86023,0.70813 -1.31459,0.52775 -0.7208,-0.0638 -1.49023,-0.0727 -2.18164,-0.17187 -0.41519,-1.96993 -1.04287,-4.03572 -1.42969,-5.91602 0.0659,-0.36246 -0.57638,-1.33755 -0.0973,-1.34032 z m -41.33398,12.42578 c 0.26819,0.18935 -0.12115,0.88709 -0.0475,1.27362 -0.0461,0.59075 -0.0407,1.18472 0.005,1.77521 -0.77842,0.28855 -0.45452,-0.59134 -0.51563,-1.0668 0,-0.68541 0,-1.37083 0,-2.05625 0.1862,0.0247 0.3724,0.0495 0.5586,0.0742 z m 30.44531,14.20117 c -0.42876,0.50702 -0.86799,0.97965 -1.56034,0.62096 -0.48522,-0.0289 -1.4259,-0.27888 -1.37483,-0.6644 0.97839,0.0145 1.95678,0.029 2.93517,0.0434 z" />
    <text
       xml:space="preserve"
       style="font-style:normal;font-variant:normal;font-weight:normal;font-stretch:normal;font-size:85.3333px;font-family:'a dripping marker';-inkscape-font-specification:'a dripping marker';text-align:start;writing-mode:lr-tb;direction:ltr;text-anchor:start;fill:#000000"
       x="158.91225"
       y="275.48944"
       id="text1"><tspan
         sodipodi:role="line"
         id="tspan1"
         x="158.91225"
         y="275.48944"
         style="font-size:85.3333px">HYPER</tspan></text>
  </g>
</svg>
