<?xml version="1.0" encoding="UTF-8" standalone="no"?>
<!-- Created with Inkscape (http://www.inkscape.org/) -->

<svg
   width="465.54181"
   height="183.97404"
   viewBox="0 0 465.54181 183.97405"
   version="1.1"
   id="svg1"
   inkscape:version="1.4 (e7c3feb100, 2024-10-09)"
   sodipodi:docname="logo.svg"
   inkscape:export-filename="logo.png"
   inkscape:export-xdpi="211.16042"
   inkscape:export-ydpi="211.16042"
   xml:space="preserve"
   xmlns:inkscape="http://www.inkscape.org/namespaces/inkscape"
   xmlns:sodipodi="http://sodipodi.sourceforge.net/DTD/sodipodi-0.dtd"
   xmlns="http://www.w3.org/2000/svg"
   xmlns:svg="http://www.w3.org/2000/svg"><sodipodi:namedview
     id="namedview1"
     pagecolor="#ffffff"
     bordercolor="#000000"
     borderopacity="0.25"
     inkscape:showpageshadow="2"
     inkscape:pageopacity="0.0"
     inkscape:pagecheckerboard="0"
     inkscape:deskcolor="#d1d1d1"
     inkscape:document-units="mm"
     inkscape:zoom="0.9136506"
     inkscape:cx="151.58968"
     inkscape:cy="142.8336"
     inkscape:window-width="1440"
     inkscape:window-height="888"
     inkscape:window-x="0"
     inkscape:window-y="0"
     inkscape:window-maximized="1"
     inkscape:current-layer="layer1" /><defs
     id="defs1" /><g
     inkscape:label="Layer 1"
     inkscape:groupmode="layer"
     id="layer1"
     transform="translate(-76.954759,-94.97758)"><g
       inkscape:label="Layer 1"
       id="layer1-5"
       transform="translate(-60.637624,-114.72066)"><path
         id="text3-3"
         style="font-style:normal;font-variant:normal;font-weight:normal;font-stretch:normal;font-size:85.3333px;font-family:'a dripping marker';-inkscape-font-specification:'a dripping marker';text-align:start;writing-mode:lr-tb;direction:ltr;text-anchor:start;fill:#ff0000"
         d="m 172.32031,215.16797 c -3.35321,1.87437 -6.81069,3.56027 -10.1556,5.44637 -2.0583,1.23259 -3.60252,3.16537 -4.58629,5.33449 -1.0971,1.99242 -1.88194,4.15864 -2.10708,6.43191 -0.43233,3.65614 -0.10363,7.34376 -0.23188,11.01379 0.0459,5.92013 1.11969,11.76201 1.7119,17.63848 0.50332,4.04712 0.89592,8.11389 1.59578,12.13279 0.3522,1.99602 0.71251,3.99055 1.10716,5.97873 0.49663,0.13201 1.03288,0.20325 1.23242,0.74609 1.25277,1.55357 3.29818,2.21586 5.2488,2.10599 1.32118,-10e-4 2.49623,-0.83591 3.49397,-1.63524 1.0951,-0.99731 2.14473,-2.09414 2.94687,-3.33792 0.88779,-1.44899 2.0035,-2.97818 1.78302,-4.77452 -0.0773,-2.74807 -1.15049,-5.35078 -1.27399,-8.09432 -0.44186,-2.94683 -0.82076,-5.90181 -1.11725,-8.86657 -0.12283,-0.91984 -0.26366,-1.83733 -0.37439,-2.75874 1.17965,-0.46326 2.46217,-0.20222 3.70156,-0.26806 0.46466,0.15183 1.53924,-0.3445 1.54765,0.2922 0.18765,3.87272 0.13835,7.84663 0.32626,11.78918 0.17316,3.82224 0.33367,7.65252 0.76524,11.45498 0.2231,2.20166 0.97266,4.51426 2.83116,5.87428 2.65998,2.14066 7.02107,1.8549 9.16602,-0.88477 1.12784,-1.38972 1.69131,-3.12312 2.62339,-4.63147 1.05323,-2.27324 2.25693,-4.47336 3.37661,-6.71423 0.70267,0.2775 1.26882,0.98026 2.0843,0.76164 0.49707,0.005 1.61585,-0.22084 0.76185,0.43635 -1.30389,1.52362 -2.28415,3.48696 -1.98617,5.54375 0.22681,2.64503 2.30265,5.01767 4.94861,5.44576 1.69569,0.26419 3.41247,-0.0226 5.11875,0.0795 7.62358,-2.3e-4 15.24955,-0.0341 22.87149,0.0553 1.63227,1.3067 3.87237,1.67208 5.87109,1.1211 2.70045,0.74686 5.42358,-0.62213 7.45703,-2.32227 2.28143,-1.88888 4.14234,-4.59488 4.22623,-7.64263 0.0589,-1.27901 0.13832,-2.56105 0.4838,-3.79773 0.13626,-0.65386 0.1662,-1.36469 0.32318,-1.98933 1.3397,-0.36549 2.67475,-0.77946 3.95031,-1.31118 1.55777,-0.28508 3.12078,-0.54285 4.68055,-0.81772 -0.17494,-0.65471 -0.22005,-1.23667 0.59813,-1.33492 3.40076,-1.52446 6.67517,-3.32256 9.88038,-5.21391 0.40786,0.18647 1.28732,-0.16242 1.37061,0.26836 -0.0267,3.24502 0.12552,6.50543 -0.15201,9.73947 -0.83581,4.52782 -1.23954,9.12016 -1.84555,13.68162 3.44509,-1.59084 6.93028,-3.09489 10.40625,-4.61328 0.64604,-0.30937 1.1923,-0.85661 1.84219,-1.11323 2.43699,0.0298 4.8994,-0.0543 7.32063,0.0463 0.90947,0.54067 2.04689,0.3634 2.92702,0.92632 1.4062,0.69051 3.04123,0.76581 4.54841,0.49209 2.9,0.67509 5.84393,1.21115 8.64139,2.25842 2.6297,0.81487 5.67067,0.88186 8.07387,-0.6216 -0.11914,0.83659 -0.23828,1.67318 -0.35742,2.50977 2.32092,-0.37409 4.63896,-0.80377 6.95703,-1.16992 0.61447,0.90026 1.78975,1.16524 2.80079,0.92187 1.22663,0.0956 2.49324,-0.41382 3.15355,-1.4839 1.08794,-1.44426 1.78192,-3.13743 2.73107,-4.67118 0.63659,-1.28784 1.50569,-2.43571 2.2489,-3.65385 0.28178,-0.55758 0.4952,-1.15119 0.62233,-1.76334 2.40018,1.50037 4.7764,3.0693 6.97657,4.84766 0.76192,0.89013 1.57643,1.75424 2.59179,2.35352 1.61517,2.11983 3.30172,4.19009 4.96485,6.27539 3.00518,-0.58468 6.19297,-1.24451 8.52763,-3.37589 2.81745,-2.11417 4.30982,-6.17622 2.77379,-9.48229 -0.74697,-1.61695 -2.135,-2.79896 -3.14127,-4.24143 -1.30875,-1.47132 -3.0389,-2.48901 -4.35198,-3.95296 -1.36374,-1.18979 -2.87689,-2.18678 -4.35505,-3.22282 3.81223,-3.07896 7.92632,-6.0086 10.66676,-10.15189 0.74258,-1.16839 1.35147,-2.4425 1.50488,-3.83102 0.66537,-2.31478 0.19944,-4.91781 -1.34502,-6.78496 -1.22414,-1.5989 -2.9259,-2.76625 -4.81685,-3.43721 -1.56636,-0.65544 -3.05127,-1.51031 -4.71479,-1.91665 -1.04602,-0.3723 -2.11324,-0.63132 -3.20883,-0.80311 -2.2031,-0.57053 -4.45444,-0.88791 -6.71829,-1.09446 -4.90457,-0.57204 -9.81778,-1.10752 -14.7077,-1.78148 -0.69539,-0.30222 -1.08048,-1.04427 -1.68555,-1.49024 -1.82727,-1.73294 -3.97542,-3.61642 -6.65625,-3.54102 -1.10152,0.0537 -2.10818,0.55089 -3.15658,0.84765 -1.76245,0.66629 -3.36426,1.80522 -4.486,3.32814 -3.79709,-0.44744 -7.61638,-0.74191 -11.41014,-1.18398 -2.64108,-0.6761 -5.37032,-0.96321 -7.96733,-1.81996 -3.81587,-1.02751 -7.49883,-2.4753 -11.11276,-4.06052 -2.81055,-1.02475 -6.02782,-0.15599 -8.22027,1.79807 -2.203,1.87966 -3.78951,4.73473 -3.61762,7.68436 0.38232,0.8187 -0.37726,0.48645 -0.86952,0.43399 -5.86557,-0.94469 -11.83657,-1.42918 -17.5636,-3.08367 -1.65187,-0.53109 -3.26967,-1.26152 -4.68407,-2.2722 -1.62825,-1.69308 -3.02435,-3.85451 -5.36133,-4.64258 -1.79393,-0.60816 -3.7252,0.10743 -5.34375,0.90235 -1.21741,0.74176 -2.38699,1.58544 -3.48907,2.47931 -0.57095,0.83672 -0.28534,-0.40727 -0.35161,-0.8297 -0.002,-2.55704 -0.003,-5.11407 -0.005,-7.6711 -2.91197,0.8965 -5.89196,1.59376 -8.76758,2.58984 -1.62934,0.84399 -2.70535,2.39076 -4.08789,3.55079 -0.82472,0.74223 -1.50971,1.67079 -1.80469,2.74609 -0.88791,1.18038 -0.69461,2.72387 -0.93002,4.10239 -0.38367,3.90561 -0.38208,7.83879 -0.90769,11.73235 -0.43615,4.23113 -1.11629,8.52839 -2.97479,12.39573 -0.26913,0.6669 -0.59404,0.92514 -0.97124,0.16474 -0.89967,-1.15579 -1.00168,-2.66023 -1.48603,-4.00169 -0.24496,-1.18644 -0.0145,-2.41501 -0.0845,-3.62124 -0.0159,-3.3552 0.0388,-6.72348 -0.0321,-10.07052 -0.82053,-3.30883 -4.28847,-5.87962 -7.71912,-5.21153 -0.59498,0.0959 -1.1774,0.26693 -1.72656,0.51563 0.009,-6.11263 0.005,-12.22526 0.006,-18.33789 -3.05079,1.62689 -6.17285,3.12481 -9.18451,4.8208 -1.83919,1.09869 -3.32338,2.72908 -4.50689,4.49561 -1.06496,1.61691 -1.38643,3.58706 -1.23942,5.49132 0.0404,2.9884 0.0134,5.97714 0.0168,8.96571 -2.08777,0.35101 -4.1662,0.75303 -6.24805,1.13671 -0.002,-2.6582 -0.0122,-5.31651 0.0176,-7.9746 1.10415,-1.23722 1.93502,-2.71962 2.24436,-4.35809 1.26845,-4.25639 2.53646,-8.51292 3.80642,-12.76887 -1.41862,0.77214 -2.83724,1.54427 -4.25586,2.31641 z m 50.66211,20.86328 c 1.45921,1.49955 3.05313,2.95002 3.89871,4.90997 0.85671,1.48894 1.37435,3.13366 1.88193,4.76844 0.846,2.08477 1.40022,4.27626 1.97488,6.44602 0.27344,1.31411 0.55827,2.62616 0.79331,3.94784 -1.65339,1.59681 -3.32804,3.51751 -3.38672,5.94336 -0.0847,1.46706 0.34614,2.96069 1.21094,4.15039 -1.76429,-0.0969 -3.62499,-0.0595 -5.29688,-0.20313 -0.77753,-5.8797 -1.60614,-11.79092 -1.41132,-17.73867 -0.007,-4.14207 -0.0236,-8.38249 0.14179,-12.44688 0.0645,0.0742 0.12891,0.14844 0.19336,0.22266 z m 80.78516,4.22852 c 1.06158,0.99617 2.40106,1.64895 3.53906,2.51953 0.40281,1.16695 0.74725,2.35607 1.29885,3.46879 0.6516,1.50825 1.31944,3.02023 1.65145,4.6342 0.38136,1.05209 0.63919,2.1339 0.66953,3.25526 0.22645,1.55894 0.53382,3.11456 0.82648,4.65633 -0.12116,0.57411 -5e-4,1.28818 -0.53144,1.71057 -0.95645,1.21598 -1.89879,2.51845 -2.24495,4.05414 -1.14513,-0.51103 -2.30354,-1.02017 -3.21581,-1.90471 -2.10756,-1.67748 -4.40783,-3.32226 -5.61721,-5.81248 -0.61232,-0.89608 -0.80523,-1.95939 -1.17669,-2.95411 -0.69423,-1.77479 -2.28591,-3.12292 -4.12505,-3.58651 0.45713,-1.97252 0.77569,-3.97487 1.27343,-5.93945 -1.87673,-0.42363 -3.74104,-0.90509 -5.6289,-1.27735 1.5378,0.12659 3.07842,0.21508 4.61523,0.35547 0.39929,0.0359 1.18969,0.12736 1.73648,0.20206 2.73426,0.27933 5.27533,-1.36247 6.92954,-3.38174 z m -18.82227,2.13085 c 0.96416,0.15919 -0.4561,0.0178 -0.80089,0.008 -0.60117,0.23031 -1.38527,-0.52596 -0.4054,-0.26518 0.4021,0.0857 0.80419,0.1714 1.20629,0.2571 z m -38.58008,2.98243 c 4.47016,0.87384 9.02887,1.10788 13.51954,1.83789 0.22961,0.12375 1.43006,0.10607 0.89062,0.3789 -1.98092,1.09823 -3.98793,2.15691 -6.04255,3.10455 -2.37616,0.96872 -4.807,1.80583 -7.28557,2.47163 -0.48706,-2.65868 -1.13636,-5.28365 -1.7461,-7.91602 0.22136,0.041 0.44271,0.082 0.66406,0.12305 z m 79.44141,0.20898 c 0.97207,0.47989 2.11686,0.25607 3.06055,0.7793 1.49482,0.61092 3.12897,0.34872 4.68344,0.55142 1.12288,0.19266 2.22903,0.51294 3.25601,1.01108 -1.93118,1.61447 -3.85972,3.24167 -6.01353,4.55623 -0.3996,0.2725 -0.86023,0.70813 -1.31459,0.52775 -0.7208,-0.0638 -1.49023,-0.0727 -2.18164,-0.17187 -0.41519,-1.96993 -1.04287,-4.03572 -1.42969,-5.91602 0.0659,-0.36246 -0.57638,-1.33755 -0.0973,-1.34032 z m -41.33398,12.42578 c 0.26819,0.18935 -0.12115,0.88709 -0.0475,1.27362 -0.0461,0.59075 -0.0407,1.18472 0.005,1.77521 -0.77842,0.28855 -0.45452,-0.59134 -0.51563,-1.0668 0,-0.68541 0,-1.37083 0,-2.05625 0.1862,0.0247 0.3724,0.0495 0.5586,0.0742 z m 30.44531,14.20117 c -0.42876,0.50702 -0.86799,0.97965 -1.56034,0.62096 -0.48522,-0.0289 -1.4259,-0.27888 -1.37483,-0.6644 0.97839,0.0145 1.95678,0.029 2.93517,0.0434 z" /><text
         xml:space="preserve"
         style="font-style:normal;font-variant:normal;font-weight:normal;font-stretch:normal;font-size:85.3333px;font-family:'a dripping marker';-inkscape-font-specification:'a dripping marker';text-align:start;writing-mode:lr-tb;direction:ltr;text-anchor:start;fill:#00ff00"
         x="158.91225"
         y="275.48944"
         id="text1-5"><tspan
           sodipodi:role="line"
           id="tspan1-6"
           x="158.91225"
           y="275.48944"
           style="font-size:85.3333px;fill:#00ff00">HYPER</tspan></text></g><g
       inkscape:label="Layer 1"
       id="layer1-2"
       transform="translate(137.70666,-119.33494)"><path
         id="text3-7"
         style="font-style:normal;font-variant:normal;font-weight:normal;font-stretch:normal;font-size:85.3333px;font-family:'a dripping marker';-inkscape-font-specification:'a dripping marker';text-align:start;writing-mode:lr-tb;direction:ltr;text-anchor:start;fill:#00ffff"
         d="m 180.72461,214.31445 c -0.81185,0.0147 -1.63431,-0.0149 -2.37109,0.37696 -0.99946,0.17742 -1.83907,0.75301 -2.53516,1.46093 -1.81615,1.36529 -3.17551,3.22331 -4.71484,4.875 -0.89841,1.92816 -2.21101,3.62302 -3.16797,5.51368 -0.74989,2.6646 -3.03459,4.46703 -4.34514,6.83304 -0.97814,1.77315 -1.55267,3.73465 -2.39308,5.57473 -0.83254,1.93832 -1.60554,3.91074 -2.71882,5.70878 -0.92495,1.75428 -1.33044,3.7177 -2.0631,5.55317 -0.50962,1.22384 -0.82607,2.49877 -0.99159,3.81215 -0.16406,1.25818 -0.12591,2.54521 -0.007,3.80391 0.14868,0.71373 0.45974,1.36541 0.55575,2.09117 0.21666,0.90026 0.97748,1.5432 1.80468,1.8457 0.97715,0.8223 2.16609,1.4184 3.44532,1.56836 0.0404,1.69629 -0.0996,3.41056 0.12304,5.09375 0.29441,1.25348 0.83986,2.43337 1.30469,3.62695 0.49799,0.8964 1.11871,1.73276 1.57817,2.64134 1.24204,1.17072 2.42026,2.47519 4.02737,3.14546 1.13125,0.64657 2.3931,1.00211 3.6718,1.21125 0.30539,2.16601 0.61138,4.33193 0.91602,6.49805 0.62174,0 1.24349,0 1.86523,0 0.18729,2.69791 0.31505,5.49666 1.41602,8.00586 1.93479,3.6401 3.79907,7.3202 5.70508,10.97656 0.74676,-5.35595 1.60849,-10.69928 2.24414,-16.06836 0.005,-3.25083 0.0633,-6.50956 -0.26025,-9.74757 -0.008,-0.68164 -0.0658,-1.36136 -0.10694,-2.04149 1.90004,-1.00459 3.61808,-2.31135 5.26563,-3.6836 0.28173,1.61778 0.69688,3.21115 1.18554,4.77344 0.57969,1.50868 2.01067,2.50435 3.56534,2.80154 1.43834,0.42116 2.96959,0.17713 4.29764,-0.47316 1.83562,-0.72305 3.42965,-2.02505 4.66241,-3.55494 0.42354,-0.83795 0.38921,-0.17264 0.41051,0.36023 0.22673,2.56109 0.0943,5.18917 0.83052,7.67522 0.26248,0.97504 1.25692,1.48451 1.8681,2.23774 1.46688,1.46688 2.93376,2.93376 4.40064,4.40064 0.79099,-3.2822 1.7522,-6.52274 2.46875,-9.82227 0,-2.54752 0,-5.09505 0,-7.64258 1.02718,1.81786 2.46743,3.34712 3.59209,5.1023 1.58564,2.41628 3.72485,4.38559 5.60127,6.56567 0.97809,1.01838 2.25595,1.68333 3.20312,2.72656 1.34729,0.94793 3.04093,1.36068 4.67363,1.13364 1.49453,-0.12977 2.97571,-0.63751 4.0623,-1.70507 1.16065,-1.04241 2.32406,-2.11 3.31876,-3.30747 0.41312,-0.47001 0.39567,-1.12525 0.64258,-1.65234 0.61527,1.54881 1.23046,3.09765 1.8457,4.64648 1.44325,-2.84627 2.98405,-5.65093 4.36746,-8.52264 0.57771,-1.36271 0.67704,-2.84599 1.03726,-4.26291 0.24327,-0.21713 0.0662,-1.51996 0.27554,-0.95894 0.87714,2.16536 1.57862,4.41604 2.66025,6.4903 0.32718,0.54961 0.6834,1.10911 0.57746,1.77763 0.10192,1.10026 0.43145,2.17206 0.76758,3.21093 0.58001,1.20875 1.96757,1.61401 2.92187,2.45508 1.01596,0.77795 2.31123,1.07717 3.56874,0.91181 1.18227,0.0779 2.37424,-0.0311 3.4879,-0.43134 1.53225,-0.35779 2.30386,-1.8846 3.4367,-2.8343 0.59355,-0.55273 1.26854,-1.05382 1.47144,-1.88163 0.22917,-0.75517 0.61305,-1.42909 1.23054,-1.93446 -0.0782,-1.63622 0.15757,-3.32995 -0.18432,-4.92621 -1.56169,-1.87801 -1.87465,-4.38408 -2.75957,-6.59023 -0.5751,-1.65544 -1.02229,-3.37295 -1.74077,-4.96805 -0.69431,-1.27341 -1.4886,-2.5498 -1.87641,-3.9456 -0.13078,-0.89085 0.16568,-1.7748 0.29302,-2.61982 -0.34427,-1.23237 -0.87322,-2.52226 -2.03664,-3.19228 -0.43212,-0.4758 -1.03796,-0.77831 -1.61523,-0.97461 -1.60395,-4.27597 -3.13092,-8.59632 -4.2814,-13.018 -0.32155,-1.75026 -0.28377,-3.54227 -0.40025,-5.31403 1.75006,0.4233 3.47733,0.94344 5.27064,1.17174 2.33213,0.25764 4.69145,0.29137 7.03479,0.44396 0.51626,0.0429 0.16005,0.98479 0.30816,1.41085 0.305,6.14638 1.12612,12.25371 1.92938,18.35041 0.48237,2.97217 0.92839,5.95364 1.36524,8.93359 0.16074,2.13817 0.88893,4.16215 1.33638,6.24606 0.50366,1.83927 0.94269,3.74467 2.05966,5.32941 0.31365,0.56195 0.63336,1.10826 1.20552,1.4343 0.81761,0.87199 2.02032,1.32709 3.20508,1.11132 1.51356,0.0933 3.08753,0.0459 4.45007,-0.69584 0.97389,-0.48922 1.68047,-1.35015 2.60657,-1.91353 1.11267,-0.9274 1.83758,-2.20366 2.80469,-3.26563 0.1777,-1.0345 0.77073,-1.96026 0.78515,-3.03125 0.17322,-0.0301 0.43244,0.0337 0.57045,-0.81251 0.46052,-0.88616 -0.15153,-0.39159 -0.10811,-1.28837 -0.0962,-0.77236 -0.19234,-1.54472 -0.28851,-2.31709 0.40902,0.17647 1.05925,1.18245 1.31496,0.83167 0.42242,-1.29425 0.86502,-2.5816 1.29637,-3.87268 -0.042,1.94032 0.14058,3.9096 -0.36841,5.80525 -0.33304,1.64816 -0.61962,3.31597 -0.47523,5.00411 0.0721,0.64523 -0.30974,1.45938 0.39231,1.84389 0.9624,0.83753 1.75237,2.16103 3.14956,2.22494 1.06046,0.27106 2.3361,0.31801 3.42677,-0.11257 0.89528,-0.28368 1.6988,-0.81061 2.58788,-1.0892 0.67317,-0.38994 1.18859,-1.25684 2.06407,-1.05142 1.2293,0 2.4586,0 3.68789,0 0.12608,4.15635 0.3272,8.32125 0.94125,12.43446 0.29176,1.66168 1.32215,3.13596 2.75241,4.01993 1.31795,1.05075 2.63639,2.10088 3.95478,3.15108 0.80842,-3.12587 1.61738,-6.25159 2.42773,-9.37696 -0.29021,-0.12976 0.40214,-1.0736 0.501,-1.52573 0.45295,-1.16654 1.01712,-2.27414 1.5569,-3.39627 0.41716,-1.06045 0.66489,-2.17991 0.82101,-3.30651 2.14529,0.46113 4.27361,0.99236 6.33453,1.74952 1.45399,0.49026 2.98699,0.62192 4.51224,0.50015 1.16423,0.12976 2.23508,-0.43387 3.25268,-0.88656 1.48428,-1.0461 2.62809,-2.48578 3.84636,-3.81341 1.05881,-1.23696 1.6368,-2.86843 1.46517,-4.4985 0.12322,-1.47278 -0.28365,-3.05593 -1.47934,-4.01019 -2.00461,-1.90348 -4.75173,-2.63581 -7.1062,-3.96824 -1.5849,-1.26061 -3.23245,-2.46353 -4.66528,-3.90285 0.76788,-0.16004 0.72559,-0.82599 0.72228,-1.4676 0.31614,-6.01502 0.60304,-12.02611 0.94959,-18.01482 1.17455,-1.44359 2.55282,-2.98996 2.69727,-4.92227 0,-1.28307 0,-2.56614 0,-3.84922 -0.96294,-0.85202 -1.74083,-1.99296 -2.91204,-2.55457 -3.87108,-0.38207 -7.7381,-0.81775 -11.61336,-1.1448 -0.73568,-0.0738 -1.31418,-0.65246 -2.08202,-0.50961 -1.06506,-0.19697 -2.12073,-0.45598 -3.19727,-0.56836 -1.14284,-0.28461 -2.26538,-0.6451 -3.40625,-0.9375 0,-1.01693 0,-2.03385 0,-3.05078 -0.89995,-0.13591 -1.86186,-0.0802 -2.72461,-0.33984 -0.63694,-0.55763 -1.57723,-0.36554 -2.36523,-0.48829 -1.88181,-0.0465 -3.77856,0.0781 -5.65039,-0.0488 -1.25269,-0.68476 -2.75344,-0.43331 -4.10163,-0.43864 -0.684,0.37174 -1.39643,0.71387 -2.1963,0.61909 -2.90425,0.1371 -5.81108,0.26338 -8.7177,0.30197 -0.65491,-0.94292 -1.85164,-1.19004 -2.92342,-1.0262 -1.0982,0.003 -2.24873,-0.0894 -3.30497,0.19172 -0.54117,0.343 -1.01613,1.00614 -1.73137,0.82834 -2.90353,0.0507 -5.81013,-0.21658 -8.68466,-0.5786 -0.7687,-0.0998 -0.99624,-0.97007 -1.64855,-1.30784 -1.09146,-0.8379 -2.49846,-0.92738 -3.81751,-0.85019 -1.53411,-0.0956 -3.18074,0.17115 -4.3485,1.24472 -0.81134,-0.74077 -1.52431,-1.77535 -2.60038,-2.08856 -2.14893,-0.0936 -4.49938,0.001 -6.2601,1.39341 -1.19265,0.66723 -2.3255,1.50136 -2.99716,2.72135 -0.98439,1.35797 -1.75895,2.87476 -2.40206,4.42155 -0.31755,0.91448 -0.8861,1.77938 -0.76569,2.8003 0.0543,3.06581 -0.11442,6.1362 -0.17383,9.20312 -1.15039,4.46366 -2.58477,8.84522 -4.06446,13.20899 -0.13241,0.57854 -0.28426,1.15442 -0.50781,1.70508 -0.77824,0.12391 -1.57837,0.3282 -2.05237,1.0094 -1.3634,1.3634 -2.7268,2.7268 -4.09021,4.0902 -0.15207,0.60461 -0.29068,1.36171 -0.62039,0.35923 -1.63736,-3.02064 -3.13334,-6.11762 -4.77206,-9.13567 -0.36558,-0.71779 -1.01965,-1.21178 -1.54505,-1.80559 2.20259,-2.3578 4.43197,-4.73138 6.09262,-7.51651 1.06085,-1.64802 2.13411,-3.35186 2.70948,-5.23374 0.0587,-1.45889 0.19549,-2.96054 -0.1185,-4.39428 -0.54277,-1.85637 -2.39928,-3.03407 -4.26758,-3.16211 -1.25075,-0.17387 -2.47009,0.31654 -3.65973,0.63358 -1.9574,0.68661 -3.43212,2.20985 -4.9223,3.58322 -1.01989,1.10953 -2.04341,2.29798 -2.64844,3.68164 -0.21369,0.74885 -0.20064,1.55415 -0.83317,2.07569 -1.79489,1.74262 -3.49471,3.60447 -5.4371,5.1841 -0.90599,0.64981 -1.7252,1.41166 -2.62621,2.06834 -0.014,-5.52722 0.0408,-11.06074 -0.0411,-16.58397 -0.26302,-1.40808 -0.38366,-3.00657 -1.45301,-4.05471 -0.47348,-1.14163 -1.71195,-1.84481 -2.93592,-1.64387 -1.17029,0.0106 -2.40125,-0.10015 -3.52583,0.19403 -0.84934,0.83446 -2.10831,1.03282 -2.97575,1.84828 -0.23377,-2.144 -1.64127,-3.91874 -2.00222,-6.02775 -0.33276,-0.8469 -0.99389,-1.50161 -1.48242,-2.25152 -0.814,-0.93114 -1.75739,-1.73873 -2.5974,-2.64651 -1.39069,0.0148 -2.78119,-0.003 -4.17187,0.002 z m 123.47851,28.0625 c 0.95814,0.15501 -0.14995,0.0405 -0.51851,0.0268 -0.47085,0.17725 -1.67876,-0.38722 -0.68606,-0.2848 0.40152,0.086 0.80305,0.17201 1.20457,0.25801 z m -125.15429,0.58594 c 0.17692,1.32682 0.0916,2.68809 0.49805,3.97852 -2.03325,0.12225 -3.9866,0.80266 -6.02735,0.88281 -0.63215,0.11076 -1.27256,0.17032 -1.91406,0.18555 0.29769,-0.98226 0.72196,-1.89671 1.28125,-2.75391 0.28738,-0.26576 0.34296,-1.59173 0.76798,-0.85558 0.75632,0.84853 1.51016,1.69928 2.26522,2.54894 0.83985,-1.25977 1.67969,-2.51953 2.51953,-3.7793 0.39473,0.13566 0.63792,-0.82191 0.60938,-0.20703 z m 131.91992,0.21875 c 0.5661,-0.27496 1.18858,0.63066 0.46875,0.24024 -0.23984,-0.15205 -1.26469,-0.35536 -0.46875,-0.24024 z m -27.08594,5.50781 c 0.31723,0.19684 1.37361,1.0069 0.51195,1.03296 -0.74161,0.14722 -1.48322,0.29444 -2.22484,0.44165 0.17069,-0.52147 0.33554,-1.05296 0.50977,-1.56836 0.40292,-0.13024 0.81546,-0.0426 1.20312,0.0937 z m 19.76563,9.32617 c 0.68548,-0.0285 -0.0475,0.84954 0.10244,1.27556 -0.0464,0.58791 -0.0168,1.18098 0.0577,1.76546 -0.74494,0.24425 -0.48914,-0.56404 -0.52343,-1.0707 0,-0.67696 0,-1.35391 0,-2.03086 0.12109,0.0202 0.24218,0.0404 0.36328,0.0605 z m -123.8418,4.06641 c 0.58183,0.0157 1.17411,-0.0301 1.74414,0.11328 0.17403,0.81595 -0.71752,1.21526 -1.32422,1.50196 -0.90472,0.0834 -1.84169,0.003 -2.75976,0.0234 -0.39961,-0.43755 -0.89357,-0.87797 -0.89258,-1.51562 1.07641,-0.063 2.15365,-0.13063 3.23242,-0.12305 z" /><text
         xml:space="preserve"
         style="font-style:normal;font-variant:normal;font-weight:normal;font-stretch:normal;font-size:85.3333px;font-family:'a dripping marker';-inkscape-font-specification:'a dripping marker';text-align:start;writing-mode:lr-tb;direction:ltr;text-anchor:start;fill:#000000"
         x="158.91225"
         y="275.48944"
         id="text1-0"><tspan
           sodipodi:role="line"
           id="tspan1-9"
           x="158.91225"
           y="275.48944"
           style="font-size:85.3333px">SKATE</tspan></text></g><g
       id="g1"
       transform="translate(-78.257489,-63.591604)"><path
         id="text3"
         style="font-style:normal;font-variant:normal;font-weight:normal;font-stretch:normal;font-size:85.3333px;font-family:'a dripping marker';-inkscape-font-specification:'a dripping marker';text-align:start;writing-mode:lr-tb;direction:ltr;text-anchor:start;fill:#ff00ff"
         d="m 246.29297,220.95898 c -2.18471,-0.0609 -3.95998,1.42173 -5.44838,2.84929 -0.64856,0.65922 -1.55449,1.11435 -1.84459,2.06673 -0.43642,1.14703 -1.16516,2.20878 -1.21241,3.48043 -0.10151,2.24717 -0.0851,4.6239 1.00079,6.6619 0.61481,1.04354 1.29824,2.06728 1.47367,3.30766 0.67732,3.52344 1.61019,6.99367 2.27344,10.52163 0.1588,0.76413 0.30575,1.53064 0.45865,2.29596 -0.33298,0.20422 -0.83906,1.08009 -1.0242,0.76682 -2.09011,-7.08395 -4.20664,-14.11468 -6.18778,-21.23868 -0.42871,-1.4586 -0.83382,-2.98283 -1.65521,-4.26642 -1.05708,-1.38518 -2.56846,-2.77567 -4.44336,-2.5918 -1.12377,-0.10265 -2.22236,0.14327 -3.29297,0.43359 -0.87639,0.1233 -1.44795,0.84843 -2.03124,1.41993 -1.24561,0.88569 -2.36492,1.98607 -3.09044,3.34973 -0.89253,1.16551 -1.35621,2.61649 -1.26137,4.08656 0.0667,1.09291 -0.10555,2.19937 0.3007,3.24441 0.85459,3.1324 1.82838,6.23295 2.73196,9.35039 0.78751,2.43138 1.26368,4.94807 1.86782,7.42528 0.1663,1.24624 0.45536,2.48017 0.67789,3.70769 0.18926,1.80397 0.38808,3.60802 0.32786,5.42656 0.004,0.71264 5.2e-4,1.42526 -0.004,2.13789 -2.49719,-0.16094 -5.01163,-0.29617 -7.47365,-0.75629 -1.1731,-0.29023 -2.35099,-0.63454 -3.46385,-1.08746 -0.0565,-1.34064 -0.0622,-2.70812 0.46329,-3.96858 1.19954,-4.00017 2.47816,-7.98525 3.37069,-12.06658 0.24409,-1.28673 0.54133,-2.58303 0.43083,-3.9085 -0.0629,-2.33726 0.11619,-4.69639 -0.11247,-7.01923 -0.24693,-0.81594 -0.45834,-1.64493 -0.44727,-2.50391 -1.11295,-0.97798 -1.24708,-2.65056 -2.45898,-3.55664 -0.94102,-0.86007 -2.35708,-0.95565 -3.16781,-1.98172 -1.46261,-0.17004 -3.06411,-0.11534 -4.44938,0.50126 -2.10528,0.64529 -3.60926,2.3691 -5.09619,3.89723 -1.33479,1.48922 -1.90937,3.50487 -2.16943,5.44651 -0.0621,1.98125 0.37882,4.2751 2.12961,5.45997 0.31344,0.31016 1.02941,0.33425 0.86453,0.90136 -0.0768,0.98615 0.10627,1.98982 -0.1211,2.96094 -1.67032,-0.48257 -3.41074,-0.63273 -5.12506,-0.89818 -0.9512,0.0162 -0.45932,-0.43569 -0.11492,-0.95457 0.77472,-1.21836 0.78858,-2.69565 0.72484,-4.08575 -0.006,-0.95041 0.0827,-2.10859 -0.74632,-2.75068 -0.983,-1.13406 -2.3645,-1.91857 -3.87853,-1.9976 -2.95593,-0.50346 -5.94693,-1.05338 -8.83943,-1.93798 -1.69882,-0.41172 -3.3968,-0.82341 -5.00443,-1.52544 -2.10348,-0.73702 -4.08043,-1.7662 -6.01986,-2.85107 -1.10888,-0.63562 -2.13884,-1.42651 -3.15644,-2.18623 -0.55534,-0.29413 -0.39617,-1.01342 -0.92188,-1.32812 -0.70644,-1.79954 -1.34732,-3.62545 -1.95507,-5.46289 -0.58217,-0.009 -1.16002,0.0168 -1.59409,-0.42876 -1.09918,-0.59244 -2.39219,-0.23602 -3.58404,-0.33537 -2.08671,-0.17405 -3.87604,1.15083 -5.31797,2.50843 -0.61769,0.70204 -1.44775,1.21981 -2.04735,1.91693 -0.47102,1.61988 -1.64465,3.10106 -1.37648,4.87587 -0.12158,2.29564 0.21138,4.69941 1.53321,6.63477 0.66106,0.87258 0.91108,2.16631 1.09375,3.08398 0.67332,3.36915 1.54808,6.69769 2.18518,10.07612 0.14221,0.69534 0.26344,1.39479 0.39685,2.09185 -1.34858,1.24721 -2.58982,2.64643 -3.34766,4.33594 -0.56466,0.8439 -0.67091,1.86733 -0.58019,2.84982 -0.15995,1.16711 0.31984,2.32688 1.2067,3.08306 0.94868,1.24904 2.38221,2.20109 3.99459,2.18431 -0.035,1.63965 0.11112,3.31085 -0.10157,4.92969 -0.53033,1.82952 -0.82756,3.91532 -0.0391,5.71093 0.6419,1.31584 1.98928,2.02794 2.9375,3.08789 1.51261,0.13638 3.08941,0.087 4.48828,-0.56836 2.01719,1.12774 4.23408,1.96182 6.55469,2.13868 0.41454,0.17555 0.84029,0.33423 1.28906,0.38867 0.10352,1.18086 0.20369,2.36204 0.30664,3.54297 0.50578,0.0735 1.31401,-0.14435 1.63867,0.10351 -0.11379,3.26021 -0.25716,6.52585 -0.0957,9.78594 -0.0665,1.74177 0.22409,3.469 0.79693,5.11106 0.77983,2.76939 1.55982,5.53873 2.33979,8.30808 1.12486,-2.35354 2.25438,-4.80874 3.36393,-7.063 0.93089,-1.90242 1.94444,-3.83918 2.04625,-6.0007 0.35823,-3.25648 0.75815,-6.51041 0.96222,-9.78262 0.14473,-1.99614 0.29297,-3.992 0.44401,-5.98766 2.43822,-0.6939 4.72979,-1.7861 6.94643,-2.9996 1.49586,-0.65838 2.78188,-1.77744 4.42271,-2.10392 0.32781,-0.38381 0.6749,-1.10674 0.88867,-0.25586 0.73974,1.55384 2.26891,2.47445 3.37747,3.7305 0.9299,0.73883 2.10851,1.0311 3.13993,1.58258 0.98374,0.39062 2.04262,0.55169 3.02361,0.94864 0,2.39453 0,4.78906 0,7.18359 0.88151,0 1.76302,0 2.64454,0 0,3.46094 0,6.92188 0,10.38282 2.66125,2.12362 5.32014,4.25021 7.98046,6.375 0.28163,-4.41359 0.40616,-8.84405 0.97161,-13.2327 0.0637,-3.05851 0.35068,-6.10712 0.51863,-9.16184 2.22485,0.006 4.48967,0.14363 6.64848,-0.50291 1.13946,-0.271 2.26318,-0.61498 3.33199,-1.09669 1.01947,0.5041 1.97294,1.12284 2.77539,1.93164 1.12345,0.94819 2.62065,1.26355 4.05545,1.13987 1.53334,-0.0747 3.04916,-0.69903 4.19455,-1.71995 0.98107,-0.076 1.68314,-0.85919 2.10256,-1.6618 0.33165,-0.23132 0.5357,-1.22098 0.92959,-0.98525 0.85107,0.73218 2.0423,0.55125 3.07918,0.44392 0.66081,-0.0523 1.31954,-0.42795 1.92187,-0.49804 2.00072,1.1254 4.21108,1.90177 6.50199,2.11347 0.39624,0.19329 1.02028,0.23165 1.26952,0.52723 0.0887,1.12822 0.1772,2.25645 0.2656,3.38469 0.52026,0.0689 1.32617,-0.13715 1.66992,0.10156 -0.11334,3.26084 -0.25626,6.52719 -0.0957,9.78789 -0.0641,1.74161 0.22114,3.46974 0.7968,5.1111 0.7851,2.79187 1.57245,5.58311 2.35945,8.37445 1.51821,-3.32036 3.15443,-6.5871 4.64039,-9.92108 0.88731,-2.04593 0.75381,-4.32958 1.1235,-6.49103 0.47723,-4.15086 0.69899,-8.32479 1.03689,-12.48828 2.45592,-0.69965 4.76076,-1.8057 6.99508,-3.02535 1.47808,-0.65492 2.74959,-1.76322 4.37575,-2.07919 0.8063,-1.12908 2.0366,-1.85287 2.92184,-2.91731 1.22324,-1.2101 2.52459,-2.3441 3.66827,-3.63245 -0.0307,1.23094 0.13054,2.4953 -0.33008,3.66601 -0.35683,1.7038 -0.55467,3.65165 0.34666,5.22034 0.6837,1.14571 1.89431,1.80492 2.76076,2.79138 1.52656,0.15876 3.1239,0.0445 4.5293,-0.55273 1.95282,1.10021 4.09373,1.89578 6.33585,2.11747 0.50218,0.0798 0.94882,0.39666 1.47665,0.37667 0.10059,1.18682 0.20082,2.37367 0.30078,3.56055 0.50896,0.0716 1.3132,-0.14096 1.64453,0.10156 -0.11815,3.26068 -0.25577,6.52722 -0.0977,9.78789 -0.0648,1.74239 0.22469,3.47083 0.79921,5.11293 0.78773,2.79363 1.57637,5.58701 2.36486,8.38043 1.51346,-3.31272 3.13273,-6.57716 4.62298,-9.89952 0.90494,-2.08516 0.7687,-4.41387 1.1447,-6.61777 0.46953,-4.11946 0.68994,-8.26144 1.02724,-12.39287 2.4345,-0.69331 4.72485,-1.7812 6.93785,-2.99529 1.38699,-0.56832 2.53736,-1.63969 4.02309,-1.98322 0.083,1.47846 -0.47555,2.89812 -0.35014,4.38238 0.0474,0.58088 -0.18355,1.28679 0.45901,1.60056 1.10031,1.02669 2.05552,2.44513 3.66456,2.67331 1.78782,0.0992 3.61838,0.14525 5.38851,-0.19218 1.34012,-0.272 2.71615,-0.47962 4.00798,-0.71993 0.0791,2.90603 0.3341,5.80633 0.38197,8.66241 0.11289,3.74534 0.22557,7.49069 0.33873,11.23603 2.67192,-4.43617 5.34081,-8.87418 8.01563,-13.3086 0.15437,-1.66228 0.22302,-3.39586 0.43164,-5.01367 1.27677,-0.40571 2.3958,-1.3942 3.05078,-2.48047 1.1462,-0.0667 2.31522,-0.0402 3.38067,0.42878 1.40985,0.23056 2.28304,1.46715 3.35956,2.28216 0.98599,0.76768 1.94327,1.73936 3.23328,1.89907 2.27731,0.79198 4.61156,-0.41141 6.474,-1.65828 1.51434,-0.85455 2.38361,-2.44073 3.58569,-3.64509 0.15611,-0.68508 0.7101,-0.62925 1.28343,-0.68199 1.36984,-0.2484 2.6133,-0.93423 3.84157,-1.55629 0.57588,-0.27383 0.96755,-1.02664 1.68633,-0.82617 1.26276,0 2.52552,0 3.78828,0 0.12779,4.21784 0.32806,8.44572 0.97266,12.61719 0.3357,1.57086 1.31707,2.9483 2.66554,3.81129 1.32822,1.08251 2.65654,2.1649 3.98485,3.2473 0.81725,-3.14921 1.63491,-6.29831 2.45312,-9.44727 -0.29001,-0.13474 0.40265,-1.07417 0.5016,-1.52743 0.44785,-1.14728 0.99941,-2.24264 1.53442,-3.34502 0.42612,-1.07608 0.6909,-2.21181 0.84094,-3.35801 1.56183,0.3349 3.2406,0.75468 4.82031,1.22265 1.73164,0.67039 3.57198,1.20339 5.4492,1.04922 1.23866,0.0964 2.45863,-0.2012 3.54689,-0.77969 1.34658,-0.64191 2.18982,-1.94434 3.24387,-2.94773 1.3732,-1.34757 2.5343,-3.14167 2.34075,-5.14637 0.13403,-1.50593 -0.10882,-3.19933 -1.33737,-4.2231 -1.98543,-1.97855 -4.77509,-2.73247 -7.17108,-4.05389 -1.60695,-1.27521 -3.28059,-2.48781 -4.72851,-3.94922 0.76725,-0.16049 0.72289,-0.82707 0.72033,-1.4676 0.31614,-6.01502 0.60304,-12.02611 0.94959,-18.01482 1.17374,-1.44365 2.55112,-2.99133 2.69727,-4.92227 0,-1.28307 0,-2.56614 0,-3.84922 -0.96044,-0.85336 -1.7428,-1.98682 -2.90814,-2.5545 -3.89042,-0.38679 -7.77798,-0.81419 -11.67194,-1.15253 -0.71062,-0.0945 -1.27651,-0.6362 -2.02344,-0.5039 -1.07895,-0.1971 -2.14949,-0.4525 -3.23828,-0.57617 -2.45939,-0.66733 -4.92202,-1.31473 -7.31909,-2.18672 -1.35611,-0.43097 -2.68259,-0.93397 -3.94458,-1.58868 -1.75268,-0.4288 -3.31033,-1.68939 -5.18984,-1.54645 -1.20432,-0.097 -2.41054,0.17733 -3.44004,0.80841 -0.97932,0.34536 -1.93156,0.799 -2.58844,1.63429 -1.12405,1.0405 -2.0756,2.27502 -2.67539,3.68477 -0.80506,1.29443 -0.75831,2.87906 -0.72435,4.30661 -0.15224,1.17944 0.46862,2.25045 1.27728,3.05023 0.89062,1.07267 2.40166,1.39333 3.10445,2.64418 0.20003,0.51899 0.57827,0.8677 0.90238,1.24879 0.57709,1.01233 0.34084,2.23711 0.61459,3.33975 0.16026,1.29411 0.23785,2.59686 0.38928,3.89192 -1.20703,0.83377 -2.40766,1.79453 -3.0218,3.16307 -1.28122,1.77884 -2.1704,4.16857 -1.26922,6.30959 0.76844,1.93569 2.77849,3.50063 4.93242,3.19258 0.61414,-0.0855 1.04128,0.009 0.83907,0.7332 -0.003,2.89002 0.0423,5.78531 -0.0469,8.67188 -0.68475,-0.78857 -1.34548,-1.60734 -1.90213,-2.48654 -1.17562,-2.16212 -3.0279,-4.28383 -5.55138,-4.76418 -1.00569,-0.0548 -2.04465,-0.0138 -2.93676,0.49961 -1.27154,0.31384 -2.22065,1.24026 -3.08781,2.15891 -0.62418,0.52772 -1.17768,1.21331 -1.84612,1.64221 -3.02102,0.24269 -6.10371,0.14045 -9.04557,0.97037 -0.52513,0.10181 -1.05322,0.18795 -1.58335,0.25891 -0.0338,-2.20856 -0.21312,-4.42874 -0.0697,-6.63183 1.0097,-6.35171 2.55453,-12.59028 3.57601,-18.93732 0.27121,-2.00763 0.0442,-4.04131 0.11823,-6.06131 -0.0197,-2.06888 0.0567,-4.15134 -0.0757,-6.21133 -0.28946,-1.81194 -1.94552,-2.82017 -3.15479,-4.0033 -0.41998,-0.46041 -1.15985,-0.0964 -1.72057,-0.20437 -0.90042,0.005 -1.89254,-0.0976 -2.7186,0.26273 -1.17607,0.91494 -2.74012,1.3568 -3.58242,2.67166 -0.70663,0.83499 -1.71452,1.43708 -2.28076,2.36497 -0.71904,1.56701 -1.63395,3.18661 -1.37942,4.9794 -0.0549,2.57592 0.1193,5.16735 -0.0998,7.73312 -0.18503,1.23964 -0.21127,2.39714 -0.59908,3.60828 -0.11905,0.54113 -0.20069,1.08974 -0.29074,1.63633 -1.48766,-0.31627 -3.0206,-0.36305 -4.5,-0.7246 1.10062,-1.26136 1.45538,-2.98667 1.2806,-4.61753 0.0136,-0.85867 0.0764,-1.83072 -0.34338,-2.58468 -1.03845,-1.27832 -2.47368,-2.34509 -4.17404,-2.42034 -2.91218,-0.51035 -5.86872,-1.01122 -8.717,-1.8994 -2.04833,-0.4688 -4.07535,-1.03027 -5.99878,-1.88922 -1.75474,-0.62871 -3.40631,-1.52006 -5.01932,-2.43936 -1.19177,-0.56759 -2.20026,-1.46243 -3.2839,-2.19519 -0.48826,-0.26752 -0.52828,-0.80531 -0.80591,-1.20077 -0.46135,-0.46493 -0.484,-1.20608 -0.8142,-1.7648 -0.4863,-1.29469 -0.90398,-2.61423 -1.35844,-3.92035 -0.58453,0.003 -1.14855,-10e-4 -1.58822,-0.42877 -1.05201,-0.59092 -2.29493,-0.20965 -3.43795,-0.35053 -1.48375,-0.082 -2.92496,0.43359 -4.07667,1.35945 -1.06741,0.7665 -1.94696,1.75764 -2.96943,2.56633 -0.67091,0.73355 -0.81957,1.75924 -1.34297,2.58645 -0.73022,1.65518 -0.52541,3.50776 -0.44588,5.26276 0.15562,1.72585 0.8727,3.33078 1.82317,4.75939 0.79704,1.64904 0.81587,3.54208 1.3443,5.28039 0.39292,1.66104 0.75838,3.32825 1.11357,4.99773 -1.37041,-0.32207 -2.73646,-0.6549 -4.14498,-0.76694 -0.65172,-0.0824 -1.29976,-0.1915 -1.94486,-0.31509 1.1424,-1.27444 1.46502,-3.05216 1.30029,-4.71127 0.0174,-0.84369 0.0666,-1.80028 -0.35441,-2.53681 -1.04945,-1.25757 -2.47168,-2.32307 -4.16514,-2.39396 -2.95694,-0.50742 -5.94937,-1.04377 -8.84319,-1.9298 -1.74397,-0.43135 -3.4951,-0.83898 -5.14502,-1.56795 -2.09281,-0.74407 -4.0671,-1.76457 -5.99703,-2.85142 -1.11585,-0.66899 -2.2083,-1.43058 -3.21857,-2.25218 -0.49987,-0.28724 -0.31459,-0.96927 -0.8367,-1.24489 -0.70644,-1.79954 -1.34733,-3.62545 -1.95508,-5.46289 -0.58216,-0.009 -1.16001,0.0168 -1.59409,-0.42876 -1.05189,-0.5879 -2.2935,-0.21246 -3.43599,-0.35054 -0.12205,0.003 -0.24457,-0.005 -0.3664,0.004 z m 138.55078,21.41797 c 0.95813,0.15501 -0.14996,0.0405 -0.51852,0.0268 -0.47085,0.17725 -1.67876,-0.38722 -0.68606,-0.2848 0.40153,0.086 0.80305,0.17201 1.20458,0.25801 z m 6.76563,0.80469 c 0.64334,-0.26863 1.17403,0.68559 0.38762,0.21091 -0.2445,-0.16019 -1.16578,-0.3137 -0.38762,-0.21091 z m -89.11133,3.55078 c -0.21511,0.2086 -0.19652,-0.27664 0,0 z m -127.41407,-0.002 c -0.19509,0.20264 -0.18725,-0.26302 0,0 z m 82.51758,0 c -0.19188,0.20034 -0.18185,-0.25946 0,0 z m 6.26758,4.93164 c 0.68027,0.16955 0.25925,1.37448 -0.35937,0.8418 -0.17434,-0.27082 -0.0529,-0.88054 0.35937,-0.8418 z m -82.52539,0 c 0.58778,0.10615 0.40816,1.24251 -0.23633,0.91601 -0.37905,-0.15589 -0.1767,-0.96049 0.23633,-0.91601 z m 127.47266,0.0156 c 0.54455,0.21405 0.27174,1.24047 -0.33789,0.88672 -0.35745,-0.20065 -0.10674,-1.03125 0.33789,-0.88672 z m 75.48047,6.33985 c 0.68444,-0.0123 -0.0767,0.89814 0.0883,1.34028 -0.0426,0.5662 -0.01,1.1364 0.064,1.69878 -0.74495,0.24425 -0.48915,-0.56404 -0.52344,-1.0707 0,-0.6763 0,-1.35261 0,-2.02891 0.1237,0.0202 0.2474,0.0404 0.3711,0.0606 z m -191.76954,4.23437 c -0.75837,0.43481 -1.50737,0.92758 -2.35742,1.16211 0.15656,-0.45703 -0.17528,-1.41132 0.61133,-1.16211 0.58203,0 1.16406,0 1.74609,0 z m 82.51758,0 c -0.759,0.43476 -1.50828,0.92901 -2.35937,1.16211 0.15482,-0.45754 -0.17131,-1.41022 0.61328,-1.16211 0.58203,0 1.16406,0 1.74609,0 z m 44.88867,0 c -0.76224,0.42943 -1.50871,0.93113 -2.36132,1.16211 0.15728,-0.45524 -0.17371,-1.41124 0.61132,-1.16211 0.58334,0 1.16667,0 1.75,0 z m -141.32617,1.07813 c -0.003,0.34145 1.0457,1.16698 0.3837,0.74 -0.20556,-0.23792 -1.42268,-0.71116 -0.63832,-0.75548 0.072,0.0221 0.2438,-0.1185 0.25462,0.0155 z m 82.51758,0 c -0.0176,0.32862 1.04947,1.16804 0.40234,0.75 -0.26096,-0.21336 -0.97246,-0.55544 -0.90795,-0.71371 0.13958,0.0192 0.4346,-0.18306 0.50561,-0.0363 z m 44.88477,0 c -0.0319,0.30674 1.00763,1.1335 0.44531,0.77539 -0.21845,-0.22386 -1.23049,-0.64456 -0.85509,-0.76003 0.12286,0.003 0.36153,-0.14527 0.40978,-0.0154 z" /><text
         xml:space="preserve"
         style="font-style:normal;font-variant:normal;font-weight:normal;font-stretch:normal;font-size:85.3333px;font-family:'a dripping marker';-inkscape-font-specification:'a dripping marker';text-align:start;writing-mode:lr-tb;direction:ltr;text-anchor:start;fill:#ffff00"
         x="158.91225"
         y="275.48944"
         id="text1"><tspan
           sodipodi:role="line"
           id="tspan1"
           x="158.91225"
           y="275.48944"
           style="font-size:85.3333px;fill:#ffff00">BUBBLE</tspan></text></g><g
       inkscape:label="Layer 1"
       id="layer1-6"
       transform="matrix(1.7073937,0,0,1.5283796,51.024402,-181.29357)"><path
         id="text3-2"
         style="font-style:normal;font-variant:normal;font-weight:normal;font-stretch:normal;font-size:85.3333px;font-family:'a dripping marker';-inkscape-font-specification:'a dripping marker';text-align:start;writing-mode:lr-tb;direction:ltr;text-anchor:start;fill:#0066ff"
         d="m 184.58398,217.9668 c -2.1799,0.1008 -4.3794,-0.0952 -6.54892,0.0992 -1.23766,0.31249 -2.51255,0.40609 -3.72471,0.80815 -1.40959,0.23514 -2.78144,0.67093 -4.00099,1.42606 -2.35823,1.11576 -4.90276,2.12266 -6.6259,4.17503 -1.23629,1.18954 -2.62289,2.27774 -3.3952,3.85151 -0.64153,1.31785 -1.57022,2.51353 -1.95623,3.94084 -0.3792,1.57166 -0.0641,3.08872 -0.20117,4.64062 0.0113,1.08276 0.46768,2.10056 0.46289,3.18555 1.03217,1.26473 1.54406,2.84326 2.43945,4.19531 0.73289,1.16236 1.63747,2.22313 2.11719,3.52735 0.63596,1.2106 1.84438,1.99767 3.12305,2.375 1.19474,0.63543 2.65201,0.41992 3.85937,-0.0684 -1.83835,2.65618 -3.99379,5.07988 -5.72672,7.81022 -1.15004,1.73332 -2.72744,3.10904 -4.01351,4.7347 -0.82032,0.95389 -1.65151,1.88927 -2.67489,2.62773 -1.55932,1.49265 -3.73629,2.12288 -5.24769,3.68165 -1.28312,1.21088 -2.31276,2.69339 -2.91727,4.35468 -0.89892,1.41194 -0.70016,3.20571 -0.17187,4.70547 -0.15394,1.3138 0.69625,2.79589 2.10352,2.88438 2.28365,8.8e-4 4.6233,0.21912 6.83753,-0.49261 1.60964,-0.48506 3.24487,-0.85556 4.91973,-1.02743 1.88477,-0.20966 3.74091,-0.61528 5.60406,-0.93504 1.07903,-0.13108 2.14966,-0.32291 3.21875,-0.51758 0,5.12109 0,10.24219 0,15.36328 2.76433,0 5.52865,0 8.29297,0 0.45702,-3.58566 0.98168,-7.16735 1.15235,-10.78125 0.67708,0.12435 1.35416,0.2487 2.03125,0.37305 0.28979,-1.91268 0.42967,-3.86434 0.99414,-5.72071 1.7251,-0.0711 3.45221,0.0403 5.12169,0.50401 1.01214,0.22554 1.98506,0.65967 3.04274,0.51756 1.10246,-0.0405 2.35577,0.20123 3.30041,-0.4825 1.6869,-0.66385 3.15809,-1.78576 4.50195,-2.98438 0.76305,1.36889 2.20703,2.14117 3.51563,2.86719 0.28575,1.72268 0.77821,3.41387 0.79687,5.17187 0.0508,0.61068 0.10157,1.22136 0.15235,1.83204 0.61133,0 1.22265,0 1.83398,0 -0.07,2.3565 -0.2828,4.71635 -0.22656,7.07226 0.2365,1.59866 1.02974,3.03887 1.42754,4.59711 0.52828,1.61795 1.05612,3.23604 1.58418,4.85406 1.62552,-2.22773 3.25147,-4.47285 4.89299,-6.67789 0.94241,-0.68386 1.08423,-1.91291 1.00677,-2.98594 0.24364,-1.7927 0.59792,-3.57126 0.69568,-5.38105 0.27559,-2.35064 0.28344,-4.9205 0.37721,-7.15238 0.0799,-0.89533 0.0307,-1.8508 0.20313,-2.70899 0.76906,-0.74103 1.78077,-1.21148 2.58184,-1.86863 0.297,-0.80571 1.0379,-1.32547 1.52949,-2.01027 1.03451,-1.19501 1.85946,-2.54577 2.72601,-3.86186 0.4372,-0.74009 0.82541,-1.50816 1.20563,-2.27877 0.32551,0.85851 0.54126,1.78956 0.93646,2.60331 0.60714,0.47213 0.67725,1.32831 1.16475,1.90708 0.6107,1.46201 1.67329,2.63881 2.71519,3.80406 0.78376,1.44939 2.23002,2.34115 3.66211,3.06055 0.2989,1.76701 0.78138,3.50481 0.82744,5.30662 0.12118,0.53465 -0.0179,1.35436 0.25694,1.72073 0.52295,0.0745 1.35271,-0.14422 1.69821,0.0999 -0.0684,2.32323 -0.27925,4.64977 -0.22204,6.97237 0.23651,1.59866 1.02975,3.03887 1.42754,4.59711 0.52802,1.61738 1.05612,3.23474 1.58418,4.85211 1.64548,-2.24232 3.2754,-4.51621 4.93945,-6.73242 0.95021,-0.6999 1.00436,-1.94668 0.96903,-3.01695 0.26226,-1.79443 0.58823,-3.58045 0.69896,-5.39284 0.26224,-2.3548 0.2712,-4.72701 0.36521,-7.09217 0.0379,-0.57696 0.0721,-1.4837 0.12534,-2.19223 -0.0913,-0.70311 0.77478,-0.9235 1.18773,-1.33612 0.58804,-0.50206 1.53036,-0.67709 1.70451,-1.53024 1.13167,-1.23893 2.21411,-2.53324 3.10248,-3.96023 0.85073,-1.13525 1.49981,-2.40262 2.12604,-3.67063 0.35692,0.87459 0.51518,1.87814 1.00662,2.66674 0.53097,0.4886 0.63791,1.2798 1.09297,1.84153 0.19976,0.36385 0.3842,0.79852 0.66017,1.25931 0.78038,1.28179 1.97314,2.25258 2.74805,3.5332 0.80859,0.92771 1.93185,1.50831 2.97461,2.09766 0.2884,1.76123 0.77143,3.38758 0.81445,5.18555 0.0553,0.60612 0.11068,1.21224 0.16602,1.81836 0.60091,-10e-6 1.20182,0 1.80273,0 -0.0695,2.22428 -0.24251,4.44893 -0.2539,6.67187 0.0903,1.71292 0.98919,3.21648 1.42929,4.84576 0.55412,1.64496 1.10706,3.29032 1.66055,4.93549 1.62625,-2.22131 3.24073,-4.47006 4.88867,-6.66406 0.95021,-0.6999 1.00437,-1.94668 0.96903,-3.01695 0.26226,-1.79443 0.58823,-3.58045 0.69896,-5.39284 0.26224,-2.3548 0.2712,-4.72701 0.36522,-7.09217 0.0379,-0.57696 0.072,-1.4837 0.12533,-2.19223 -0.0995,-0.68407 0.73022,-0.90498 1.13284,-1.30389 0.60849,-0.50911 1.57118,-0.69211 1.7594,-1.56247 1.1796,-1.27381 2.26316,-2.63758 3.20313,-4.09766 1.49013,-2.10723 2.49431,-4.50637 3.49728,-6.86861 0.6974,-2.28837 1.49603,-4.55603 2.08445,-6.87474 0.31046,-1.7787 0.66137,-3.56672 0.93975,-5.34844 -0.0409,-3.3921 0.0872,-6.79792 -0.0763,-10.18118 -0.37194,-1.76315 -0.79913,-3.51903 -1.53384,-5.17045 -0.61007,-2.19467 -1.56905,-4.2928 -2.94449,-6.11322 -0.51992,-0.68666 -0.70654,-1.58875 -1.47661,-2.06552 -1.23506,-1.05983 -2.37808,-2.22731 -3.5676,-3.32866 -0.97413,-0.79278 -2.05241,-1.47589 -3.23321,-1.89533 -0.78043,-0.69934 -1.82954,-0.72683 -2.79925,-0.89967 -1.34813,-0.28086 -2.755,-0.69714 -4.10817,-0.20229 -1.55839,0.28033 -3.13713,0.61448 -4.52475,1.41784 -0.85191,0.44569 -1.87152,0.55717 -2.50769,1.34322 -1.50408,1.26297 -2.97839,2.56096 -4.32179,3.99565 -0.59042,0.48314 -1.20053,0.93489 -1.48808,1.67162 -0.27485,0.29218 -0.48208,1.35641 -0.79102,0.60618 -0.56036,-0.67255 -0.92315,-1.53147 -1.41653,-2.24742 -1.40171,-1.21741 -2.73258,-2.52051 -4.07904,-3.7898 -0.97413,-0.79278 -2.05242,-1.47589 -3.23321,-1.89533 -0.78043,-0.69934 -1.82954,-0.72683 -2.79925,-0.89967 -1.34813,-0.28086 -2.755,-0.69714 -4.10817,-0.20229 -1.55862,0.27949 -3.13708,0.61453 -4.52475,1.41784 -0.85191,0.44569 -1.87153,0.55717 -2.5077,1.34322 -1.50487,1.26347 -2.97962,2.56232 -4.32373,3.9976 -0.5926,0.484 -1.20582,0.93486 -1.49019,1.67657 -0.25479,0.1991 -0.44638,1.33046 -0.72724,0.68677 -0.54163,-0.70794 -0.98312,-1.49506 -1.40187,-2.26807 -1.42597,-1.24022 -2.78413,-2.56301 -4.15342,-3.85664 -0.97413,-0.79278 -2.05242,-1.47589 -3.23321,-1.89533 -0.78044,-0.69934 -1.82954,-0.72683 -2.79925,-0.89967 -1.34814,-0.28086 -2.755,-0.69714 -4.10817,-0.20229 -1.59163,0.27524 -3.19254,0.64167 -4.60751,1.45721 -0.8337,0.41412 -1.80919,0.54203 -2.42494,1.30385 -1.50487,1.26347 -2.97962,2.56232 -4.32373,3.9976 -0.59305,0.48422 -1.20622,0.93401 -1.49051,1.67638 -1.21854,1.95463 -2.21028,4.36959 -1.43527,6.67518 0.31548,0.81682 -0.32745,1.62756 -0.51727,2.41762 -0.68025,2.03945 -0.9824,4.18579 -1.29308,6.30647 -0.0589,1.29228 -0.22259,2.5795 -0.32247,3.86302 0.0385,2.86429 -0.15017,5.74565 0.22039,8.59145 0.0303,1.4572 0.39163,2.86876 0.67219,4.29019 -1.25471,-1.36118 -2.73656,-2.54376 -3.64512,-4.18628 -0.83829,-1.35084 -1.36874,-2.87067 -2.2416,-4.20434 -0.43722,-1.03042 -1.02123,-2.07445 -2.01562,-2.6582 -0.19259,-0.50358 -0.35376,-0.95975 0.13816,-1.3592 1.33904,-1.97914 2.76364,-3.90575 3.88332,-6.02166 1.27158,-1.94825 2.3015,-4.04929 3.40754,-6.08857 0.64835,-2.21845 2.06164,-4.31526 1.7741,-6.72393 -0.0872,-1.77111 0.31419,-3.67615 -0.58776,-5.29829 -0.34455,-0.93783 -1.04251,-1.67839 -1.37903,-2.60992 -0.85688,-1.16008 -2.17572,-1.83244 -3.37546,-2.58357 -1.23256,-0.78998 -2.65332,-1.17205 -4.04251,-1.56682 -0.45477,-0.0681 -0.91125,-0.10863 -1.3711,-0.10351 z m -6.94531,20.78906 c -0.41743,0.39327 0.0552,-0.55754 0.34125,-0.73013 0.7478,-1.15674 -0.45743,0.9227 -0.34125,0.73013 z m 35.8125,18.79102 c -0.41123,1.55621 -0.88,3.09624 -1.39453,4.62109 -0.60234,-0.95742 -1.12928,-1.94887 -1.54836,-3.00369 -0.55132,-0.69534 0.56676,-0.43181 0.97219,-0.69748 0.79774,-0.23909 1.42172,-0.80101 2.05664,-1.31055 -0.0286,0.13021 -0.0573,0.26042 -0.0859,0.39063 z m 29.31836,-0.21094 c -0.40869,1.62787 -0.90119,3.23478 -1.44336,4.82422 -0.55609,-0.9026 -1.09431,-1.80872 -1.46978,-2.80772 -0.53571,-0.69628 0.0267,-0.6921 0.63799,-0.76499 0.82491,-0.36809 1.61232,-0.82495 2.3064,-1.40581 l -0.0198,0.098 z m 29.26953,0 c -0.40978,1.62818 -0.90188,3.236 -1.44336,4.82617 -0.55464,-0.9037 -1.09312,-1.80846 -1.46727,-2.80797 -0.60596,-0.7774 0.14377,-0.63443 0.72557,-0.81011 0.79483,-0.3542 1.54668,-0.80545 2.21631,-1.36239 l -0.0199,0.098 z" /><text
         xml:space="preserve"
         style="font-style:normal;font-variant:normal;font-weight:normal;font-stretch:normal;font-size:85.3333px;font-family:'a dripping marker';-inkscape-font-specification:'a dripping marker';text-align:start;writing-mode:lr-tb;direction:ltr;text-anchor:start;fill:#ffffff"
         x="158.91225"
         y="275.48944"
         id="text1-6"><tspan
           sodipodi:role="line"
           id="tspan1-1"
           x="158.91225"
           y="275.48944"
           style="font-size:85.3333px;fill:#ffffff">2000</tspan></text></g></g></svg>
