<?xml version="1.0" encoding="UTF-8" standalone="no"?>
<!-- Created with Inkscape (http://www.inkscape.org/) -->

<svg
   width="179.49602"
   height="90.218727"
   viewBox="0 0 179.49602 90.218731"
   version="1.1"
   id="svg1"
   inkscape:version="1.4 (e7c3feb100, 2024-10-09)"
   sodipodi:docname="skate.svg"
   inkscape:export-filename="skate.png"
   inkscape:export-xdpi="246.1241"
   inkscape:export-ydpi="246.1241"
   xmlns:inkscape="http://www.inkscape.org/namespaces/inkscape"
   xmlns:sodipodi="http://sodipodi.sourceforge.net/DTD/sodipodi-0.dtd"
   xmlns="http://www.w3.org/2000/svg"
   xmlns:svg="http://www.w3.org/2000/svg">
  <sodipodi:namedview
     id="namedview1"
     pagecolor="#ffffff"
     bordercolor="#000000"
     borderopacity="0.25"
     inkscape:showpageshadow="2"
     inkscape:pageopacity="0.0"
     inkscape:pagecheckerboard="0"
     inkscape:deskcolor="#d1d1d1"
     inkscape:document-units="mm"
     inkscape:zoom="1.8273012"
     inkscape:cx="177.85792"
     inkscape:cy="41.865019"
     inkscape:window-width="1440"
     inkscape:window-height="888"
     inkscape:window-x="0"
     inkscape:window-y="0"
     inkscape:window-maximized="1"
     inkscape:current-layer="layer1" />
  <defs
     id="defs1" />
  <g
     inkscape:label="Layer 1"
     inkscape:groupmode="layer"
     id="layer1"
     transform="translate(-155.31389,-214.31252)">
    <path
       id="text3"
       style="font-style:normal;font-variant:normal;font-weight:normal;font-stretch:normal;font-size:85.3333px;font-family:'a dripping marker';-inkscape-font-specification:'a dripping marker';text-align:start;writing-mode:lr-tb;direction:ltr;text-anchor:start;fill:#00ffff"
       d="m 180.72461,214.31445 c -0.81185,0.0147 -1.63431,-0.0149 -2.37109,0.37696 -0.99946,0.17742 -1.83907,0.75301 -2.53516,1.46093 -1.81615,1.36529 -3.17551,3.22331 -4.71484,4.875 -0.89841,1.92816 -2.21101,3.62302 -3.16797,5.51368 -0.74989,2.6646 -3.03459,4.46703 -4.34514,6.83304 -0.97814,1.77315 -1.55267,3.73465 -2.39308,5.57473 -0.83254,1.93832 -1.60554,3.91074 -2.71882,5.70878 -0.92495,1.75428 -1.33044,3.7177 -2.0631,5.55317 -0.50962,1.22384 -0.82607,2.49877 -0.99159,3.81215 -0.16406,1.25818 -0.12591,2.54521 -0.007,3.80391 0.14868,0.71373 0.45974,1.36541 0.55575,2.09117 0.21666,0.90026 0.97748,1.5432 1.80468,1.8457 0.97715,0.8223 2.16609,1.4184 3.44532,1.56836 0.0404,1.69629 -0.0996,3.41056 0.12304,5.09375 0.29441,1.25348 0.83986,2.43337 1.30469,3.62695 0.49799,0.8964 1.11871,1.73276 1.57817,2.64134 1.24204,1.17072 2.42026,2.47519 4.02737,3.14546 1.13125,0.64657 2.3931,1.00211 3.6718,1.21125 0.30539,2.16601 0.61138,4.33193 0.91602,6.49805 0.62174,0 1.24349,0 1.86523,0 0.18729,2.69791 0.31505,5.49666 1.41602,8.00586 1.93479,3.6401 3.79907,7.3202 5.70508,10.97656 0.74676,-5.35595 1.60849,-10.69928 2.24414,-16.06836 0.005,-3.25083 0.0633,-6.50956 -0.26025,-9.74757 -0.008,-0.68164 -0.0658,-1.36136 -0.10694,-2.04149 1.90004,-1.00459 3.61808,-2.31135 5.26563,-3.6836 0.28173,1.61778 0.69688,3.21115 1.18554,4.77344 0.57969,1.50868 2.01067,2.50435 3.56534,2.80154 1.43834,0.42116 2.96959,0.17713 4.29764,-0.47316 1.83562,-0.72305 3.42965,-2.02505 4.66241,-3.55494 0.42354,-0.83795 0.38921,-0.17264 0.41051,0.36023 0.22673,2.56109 0.0943,5.18917 0.83052,7.67522 0.26248,0.97504 1.25692,1.48451 1.8681,2.23774 1.46688,1.46688 2.93376,2.93376 4.40064,4.40064 0.79099,-3.2822 1.7522,-6.52274 2.46875,-9.82227 0,-2.54752 0,-5.09505 0,-7.64258 1.02718,1.81786 2.46743,3.34712 3.59209,5.1023 1.58564,2.41628 3.72485,4.38559 5.60127,6.56567 0.97809,1.01838 2.25595,1.68333 3.20312,2.72656 1.34729,0.94793 3.04093,1.36068 4.67363,1.13364 1.49453,-0.12977 2.97571,-0.63751 4.0623,-1.70507 1.16065,-1.04241 2.32406,-2.11 3.31876,-3.30747 0.41312,-0.47001 0.39567,-1.12525 0.64258,-1.65234 0.61527,1.54881 1.23046,3.09765 1.8457,4.64648 1.44325,-2.84627 2.98405,-5.65093 4.36746,-8.52264 0.57771,-1.36271 0.67704,-2.84599 1.03726,-4.26291 0.24327,-0.21713 0.0662,-1.51996 0.27554,-0.95894 0.87714,2.16536 1.57862,4.41604 2.66025,6.4903 0.32718,0.54961 0.6834,1.10911 0.57746,1.77763 0.10192,1.10026 0.43145,2.17206 0.76758,3.21093 0.58001,1.20875 1.96757,1.61401 2.92187,2.45508 1.01596,0.77795 2.31123,1.07717 3.56874,0.91181 1.18227,0.0779 2.37424,-0.0311 3.4879,-0.43134 1.53225,-0.35779 2.30386,-1.8846 3.4367,-2.8343 0.59355,-0.55273 1.26854,-1.05382 1.47144,-1.88163 0.22917,-0.75517 0.61305,-1.42909 1.23054,-1.93446 -0.0782,-1.63622 0.15757,-3.32995 -0.18432,-4.92621 -1.56169,-1.87801 -1.87465,-4.38408 -2.75957,-6.59023 -0.5751,-1.65544 -1.02229,-3.37295 -1.74077,-4.96805 -0.69431,-1.27341 -1.4886,-2.5498 -1.87641,-3.9456 -0.13078,-0.89085 0.16568,-1.7748 0.29302,-2.61982 -0.34427,-1.23237 -0.87322,-2.52226 -2.03664,-3.19228 -0.43212,-0.4758 -1.03796,-0.77831 -1.61523,-0.97461 -1.60395,-4.27597 -3.13092,-8.59632 -4.2814,-13.018 -0.32155,-1.75026 -0.28377,-3.54227 -0.40025,-5.31403 1.75006,0.4233 3.47733,0.94344 5.27064,1.17174 2.33213,0.25764 4.69145,0.29137 7.03479,0.44396 0.51626,0.0429 0.16005,0.98479 0.30816,1.41085 0.305,6.14638 1.12612,12.25371 1.92938,18.35041 0.48237,2.97217 0.92839,5.95364 1.36524,8.93359 0.16074,2.13817 0.88893,4.16215 1.33638,6.24606 0.50366,1.83927 0.94269,3.74467 2.05966,5.32941 0.31365,0.56195 0.63336,1.10826 1.20552,1.4343 0.81761,0.87199 2.02032,1.32709 3.20508,1.11132 1.51356,0.0933 3.08753,0.0459 4.45007,-0.69584 0.97389,-0.48922 1.68047,-1.35015 2.60657,-1.91353 1.11267,-0.9274 1.83758,-2.20366 2.80469,-3.26563 0.1777,-1.0345 0.77073,-1.96026 0.78515,-3.03125 0.17322,-0.0301 0.43244,0.0337 0.57045,-0.81251 0.46052,-0.88616 -0.15153,-0.39159 -0.10811,-1.28837 -0.0962,-0.77236 -0.19234,-1.54472 -0.28851,-2.31709 0.40902,0.17647 1.05925,1.18245 1.31496,0.83167 0.42242,-1.29425 0.86502,-2.5816 1.29637,-3.87268 -0.042,1.94032 0.14058,3.9096 -0.36841,5.80525 -0.33304,1.64816 -0.61962,3.31597 -0.47523,5.00411 0.0721,0.64523 -0.30974,1.45938 0.39231,1.84389 0.9624,0.83753 1.75237,2.16103 3.14956,2.22494 1.06046,0.27106 2.3361,0.31801 3.42677,-0.11257 0.89528,-0.28368 1.6988,-0.81061 2.58788,-1.0892 0.67317,-0.38994 1.18859,-1.25684 2.06407,-1.05142 1.2293,0 2.4586,0 3.68789,0 0.12608,4.15635 0.3272,8.32125 0.94125,12.43446 0.29176,1.66168 1.32215,3.13596 2.75241,4.01993 1.31795,1.05075 2.63639,2.10088 3.95478,3.15108 0.80842,-3.12587 1.61738,-6.25159 2.42773,-9.37696 -0.29021,-0.12976 0.40214,-1.0736 0.501,-1.52573 0.45295,-1.16654 1.01712,-2.27414 1.5569,-3.39627 0.41716,-1.06045 0.66489,-2.17991 0.82101,-3.30651 2.14529,0.46113 4.27361,0.99236 6.33453,1.74952 1.45399,0.49026 2.98699,0.62192 4.51224,0.50015 1.16423,0.12976 2.23508,-0.43387 3.25268,-0.88656 1.48428,-1.0461 2.62809,-2.48578 3.84636,-3.81341 1.05881,-1.23696 1.6368,-2.86843 1.46517,-4.4985 0.12322,-1.47278 -0.28365,-3.05593 -1.47934,-4.01019 -2.00461,-1.90348 -4.75173,-2.63581 -7.1062,-3.96824 -1.5849,-1.26061 -3.23245,-2.46353 -4.66528,-3.90285 0.76788,-0.16004 0.72559,-0.82599 0.72228,-1.4676 0.31614,-6.01502 0.60304,-12.02611 0.94959,-18.01482 1.17455,-1.44359 2.55282,-2.98996 2.69727,-4.92227 0,-1.28307 0,-2.56614 0,-3.84922 -0.96294,-0.85202 -1.74083,-1.99296 -2.91204,-2.55457 -3.87108,-0.38207 -7.7381,-0.81775 -11.61336,-1.1448 -0.73568,-0.0738 -1.31418,-0.65246 -2.08202,-0.50961 -1.06506,-0.19697 -2.12073,-0.45598 -3.19727,-0.56836 -1.14284,-0.28461 -2.26538,-0.6451 -3.40625,-0.9375 0,-1.01693 0,-2.03385 0,-3.05078 -0.89995,-0.13591 -1.86186,-0.0802 -2.72461,-0.33984 -0.63694,-0.55763 -1.57723,-0.36554 -2.36523,-0.48829 -1.88181,-0.0465 -3.77856,0.0781 -5.65039,-0.0488 -1.25269,-0.68476 -2.75344,-0.43331 -4.10163,-0.43864 -0.684,0.37174 -1.39643,0.71387 -2.1963,0.61909 -2.90425,0.1371 -5.81108,0.26338 -8.7177,0.30197 -0.65491,-0.94292 -1.85164,-1.19004 -2.92342,-1.0262 -1.0982,0.003 -2.24873,-0.0894 -3.30497,0.19172 -0.54117,0.343 -1.01613,1.00614 -1.73137,0.82834 -2.90353,0.0507 -5.81013,-0.21658 -8.68466,-0.5786 -0.7687,-0.0998 -0.99624,-0.97007 -1.64855,-1.30784 -1.09146,-0.8379 -2.49846,-0.92738 -3.81751,-0.85019 -1.53411,-0.0956 -3.18074,0.17115 -4.3485,1.24472 -0.81134,-0.74077 -1.52431,-1.77535 -2.60038,-2.08856 -2.14893,-0.0936 -4.49938,0.001 -6.2601,1.39341 -1.19265,0.66723 -2.3255,1.50136 -2.99716,2.72135 -0.98439,1.35797 -1.75895,2.87476 -2.40206,4.42155 -0.31755,0.91448 -0.8861,1.77938 -0.76569,2.8003 0.0543,3.06581 -0.11442,6.1362 -0.17383,9.20312 -1.15039,4.46366 -2.58477,8.84522 -4.06446,13.20899 -0.13241,0.57854 -0.28426,1.15442 -0.50781,1.70508 -0.77824,0.12391 -1.57837,0.3282 -2.05237,1.0094 -1.3634,1.3634 -2.7268,2.7268 -4.09021,4.0902 -0.15207,0.60461 -0.29068,1.36171 -0.62039,0.35923 -1.63736,-3.02064 -3.13334,-6.11762 -4.77206,-9.13567 -0.36558,-0.71779 -1.01965,-1.21178 -1.54505,-1.80559 2.20259,-2.3578 4.43197,-4.73138 6.09262,-7.51651 1.06085,-1.64802 2.13411,-3.35186 2.70948,-5.23374 0.0587,-1.45889 0.19549,-2.96054 -0.1185,-4.39428 -0.54277,-1.85637 -2.39928,-3.03407 -4.26758,-3.16211 -1.25075,-0.17387 -2.47009,0.31654 -3.65973,0.63358 -1.9574,0.68661 -3.43212,2.20985 -4.9223,3.58322 -1.01989,1.10953 -2.04341,2.29798 -2.64844,3.68164 -0.21369,0.74885 -0.20064,1.55415 -0.83317,2.07569 -1.79489,1.74262 -3.49471,3.60447 -5.4371,5.1841 -0.90599,0.64981 -1.7252,1.41166 -2.62621,2.06834 -0.014,-5.52722 0.0408,-11.06074 -0.0411,-16.58397 -0.26302,-1.40808 -0.38366,-3.00657 -1.45301,-4.05471 -0.47348,-1.14163 -1.71195,-1.84481 -2.93592,-1.64387 -1.17029,0.0106 -2.40125,-0.10015 -3.52583,0.19403 -0.84934,0.83446 -2.10831,1.03282 -2.97575,1.84828 -0.23377,-2.144 -1.64127,-3.91874 -2.00222,-6.02775 -0.33276,-0.8469 -0.99389,-1.50161 -1.48242,-2.25152 -0.814,-0.93114 -1.75739,-1.73873 -2.5974,-2.64651 -1.39069,0.0148 -2.78119,-0.003 -4.17187,0.002 z m 123.47851,28.0625 c 0.95814,0.15501 -0.14995,0.0405 -0.51851,0.0268 -0.47085,0.17725 -1.67876,-0.38722 -0.68606,-0.2848 0.40152,0.086 0.80305,0.17201 1.20457,0.25801 z m -125.15429,0.58594 c 0.17692,1.32682 0.0916,2.68809 0.49805,3.97852 -2.03325,0.12225 -3.9866,0.80266 -6.02735,0.88281 -0.63215,0.11076 -1.27256,0.17032 -1.91406,0.18555 0.29769,-0.98226 0.72196,-1.89671 1.28125,-2.75391 0.28738,-0.26576 0.34296,-1.59173 0.76798,-0.85558 0.75632,0.84853 1.51016,1.69928 2.26522,2.54894 0.83985,-1.25977 1.67969,-2.51953 2.51953,-3.7793 0.39473,0.13566 0.63792,-0.82191 0.60938,-0.20703 z m 131.91992,0.21875 c 0.5661,-0.27496 1.18858,0.63066 0.46875,0.24024 -0.23984,-0.15205 -1.26469,-0.35536 -0.46875,-0.24024 z m -27.08594,5.50781 c 0.31723,0.19684 1.37361,1.0069 0.51195,1.03296 -0.74161,0.14722 -1.48322,0.29444 -2.22484,0.44165 0.17069,-0.52147 0.33554,-1.05296 0.50977,-1.56836 0.40292,-0.13024 0.81546,-0.0426 1.20312,0.0937 z m 19.76563,9.32617 c 0.68548,-0.0285 -0.0475,0.84954 0.10244,1.27556 -0.0464,0.58791 -0.0168,1.18098 0.0577,1.76546 -0.74494,0.24425 -0.48914,-0.56404 -0.52343,-1.0707 0,-0.67696 0,-1.35391 0,-2.03086 0.12109,0.0202 0.24218,0.0404 0.36328,0.0605 z m -123.8418,4.06641 c 0.58183,0.0157 1.17411,-0.0301 1.74414,0.11328 0.17403,0.81595 -0.71752,1.21526 -1.32422,1.50196 -0.90472,0.0834 -1.84169,0.003 -2.75976,0.0234 -0.39961,-0.43755 -0.89357,-0.87797 -0.89258,-1.51562 1.07641,-0.063 2.15365,-0.13063 3.23242,-0.12305 z" />
    <text
       xml:space="preserve"
       style="font-style:normal;font-variant:normal;font-weight:normal;font-stretch:normal;font-size:85.3333px;font-family:'a dripping marker';-inkscape-font-specification:'a dripping marker';text-align:start;writing-mode:lr-tb;direction:ltr;text-anchor:start;fill:#000000"
       x="158.91225"
       y="275.48944"
       id="text1"><tspan
         sodipodi:role="line"
         id="tspan1"
         x="158.91225"
         y="275.48944"
         style="font-size:85.3333px">SKATE</tspan></text>
  </g>
</svg>
