{"asset":{"version":"2.0","generator":"Blockbench 4.12.1 glTF exporter"},"scenes":[{"nodes":[9],"name":"blockbench_export"}],"scene":0,"nodes":[{"rotation":[-0.49999999999999845,-0.4999999999999985,-0.5000000000000014,0.5000000000000016],"translation":[0.5,0,0],"name":"wheel_right","mesh":0},{"rotation":[-0.4999999999999996,0.4999999999999994,0.5000000000000003,0.5000000000000007],"translation":[-0.5,0,0],"name":"wheel_left","mesh":1},{"translation":[0,0.125,0],"name":"wheels","children":[0,1]},{"translation":[0,0.0625,0],"name":"cylinder","mesh":2},{"name":"body","children":[2,3]},{"translation":[0,0.375,0],"name":"holder","mesh":3},{"rotation":[-0.5,0.5,-0.4999999999999999,0.5000000000000001],"translation":[0,0.4375,-0.3125],"name":"handle","mesh":4},{"rotation":[-0.500000011780402,0.4999999882195978,-0.4999999882195975,0.5000000117804022],"translation":[0,0.4375,-0.4375],"name":"body","mesh":5},{"name":"knife","children":[5,6,7]},{"children":[4,8]}],"bufferViews":[{"buffer":0,"byteOffset":0,"byteLength":1728,"target":34962,"byteStride":12},{"buffer":0,"byteOffset":1728,"byteLength":1728,"target":34962,"byteStride":12},{"buffer":0,"byteOffset":3456,"byteLength":1152,"target":34962,"byteStride":8},{"buffer":0,"byteOffset":4608,"byteLength":384,"target":34963},{"buffer":0,"byteOffset":4992,"byteLength":1728,"target":34962,"byteStride":12},{"buffer":0,"byteOffset":6720,"byteLength":1728,"target":34962,"byteStride":12},{"buffer":0,"byteOffset":8448,"byteLength":1152,"target":34962,"byteStride":8},{"buffer":0,"byteOffset":9600,"byteLength":384,"target":34963},{"buffer":0,"byteOffset":9984,"byteLength":1344,"target":34962,"byteStride":12},{"buffer":0,"byteOffset":11328,"byteLength":1344,"target":34962,"byteStride":12},{"buffer":0,"byteOffset":12672,"byteLength":896,"target":34962,"byteStride":8},{"buffer":0,"byteOffset":13568,"byteLength":288,"target":34963},{"buffer":0,"byteOffset":13856,"byteLength":480,"target":34962,"byteStride":12},{"buffer":0,"byteOffset":14336,"byteLength":480,"target":34962,"byteStride":12},{"buffer":0,"byteOffset":14816,"byteLength":320,"target":34962,"byteStride":8},{"buffer":0,"byteOffset":15136,"byteLength":120,"target":34963},{"buffer":0,"byteOffset":15256,"byteLength":960,"target":34962,"byteStride":12},{"buffer":0,"byteOffset":16216,"byteLength":960,"target":34962,"byteStride":12},{"buffer":0,"byteOffset":17176,"byteLength":640,"target":34962,"byteStride":8},{"buffer":0,"byteOffset":17816,"byteLength":192,"target":34963},{"buffer":0,"byteOffset":18008,"byteLength":960,"target":34962,"byteStride":12},{"buffer":0,"byteOffset":18968,"byteLength":960,"target":34962,"byteStride":12},{"buffer":0,"byteOffset":19928,"byteLength":640,"target":34962,"byteStride":8},{"buffer":0,"byteOffset":20568,"byteLength":192,"target":34963},{"buffer":0,"byteOffset":20760,"byteLength":8},{"buffer":0,"byteOffset":20768,"byteLength":32}],"buffers":[{"byteLength":20800,"uri":"data:application/octet-stream;base64,"}],"accessors":[{"bufferView":0,"componentType":5126,"count":144,"max":[0.125,0.125,0.125],"min":[-0.125,0,-0.125],"type":"VEC3"},{"bufferView":1,"componentType":5126,"count":144,"max":[1,1,1],"min":[-1,-1,-1],"type":"VEC3"},{"bufferView":2,"componentType":5126,"count":144,"max":[0.84375,0.9375],"min":[0,0],"type":"VEC2"},{"bufferView":3,"componentType":5123,"count":192,"max":[143],"min":[0],"type":"SCALAR"},{"bufferView":4,"componentType":5126,"count":144,"max":[0.125,0.125,0.125],"min":[-0.125,0,-0.125],"type":"VEC3"},{"bufferView":5,"componentType":5126,"count":144,"max":[1,1,1],"min":[-1,-1,-1],"type":"VEC3"},{"bufferView":6,"componentType":5126,"count":144,"max":[0.84375,0.9375],"min":[0,0],"type":"VEC2"},{"bufferView":7,"componentType":5123,"count":192,"max":[143],"min":[0],"type":"SCALAR"},{"bufferView":8,"componentType":5126,"count":112,"max":[0.5,0.3125,0.5],"min":[-0.5,0,-0.5],"type":"VEC3"},{"bufferView":9,"componentType":5126,"count":112,"max":[1,1,1],"min":[-1,-1,-1],"type":"VEC3"},{"bufferView":10,"componentType":5126,"count":112,"max":[0.9539061784744263,0.484375],"min":[0.21875,0],"type":"VEC2"},{"bufferView":11,"componentType":5123,"count":144,"max":[111],"min":[0],"type":"SCALAR"},{"bufferView":12,"componentType":5126,"count":40,"max":[0.125,0.125,0.125],"min":[-0.125,0,-0.1875],"type":"VEC3"},{"bufferView":13,"componentType":5126,"count":40,"max":[1,1,1],"min":[-1,-1,-1],"type":"VEC3"},{"bufferView":14,"componentType":5126,"count":40,"max":[0.6875,0.3125],"min":[0.375,0],"type":"VEC2"},{"bufferView":15,"componentType":5123,"count":60,"max":[39],"min":[0],"type":"SCALAR"},{"bufferView":16,"componentType":5126,"count":80,"max":[0.046875,0,0.0625],"min":[-0.046875,-0.125,-0.0625],"type":"VEC3"},{"bufferView":17,"componentType":5126,"count":80,"max":[1,1,1],"min":[-1,-1,-1],"type":"VEC3"},{"bufferView":18,"componentType":5126,"count":80,"max":[0.13529837131500244,0.13529837131500244],"min":[0,0],"type":"VEC2"},{"bufferView":19,"componentType":5123,"count":96,"max":[79],"min":[0],"type":"SCALAR"},{"bufferView":20,"componentType":5126,"count":80,"max":[0.015625,0.25,0.03125],"min":[-0.015625,-0.125,-0.03125],"type":"VEC3"},{"bufferView":21,"componentType":5126,"count":80,"max":[1,0.4472135901451111,1],"min":[-1,-1,-1],"type":"VEC3"},{"bufferView":22,"componentType":5126,"count":80,"max":[0.8852983713150024,0.19779837131500244],"min":[0.75,0.0625],"type":"VEC2"},{"bufferView":23,"componentType":5123,"count":96,"max":[79],"min":[0],"type":"SCALAR"},{"bufferView":24,"componentType":5126,"count":2,"max":[0.25],"min":[0],"type":"SCALAR"},{"bufferView":25,"componentType":5126,"count":2,"max":[0,0,0,1],"min":[-0.7071067690849304,0,0,0.7071067690849304],"type":"VEC4"}],"materials":[{"pbrMetallicRoughness":{"metallicFactor":0,"roughnessFactor":1,"baseColorTexture":{"index":0}},"alphaMode":"MASK","alphaCutoff":0.05,"doubleSided":true},{"pbrMetallicRoughness":{"metallicFactor":0,"roughnessFactor":1,"baseColorTexture":{"index":1}},"alphaMode":"MASK","alphaCutoff":0.05,"doubleSided":true},{"pbrMetallicRoughness":{"metallicFactor":0,"roughnessFactor":1,"baseColorTexture":{"index":2}},"alphaMode":"MASK","alphaCutoff":0.05,"doubleSided":true}],"textures":[{"sampler":0,"source":0,"name":"wheel"},{"sampler":1,"source":1,"name":"body"},{"sampler":2,"source":2,"name":"knife"}],"samplers":[{"magFilter":9728,"minFilter":9728,"wrapS":33071,"wrapT":33071},{"magFilter":9728,"minFilter":9728,"wrapS":33071,"wrapT":33071},{"magFilter":9728,"minFilter":9728,"wrapS":33071,"wrapT":33071}],"images":[{"mimeType":"image/png","uri":"data:image/png;base64,"},{"mimeType":"image/png","uri":"data:image/png;base64,"},{"mimeType":"image/png","uri":"data:image/png;base64,"}],"meshes":[{"primitives":[{"mode":4,"attributes":{"POSITION":0,"NORMAL":1,"TEXCOORD_0":2},"indices":3,"material":0}]},{"primitives":[{"mode":4,"attributes":{"POSITION":4,"NORMAL":5,"TEXCOORD_0":6},"indices":7,"material":0}]},{"primitives":[{"mode":4,"attributes":{"POSITION":8,"NORMAL":9,"TEXCOORD_0":10},"indices":11,"material":1}]},{"primitives":[{"mode":4,"attributes":{"POSITION":12,"NORMAL":13,"TEXCOORD_0":14},"indices":15,"material":2}]},{"primitives":[{"mode":4,"attributes":{"POSITION":16,"NORMAL":17,"TEXCOORD_0":18},"indices":19,"material":2}]},{"primitives":[{"mode":4,"attributes":{"POSITION":20,"NORMAL":21,"TEXCOORD_0":22},"indices":23,"material":2}]}],"animations":[{"name":"drive","samplers":[{"input":24,"output":25,"interpolation":"LINEAR"}],"channels":[{"sampler":0,"target":{"node":2,"path":"rotation"}}]}]}